osifont.sfdir

StartChar: exclam
Encoding: 33 33 176
Width: 450
VWidth: 2456
Flags: W
HStem: 7 221<160.547 288.556>
VStem: 150 150<13.0699 220.812 468.219 1513.89>
LayerCount: 2
Fore
SplineSet
150 117.5 m 132,-1,1
 150 228 150 228 221 228 c 4,2,3
 300 228 300 228 300 113 c 4,4,5
 300 7 300 7 225 7 c 132,-1,0
 150 7 150 7 150 117.5 c 132,-1,1
225 463 m 132,-1,7
 150 463 150 463 150 558 c 30,8,-1
 150 1427 l 6,9,10
 150 1519 150 1519 225 1519 c 156,-1,11
 300 1519 300 1519 300 1426 c 30,12,-1
 300 558 l 6,13,6
 300 463 300 463 225 463 c 132,-1,7
EndSplineSet
Validated: 1
EndChar

StartChar: quotedbl
Encoding: 34 34 179
Width: 801
VWidth: 0
Flags: W
HStem: 1054 448
VStem: 100 601
LayerCount: 2
Fore
SplineSet
556 1740 m 2,0,1
 571 1804 571 1804 620 1804 c 0,2,3
 701 1804 701 1804 701 1742 c 0,4,5
 701 1719 701 1719 693 1684 c 2,6,-1
 630 1424 l 2,7,8
 614 1356 614 1356 566 1356 c 16,9,10
 485 1356 485 1356 485 1423 c 0,11,12
 485 1443 485 1443 489 1457 c 10,13,-1
 556 1740 l 2,0,1
176 1740 m 2,14,15
 192 1803 192 1803 245 1803 c 0,16,17
 323 1803 323 1803 323 1734 c 0,18,19
 323 1724 323 1724 317 1700 c 2,20,-1
 246 1420 l 2,21,22
 230 1356 230 1356 178 1356 c 0,23,24
 100 1356 100 1356 100 1421 c 0,25,26
 100 1437 100 1437 105 1457 c 10,27,-1
 176 1740 l 2,14,15
EndSplineSet
Validated: 1
EndChar

StartChar: numbersign
Encoding: 35 35 181
Width: 1256
VWidth: 0
Flags: W
HStem: 460 147<106 325 473 783 931 1150.77> 914 149<105.25 325 472 783 931 1151.88> 1495 20G<361.5 434.5>
VStem: 325 148<8.72412 460 607 914 1064 1510.12> 783 148<11.9268 460 607 914 1063 1513.12>
LayerCount: 2
Fore
SplineSet
783 607 m 25,0,-1
 783 914 l 25,1,-1
 472 914 l 25,2,-1
 472 607 l 25,3,-1
 783 607 l 25,0,-1
325 1437 m 10,4,5
 325 1515 325 1515 398 1515 c 152,-1,6
 471 1515 471 1515 471 1434 c 18,7,-1
 471 1063 l 1,8,-1
 783 1063 l 1,9,-1
 783 1440 l 2,10,11
 783 1518 783 1518 861 1518 c 0,12,13
 931 1518 931 1518 931 1436 c 18,14,-1
 931 1062 l 1,15,-1
 1082 1062 l 2,16,17
 1156 1062 1156 1062 1156 989 c 0,18,19
 1156 914 1156 914 1081 914 c 18,20,-1
 931 914 l 1,21,-1
 931 605 l 1,22,-1
 1078 605 l 2,23,24
 1155 605 1155 605 1155 534 c 0,25,26
 1155 460 1155 460 1081 460 c 18,27,-1
 929 460 l 1,28,-1
 929 89 l 2,29,30
 929 6 929 6 851 6 c 0,31,32
 783 6 783 6 783 90 c 18,33,-1
 783 460 l 1,34,-1
 473 460 l 1,35,-1
 473 89 l 2,36,37
 473 4 473 4 398 4 c 16,38,39
 325 4 325 4 325 90 c 18,40,-1
 325 460 l 1,41,-1
 181 460 l 2,42,43
 101 460 101 460 101 537 c 0,44,45
 101 604 101 604 182 604 c 18,46,-1
 325 604 l 1,47,-1
 325 914 l 1,48,-1
 184 914 l 2,49,50
 100 914 100 914 100 991 c 0,51,52
 100 1064 100 1064 185 1064 c 18,53,-1
 325 1064 l 1,54,-1
 325 1437 l 10,4,5
EndSplineSet
Validated: 1
EndChar

StartChar: dollar
Encoding: 36 36 182
Width: 954
VWidth: 0
Flags: W
HStem: 0 21G<439 512> 1138 146<660.246 846.652>
VStem: 100 145<957.57 1173.85> 402 146<4.39453 151 309 628 884 1198 1357 1502.83> 707 147<339.231 554.631>
LayerCount: 2
Fore
SplineSet
707 462 m 0,0,1
 707 561 707 561 548 628 c 1,2,-1
 548 297 l 17,3,4
 707 297 707 297 707 462 c 0,0,1
402 884 m 1,5,6
 402 1209 l 1,7,8
 245 1209 245 1209 245 1054 c 0,9,10
 245 957 245 957 402 884 c 1,5,6
100 1063 m 16,11,12
 100 1184 100 1184 175 1260 c 0,13,14
 270 1357 270 1357 402 1357 c 9,15,-1
 402 1431 l 2,16,17
 402 1507 402 1507 476 1507 c 0,18,19
 548 1507 548 1507 548 1421 c 2,20,-1
 548 1349 l 9,21,22
 680 1332 680 1332 795 1284 c 0,23,24
 853 1260 853 1260 853 1210 c 0,25,26
 853 1152 853 1152 788 1138 c 0,27,28
 769 1134 769 1134 732 1149 c 0,29,30
 610 1198 610 1198 548 1198 c 9,31,-1
 548 798 l 17,32,33
 616 768 616 768 718 702 c 16,34,35
 854 614 854 614 854 452 c 0,36,37
 854 332 854 332 775 250 c 16,38,39
 680 151 680 151 548 151 c 1,40,-1
 548 81 l 10,41,42
 548 0 548 0 476 0 c 0,43,44
 402 0 402 0 402 80 c 2,45,-1
 402 162 l 17,46,47
 202 190 202 190 135 233 c 0,48,49
 100 255 100 255 100 298 c 0,50,51
 100 369 100 369 172 369 c 0,52,53
 191 369 191 369 222 358 c 0,54,55
 326 321 326 321 402 309 c 9,56,-1
 402 715 l 1,57,58
 238 787 238 787 175 860 c 24,59,60
 100 947 100 947 100 1063 c 16,11,12
EndSplineSet
Validated: 2049
EndChar

StartChar: percent
Encoding: 37 37 74
Width: 1564
VWidth: 0
Flags: W
HStem: 0 150<1056.16 1269.39> 456 147<1057.97 1271.7> 909 148<292.157 505.39> 1363 147<293.971 507.7>
VStem: 100 147<1102.71 1309.06> 554 146<1108.73 1312.35> 864 147<194.528 402.058> 1318 146<202.209 405.353>
LayerCount: 2
Fore
SplineSet
1280 402 m 0,0,1
 1239 456 1239 456 1159 456 c 0,2,3
 1094 456 1094 456 1045 398 c 0,4,5
 1011 358 1011 358 1011 297 c 0,6,7
 1011 232 1011 232 1058 192 c 0,8,9
 1107 150 1107 150 1162 150 c 0,10,11
 1218 150 1218 150 1279 203 c 0,12,13
 1318 237 1318 237 1318 302 c 0,14,15
 1318 352 1318 352 1280 402 c 0,0,1
1393 499 m 0,16,17
 1464 420 1464 420 1464 289 c 0,18,19
 1464 174 1464 174 1375 88 c 0,20,21
 1284 0 1284 0 1161 0 c 0,22,23
 1062 0 1062 0 978 65 c 0,24,25
 864 153 864 153 864 291 c 0,26,27
 864 442 864 442 967 531 c 0,28,29
 1050 603 1050 603 1155 603 c 0,30,31
 1299 603 1299 603 1393 499 c 0,16,17
1321 1477 m 2,32,33
 1352 1510 1352 1510 1388 1510 c 0,34,35
 1462 1510 1462 1510 1462 1432 c 0,36,37
 1462 1412 1462 1412 1432 1378 c 2,38,-1
 235 31 l 26,39,40
 208 0 208 0 171 0 c 0,41,42
 100 0 100 0 100 75 c 0,43,44
 100 103 100 103 126 132 c 10,45,-1
 1321 1477 l 2,32,33
516 1309 m 0,46,47
 475 1363 475 1363 395 1363 c 0,48,49
 330 1363 330 1363 281 1305 c 0,50,51
 247 1265 247 1265 247 1204 c 0,52,53
 247 1139 247 1139 294 1099 c 0,54,55
 343 1057 343 1057 398 1057 c 0,56,57
 454 1057 454 1057 515 1110 c 0,58,59
 554 1144 554 1144 554 1209 c 0,60,61
 554 1259 554 1259 516 1309 c 0,46,47
629 1406 m 0,62,63
 700 1327 700 1327 700 1196 c 0,64,65
 700 1079 700 1079 611 995 c 0,66,67
 520 909 520 909 397 909 c 0,68,69
 298 909 298 909 214 972 c 0,70,71
 100 1057 100 1057 100 1198 c 0,72,73
 100 1349 100 1349 203 1438 c 0,74,75
 286 1510 286 1510 391 1510 c 0,76,77
 535 1510 535 1510 629 1406 c 0,62,63
EndSplineSet
Validated: 2049
EndChar

StartChar: ampersand
Encoding: 38 38 178
Width: 1258
VWidth: 0
Flags: W
HStem: 0 150<288.386 518.834> 1366 149<373.387 587.369>
VStem: 100 153<185.808 424.586> 180 145<1097.84 1317.92> 636 147<1100.37 1316.93>
LayerCount: 2
Fore
SplineSet
689 324 m 1,0,1
 547 547 547 547 469 670 c 1,2,-1
 290 415 l 2,3,4
 253 361 253 361 253 305 c 0,5,6
 253 150 253 150 415 150 c 0,7,8
 461 150 461 150 516 192 c 2,9,-1
 689 324 l 1,0,1
475 934 m 1,10,-1
 607 1122 l 2,11,12
 636 1163 636 1163 636 1219 c 0,13,14
 636 1272 636 1272 589 1320 c 0,15,16
 544 1366 544 1366 481 1366 c 0,17,18
 415 1366 415 1366 371 1320 c 0,19,20
 325 1272 325 1272 325 1217 c 0,21,22
 325 1169 325 1169 357 1118 c 26,23,-1
 475 934 l 1,10,-1
475 1515 m 0,24,25
 606 1515 606 1515 705 1416 c 0,26,27
 783 1338 783 1338 783 1224 c 0,28,29
 783 1120 783 1120 745 1064 c 2,30,-1
 561 801 l 9,31,-1
 806 414 l 25,32,-1
 1037 585 l 2,33,34
 1063 604 1063 604 1086 604 c 0,35,36
 1158 604 1158 604 1158 527 c 0,37,38
 1158 494 1158 494 1114 460 c 2,39,-1
 887 286 l 9,40,-1
 994 119 l 18,41,42
 1007 97 1007 97 1007 73 c 0,43,44
 1007 0 1007 0 934 0 c 0,45,46
 898 0 898 0 876 35 c 2,47,-1
 770 197 l 9,48,-1
 574 54 l 26,49,50
 503 0 503 0 401 0 c 0,51,52
 281 0 281 0 213 67 c 0,53,54
 100 178 100 178 100 318 c 0,55,56
 100 403 100 403 168 493 c 2,57,-1
 385 804 l 9,58,-1
 209 1082 l 2,59,60
 180 1129 180 1129 180 1222 c 0,61,62
 180 1357 180 1357 295 1450 c 0,63,64
 375 1515 375 1515 475 1515 c 0,24,25
EndSplineSet
Validated: 2049
EndChar

StartChar: quotesingle
Encoding: 39 39 180
Width: 417
VWidth: 0
Flags: W
HStem: 1059 446<179.641 237.12>
VStem: 172 145<1380.66 1500.27>
LayerCount: 2
Fore
SplineSet
172 1745 m 2,0,1
 189 1812 189 1812 242 1812 c 0,2,3
 317 1812 317 1812 317 1747 c 0,4,5
 317 1723 317 1723 311 1699 c 2,6,-1
 246 1436 l 2,7,8
 228 1366 228 1366 172 1366 c 0,9,10
 100 1366 100 1366 100 1434 c 0,11,12
 100 1456 100 1456 110 1497 c 10,13,-1
 172 1745 l 2,0,1
EndSplineSet
Validated: 1
EndChar

StartChar: parenleft
Encoding: 40 40 45
Width: 522
VWidth: 0
Flags: W
VStem: 130 138<313.553 1203.48> 278 144<-144.767 34.8945 1483.4 1660.3>
LayerCount: 2
Fore
SplineSet
282 1618 m 0,0,1
 301 1666 301 1666 356 1666 c 0,2,3
 421 1666 421 1666 421 1594 c 0,4,5
 421 1569 421 1569 405 1526 c 0,6,7
 268 1155 268 1155 268 788 c 0,8,9
 268 339 268 339 404 -9 c 0,10,11
 422 -55 422 -55 422 -85 c 0,12,13
 422 -149 422 -149 342 -149 c 0,14,15
 301 -149 301 -149 278 -89 c 0,16,17
 130 301 130 301 130 791 c 0,18,19
 130 1231 130 1231 282 1618 c 0,0,1
EndSplineSet
Validated: 1
EndChar

StartChar: parenright
Encoding: 41 41 46
Width: 522
VWidth: 0
Flags: W
VStem: 100 144<-142.767 36.8945 1485.4 1662.3> 254 138<315.553 1217.85>
LayerCount: 2
Fore
SplineSet
240 1620 m 0,0,1
 392 1233 392 1233 392 793 c 0,2,3
 392 303 392 303 244 -87 c 0,4,5
 221 -147 221 -147 180 -147 c 0,6,7
 100 -147 100 -147 100 -83 c 0,8,9
 100 -53 100 -53 118 -7 c 0,10,11
 254 341 254 341 254 790 c 0,12,13
 254 1181 254 1181 117 1528 c 0,14,15
 100 1571 100 1571 100 1596 c 0,16,17
 100 1668 100 1668 166 1668 c 0,18,19
 221 1668 221 1668 240 1620 c 0,0,1
EndSplineSet
Validated: 1
EndChar

StartChar: asterisk
Encoding: 42 42 73
Width: 950
VWidth: 0
Flags: W
HStem: 521 143<103.828 299 650 846.172>
LayerCount: 2
Fore
SplineSet
648 661 m 21,0,1
 774 661 l 30,2,3
 850 661 850 661 850 593 c 4,4,5
 850 521 850 521 770 521 c 22,6,7
 650 521 l 29,8,-1
 732 438 l 22,9,10
 758 412 758 412 758 389 c 4,11,12
 758 319 758 319 673 319 c 4,13,14
 647 319 647 319 616 350 c 6,15,-1
 476 489 l 5,16,-1
 315 328 l 6,17,18
 295 309 295 309 268 309 c 4,19,20
 194 309 194 309 194 382 c 12,21,22
 194 410 194 410 214 432 c 22,23,-1
 299 521 l 5,24,-1
 175 521 l 30,25,26
 100 521 100 521 100 594 c 28,27,28
 100 664 100 664 180 664 c 6,29,-1
 300 664 l 5,30,-1
 203 762 l 14,31,32
 186 779 186 779 186 806 c 4,33,34
 186 886 186 886 264 886 c 4,35,36
 291 886 291 886 310 866 c 6,37,-1
 476 695 l 5,38,-1
 625 844 l 6,39,40
 663 882 663 882 698 882 c 4,41,42
 763 882 763 882 763 804 c 4,43,44
 763 776 763 776 723 736 c 30,45,-1
 648 661 l 21,0,1
EndSplineSet
Validated: 1
EndChar

StartChar: plus
Encoding: 43 43 42
Width: 952
VWidth: 0
Flags: W
HStem: 525 143<104.614 409 554 847.276>
VStem: 409 142<227.559 525 668 965.605>
LayerCount: 2
Fore
SplineSet
409 890 m 14,0,1
 409 970 409 970 483 970 c 28,2,3
 554 970 554 970 554 884 c 22,4,-1
 554 667 l 5,5,-1
 768 667 l 14,6,7
 852 667 852 667 852 594 c 28,8,9
 852 525 852 525 766 525 c 6,10,11
 551 525 l 5,12,-1
 551 306 l 14,13,14
 551 223 551 223 484 223 c 28,15,16
 409 223 409 223 409 304 c 22,17,-1
 409 525 l 5,18,19
 184 525 l 14,20,21
 100 525 100 525 100 599 c 28,22,23
 100 668 100 668 186 668 c 22,24,-1
 409 668 l 5,25,-1
 409 890 l 14,0,1
EndSplineSet
Validated: 1
EndChar

StartChar: comma
Encoding: 44 44 30
Width: 477
VWidth: 0
Flags: W
HStem: -352 446<209.641 267.12>
VStem: 202 145<-30.344 89.2727>
LayerCount: 2
Fore
SplineSet
202 27 m 2,0,1
 219 94 219 94 272 94 c 0,2,3
 347 94 347 94 347 29 c 0,4,5
 347 5 347 5 341 -19 c 2,6,-1
 276 -282 l 2,7,8
 258 -352 258 -352 202 -352 c 0,9,10
 130 -352 130 -352 130 -284 c 0,11,12
 130 -262 130 -262 140 -221 c 10,13,-1
 202 27 l 2,0,1
EndSplineSet
Validated: 1
EndChar

StartChar: hyphen
Encoding: 45 45 43
Width: 952
VWidth: 0
Flags: W
HStem: 527 144<104.23 847.5>
LayerCount: 2
Fore
SplineSet
177 671 m 22,0,1
 780 671 l 14,2,3
 852 671 852 671 852 594 c 28,4,5
 852 527 852 527 775 527 c 6,6,-1
 174 527 l 14,7,8
 100 527 100 527 100 602 c 28,9,10
 100 671 100 671 177 671 c 22,0,1
EndSplineSet
Validated: 1
EndChar

StartChar: period
Encoding: 46 46 31
Width: 412
VWidth: 0
Flags: W
HStem: 0 214<139.844 270.251>
VStem: 130 152<6.25 205.536>
LayerCount: 2
Fore
SplineSet
130 107 m 128,-1,1
 130 214 130 214 200 214 c 0,2,3
 282 214 282 214 282 100 c 0,4,5
 282 0 282 0 205 0 c 0,6,0
 130 0 130 0 130 107 c 128,-1,1
EndSplineSet
EndChar

StartChar: slash
Encoding: 47 47 183
Width: 1006
VWidth: 2456
Flags: W
HStem: 0 21G<169 230> 1490 20G<781 840>
VStem: 130 149<6.67529 62> 730 146<1447 1502.56>
LayerCount: 2
Fore
SplineSet
130 67 m 4,0,1
 130 89 130 89 148 130 c 30,2,-1
 730 1447 l 6,3,4
 758 1510 758 1510 804 1510 c 4,5,6
 876 1510 876 1510 876 1442 c 4,7,8
 876 1416 876 1416 866 1391 c 14,9,-1
 279 62 l 6,10,11
 252 0 252 0 208 0 c 4,12,13
 130 0 130 0 130 67 c 4,0,1
EndSplineSet
Validated: 1
EndChar

StartChar: zero
Encoding: 48 48 32
Width: 958
VWidth: 0
Flags: W
HStem: 0 146<385.973 566.811> 1366 144<389.585 568.691>
VStem: 100 148<434.099 1072.17> 709 149<424.451 1076.24>
LayerCount: 2
Fore
SplineSet
477 1366 m 28,0,1
 409 1366 409 1366 379 1306 c 28,2,3
 301 1152 301 1152 265 953 c 20,4,5
 248 860 248 860 248 764 c 4,6,7
 248 694 248 694 257 625 c 12,8,9
 286 399 286 399 356 241 c 28,10,11
 398 146 398 146 476 146 c 28,12,13
 551 146 551 146 596 232 c 28,14,15
 662 359 662 359 695 581 c 20,16,17
 709 676 709 676 709 765 c 132,-1,18
 709 854 709 854 695 937 c 12,19,20
 659 1148 659 1148 577 1308 c 28,21,22
 547 1366 547 1366 477 1366 c 28,0,1
482 1510 m 28,23,24
 619 1510 619 1510 691 1404 c 28,25,26
 802 1241 802 1241 845 945 c 4,27,28
 858 856 858 856 858 765 c 4,29,30
 858 669 858 669 844 574 c 12,31,32
 801 280 801 280 695 114 c 28,33,34
 622 0 622 0 479 0 c 28,35,36
 338 0 338 0 263 118 c 28,37,38
 171 262 171 262 116 569 c 20,39,40
 100 658 100 658 100 751 c 4,41,42
 100 848 100 848 117 946 c 12,43,44
 170 1251 170 1251 255 1387 c 28,45,46
 331 1510 331 1510 482 1510 c 28,23,24
EndSplineSet
Validated: 1
EndChar

StartChar: one
Encoding: 49 49 33
Width: 700
VWidth: 0
Flags: W
HStem: 1490 20G<406.5 462.5>
VStem: 354 146<9.72412 1270>
LayerCount: 2
Fore
SplineSet
354 1478 m 2,0,1
 388 1510 388 1510 425 1510 c 0,2,3
 500 1510 500 1510 500 1427 c 2,4,-1
 500 90 l 26,5,6
 500 5 500 5 428 5 c 24,7,8
 354 5 354 5 354 91 c 2,9,10
 354 1270 l 1,11,-1
 180 1096 l 2,12,13
 153 1069 153 1069 126 1069 c 0,14,15
 50 1069 50 1069 50 1136 c 0,16,17
 50 1170 50 1170 79 1199 c 10,18,-1
 354 1478 l 2,0,1
EndSplineSet
Validated: 1
EndChar

StartChar: two
Encoding: 50 50 34
Width: 955
VWidth: 0
Flags: W
HStem: 0 140<304 848.88> 1365 145<344.057 614.806>
VStem: 707 148<999.562 1272.73>
LayerCount: 2
Fore
SplineSet
178 1139 m 0,0,1
 100 1139 100 1139 100 1209 c 0,2,3
 100 1231 100 1231 118 1267 c 0,4,5
 181 1391 181 1391 263 1444 c 0,6,7
 365 1510 365 1510 478 1510 c 0,8,9
 668 1510 668 1510 776 1365 c 0,10,11
 855 1259 855 1259 855 1137 c 0,12,13
 855 1030 855 1030 789 923 c 18,14,-1
 304 140 l 1,15,-1
 778 140 l 10,16,17
 853 140 853 140 853 65 c 24,18,19
 853 0 853 0 771 0 c 2,20,-1
 190 0 l 2,21,22
 101 0 101 0 101 64 c 24,23,24
 101 92 101 92 114 113 c 2,25,-1
 652 980 l 2,26,27
 707 1069 707 1069 707 1137 c 0,28,29
 707 1223 707 1223 652 1287 c 0,30,31
 585 1365 585 1365 473 1365 c 0,32,33
 334 1365 334 1365 248 1201 c 24,34,35
 215 1139 215 1139 178 1139 c 0,0,1
EndSplineSet
Validated: 1
EndChar

StartChar: three
Encoding: 51 51 35
Width: 984
VWidth: 0
Flags: W
HStem: 5 141<104.669 609.766> 765 141<263.614 612.875> 1369 146<109.109 611.978>
VStem: 710 144<244.965 667.661 1006.16 1273.87>
LayerCount: 2
Fore
SplineSet
197 1515 m 6,0,1
 510 1515 l 30,2,3
 646 1515 646 1515 754 1398 c 28,4,5
 854 1290 854 1290 854 1145 c 4,6,7
 854 963 854 963 698 834 c 5,8,9
 850 724 850 724 850 563 c 6,10,11
 850 343 l 22,12,13
 850 214 850 214 739 103 c 28,14,15
 641 5 641 5 483 5 c 6,16,17
 185 5 l 30,18,19
 100 5 100 5 100 79 c 28,20,21
 100 146 100 146 190 146 c 6,22,23
 454 146 l 6,24,25
 575 146 575 146 645 218 c 4,26,27
 710 285 710 285 710 393 c 6,28,-1
 710 523 l 6,29,30
 710 625 710 625 650 688 c 4,31,32
 577 765 577 765 494 765 c 6,33,-1
 342 765 l 30,34,35
 259 765 259 765 259 840 c 28,36,37
 259 906 259 906 343 906 c 6,38,-1
 478 906 l 30,39,40
 572 906 572 906 639 974 c 4,41,42
 710 1046 710 1046 710 1138 c 4,43,44
 710 1232 710 1232 653 1290 c 4,45,46
 575 1369 575 1369 493 1369 c 14,47,-1
 197 1369 l 30,48,49
 104 1369 104 1369 104 1444 c 28,50,51
 104 1515 104 1515 197 1515 c 6,0,1
EndSplineSet
Validated: 1
EndChar

StartChar: four
Encoding: 52 52 36
Width: 1051
VWidth: 0
Flags: W
HStem: 307 147<265 630 774 995.849> 1495 20G<447 510.5>
VStem: 630 144<7.44946 307 454 751.693>
LayerCount: 2
Fore
SplineSet
402 1459 m 26,0,1
 418 1515 418 1515 476 1515 c 0,2,3
 545 1515 545 1515 545 1446 c 0,4,5
 545 1429 545 1429 538 1406 c 2,6,-1
 265 454 l 1,7,-1
 630 454 l 1,8,-1
 630 672 l 10,9,10
 630 756 630 756 703 756 c 24,11,12
 774 756 774 756 774 666 c 18,13,-1
 774 453 l 1,14,15
 928 453 l 2,16,17
 1001 453 1001 453 1001 374 c 0,18,19
 1001 310 1001 310 925 310 c 18,20,-1
 774 310 l 1,21,-1
 774 84 l 10,22,23
 774 3 774 3 700 3 c 24,24,25
 630 3 630 3 630 81 c 18,26,-1
 630 307 l 1,27,-1
 171 307 l 2,28,29
 100 307 100 307 100 374 c 24,30,31
 100 396 100 396 114 446 c 26,32,33
 402 1459 l 26,0,1
EndSplineSet
Validated: 1
EndChar

StartChar: five
Encoding: 53 53 37
Width: 1018
VWidth: 0
Flags: W
HStem: 0 141<139.02 645.041> 759 144<277 646.217> 1366 144<277 884.028>
VStem: 130 147<903 1366> 740 147<235.114 665.963>
LayerCount: 2
Fore
SplineSet
130 1434 m 2,0,1
 130 1510 130 1510 217 1510 c 2,2,3
 805 1510 l 26,4,5
 888 1510 888 1510 888 1438 c 152,-1,6
 888 1366 888 1366 809 1366 c 18,7,-1
 277 1366 l 1,8,-1
 277 903 l 1,9,-1
 499 903 l 10,10,11
 692 903 692 903 809 759 c 0,12,13
 887 663 887 663 887 529 c 2,14,-1
 887 368 l 2,15,16
 887 208 887 208 778 107 c 0,17,18
 663 0 663 0 524 0 c 2,19,-1
 212 0 l 26,20,21
 135 0 135 0 135 70 c 24,22,23
 135 141 135 141 219 141 c 2,24,-1
 497 141 l 2,25,26
 623 141 623 141 690 227 c 0,27,28
 740 291 740 291 740 378 c 2,29,-1
 740 529 l 18,30,31
 740 619 740 619 681 685 c 0,32,33
 615 759 615 759 479 759 c 2,34,-1
 203 759 l 2,35,36
 130 759 130 759 130 844 c 26,37,-1
 130 1434 l 2,0,1
EndSplineSet
Validated: 1
EndChar

StartChar: six
Encoding: 54 54 38
Width: 1013
VWidth: 0
Flags: W
HStem: 0 141<369.051 632.864> 756 146<284 641.281> 1364 146<564.999 723.92>
VStem: 130 143<239.724 756 902 1039.62> 738 145<232.508 657.236>
LayerCount: 2
Fore
SplineSet
284 902 m 9,0,1
 505 902 l 10,2,3
 673 902 673 902 785 777 c 0,4,5
 883 668 883 668 883 545 c 2,6,7
 883 343 l 2,8,9
 883 214 883 214 758 93 c 0,10,11
 662 0 662 0 487 0 c 0,12,13
 346 0 346 0 237 106 c 24,14,15
 130 210 130 210 130 343 c 26,16,-1
 130 865 l 2,17,18
 130 1093 130 1093 305 1298 c 0,19,20
 412 1423 412 1423 589 1494 c 0,21,22
 629 1510 629 1510 657 1510 c 0,23,24
 729 1510 729 1510 729 1432 c 0,25,26
 729 1386 729 1386 666 1364 c 0,27,28
 525 1315 525 1315 444 1234 c 0,29,30
 306 1097 306 1097 284 902 c 9,0,1
273 358 m 2,31,32
 273 272 273 272 357 195 c 0,33,34
 416 141 416 141 508 141 c 0,35,36
 578 141 578 141 672 212 c 0,37,38
 738 262 738 262 738 362 c 2,39,-1
 738 514 l 2,40,41
 738 613 738 613 670 686 c 0,42,43
 605 756 605 756 507 756 c 2,44,-1
 273 756 l 1,45,-1
 273 358 l 2,31,32
EndSplineSet
Validated: 1
EndChar

StartChar: seven
Encoding: 55 55 39
Width: 979
VWidth: 0
Flags: W
HStem: 0 21G<443.5 509> 1363 147<242 690>
VStem: 100 142<1220.54 1363>
LayerCount: 2
Fore
SplineSet
765 1510 m 6,0,1
 849 1510 849 1510 849 1440 c 4,2,3
 849 1418 849 1418 828 1323 c 30,4,5
 551 70 l 30,6,7
 536 0 536 0 482 0 c 4,8,9
 405 0 405 0 405 66 c 4,10,11
 405 80 405 80 408 94 c 6,12,-1
 690 1363 l 5,13,-1
 242 1363 l 5,14,15
 242 1288 l 6,16,17
 242 1217 242 1217 169 1217 c 4,18,19
 100 1217 100 1217 100 1291 c 6,20,21
 100 1443 l 6,22,23
 100 1510 100 1510 180 1510 c 30,24,25
 765 1510 l 6,0,1
EndSplineSet
Validated: 1
EndChar

StartChar: eight
Encoding: 56 56 40
Width: 1056
VWidth: 0
Flags: W
HStem: 4 145<386.483 659.399> 760 148<391.995 662.668> 1366 149<384.752 659.221>
VStem: 150 145<245.36 663.461 1003.65 1272.18> 758 148<241.672 657.981 997.079 1267.97>
LayerCount: 2
Fore
SplineSet
525 760 m 0,0,1
 436 760 436 760 368 696 c 0,2,3
 294 626 294 626 294 536 c 2,4,-1
 294 354 l 2,5,6
 294 280 294 280 381 198 c 0,7,8
 433 149 433 149 526 149 c 0,9,10
 607 149 607 149 687 214 c 0,11,12
 758 272 758 272 758 378 c 2,13,-1
 758 527 l 2,14,15
 758 612 758 612 686 694 c 0,16,17
 628 760 628 760 525 760 c 0,0,1
368 1307 m 0,18,19
 295 1231 295 1231 295 1146 c 0,20,21
 295 1066 295 1066 346 992 c 0,22,23
 404 908 404 908 523 908 c 0,24,25
 638 908 638 908 700 978 c 0,26,27
 761 1050 761 1050 761 1139 c 0,28,29
 761 1231 761 1231 682 1303 c 0,30,31
 612 1366 612 1366 521 1366 c 0,32,33
 425 1366 425 1366 368 1307 c 0,18,19
301 835 m 5,34,35
 150 952 150 952 150 1160 c 4,36,37
 150 1326 150 1326 285 1428 c 4,38,39
 400 1515 400 1515 530 1515 c 4,40,41
 638 1515 638 1515 716 1467 c 4,42,43
 904 1351 904 1351 904 1139 c 4,44,45
 904 941 904 941 753 832 c 5,46,47
 906 710 906 710 906 533 c 6,48,-1
 906 362 l 30,49,50
 906 217 906 217 777 96 c 284,51,52
 679 4 679 4 533 4 c 4,53,54
 367 4 367 4 281 89 c 4,55,56
 150 218 150 218 150 356 c 6,57,-1
 150 541 l 6,58,59
 150 704 150 704 301 835 c 5,34,35
EndSplineSet
Validated: 2049
EndChar

StartChar: nine
Encoding: 57 57 41
Width: 1030
VWidth: 0
Flags: W
HStem: 0 148<287.031 454.129> 606 145<367.6 728> 1363 147<364.338 638.792>
VStem: 130 142<846.172 1270.14> 732 148<458.08 606 751 1270.48>
LayerCount: 2
Fore
SplineSet
280 74 m 0,0,1
 280 125 280 125 351 148 c 24,2,3
 450 180 450 180 523 240 c 0,4,5
 699 387 699 387 728 606 c 1,6,-1
 485 606 l 10,7,8
 358 606 358 606 255 695 c 0,9,10
 130 805 130 805 130 950 c 26,11,12
 130 1161 l 2,13,14
 130 1328 130 1328 293 1447 c 0,15,16
 379 1510 379 1510 514 1510 c 0,17,18
 657 1510 657 1510 774 1396 c 0,19,20
 880 1293 880 1293 880 1133 c 26,21,22
 880 673 l 2,23,24
 880 525 880 525 828 410 c 0,25,26
 743 224 743 224 631 137 c 0,27,28
 451 0 451 0 352 0 c 0,29,30
 280 0 280 0 280 74 c 0,0,1
732 1124 m 2,31,32
 732 1225 732 1225 671 1290 c 0,33,34
 602 1363 602 1363 502 1363 c 0,35,36
 415 1363 415 1363 344 1302 c 0,37,38
 272 1240 272 1240 272 1136 c 2,39,-1
 272 974 l 18,40,41
 272 873 272 873 354 805 c 0,42,43
 419 751 419 751 543 751 c 2,44,-1
 732 751 l 25,45,46
 732 1124 l 2,31,32
EndSplineSet
Validated: 1
EndChar

StartChar: colon
Encoding: 58 58 184
Width: 455
VWidth: 0
Flags: W
HStem: 167 218<159.844 290.098> 772 217<160.266 293.098>
VStem: 150 152<173.75 377.098 778.688 982>
LayerCount: 2
Fore
SplineSet
150 275 m 4,0,1
 150 385 150 385 220 385 c 4,2,3
 302 385 302 385 302 273 c 4,4,5
 302 167 302 167 224 167 c 4,6,7
 150 167 150 167 150 275 c 4,0,1
150 879 m 4,8,9
 150 989 150 989 223 989 c 4,10,11
 305 989 305 989 305 877 c 4,12,13
 305 772 305 772 227 772 c 4,14,15
 150 772 150 772 150 879 c 4,8,9
EndSplineSet
Validated: 1
EndChar

StartChar: semicolon
Encoding: 59 59 185
Width: 522
VWidth: 0
Flags: W
HStem: 719 218<228.984 360.098>
VStem: 219 153<215.35 323.652 725.75 929.098>
LayerCount: 2
Fore
SplineSet
222 263 m 2,0,1
 239 330 239 330 292 330 c 0,2,3
 367 330 367 330 367 265 c 0,4,5
 367 241 367 241 361 217 c 2,6,-1
 296 -46 l 2,7,8
 278 -116 278 -116 222 -116 c 0,9,10
 150 -116 150 -116 150 -48 c 0,11,12
 150 -26 150 -26 160 15 c 10,13,-1
 222 263 l 2,0,1
219 827 m 0,14,15
 219 937 219 937 290 937 c 0,16,17
 372 937 372 937 372 825 c 0,18,19
 372 719 372 719 294 719 c 0,20,21
 219 719 219 719 219 827 c 0,14,15
EndSplineSet
Validated: 1
EndChar

StartChar: less
Encoding: 60 60 187
Width: 952
VWidth: 0
Flags: W
HStem: 298 144<792 847.254>
LayerCount: 2
Fore
SplineSet
792 442 m 6,0,1
 852 419 852 419 852 375 c 4,2,3
 852 298 852 298 787 298 c 4,4,5
 763 298 763 298 744 304 c 6,6,-1
 169 521 l 30,7,8
 100 547 100 547 100 597 c 4,9,10
 100 650 100 650 177 679 c 6,11,-1
 737 889 l 22,12,13
 761 898 761 898 784 898 c 4,14,15
 850 898 850 898 850 819 c 4,16,17
 850 774 850 774 782 749 c 6,18,-1
 382 596 l 5,19,-1
 792 442 l 6,0,1
EndSplineSet
Validated: 1
EndChar

StartChar: equal
Encoding: 61 61 77
Width: 950
VWidth: 0
Flags: W
HStem: 296 146<103.445 844.155> 751 147<105.01 846.155>
LayerCount: 2
Fore
SplineSet
773 442 m 6,0,1
 848 442 848 442 848 370 c 4,2,3
 848 296 848 296 778 296 c 6,4,5
 171 296 l 30,6,7
 100 296 100 296 100 369 c 132,-1,8
 100 442 100 442 172 442 c 30,9,-1
 773 442 l 6,0,1
775 898 m 6,10,11
 850 898 850 898 850 825 c 4,12,13
 850 751 850 751 780 751 c 6,14,-1
 173 751 l 30,15,16
 101 751 101 751 101 824 c 4,17,18
 101 898 101 898 174 898 c 30,19,-1
 775 898 l 6,10,11
EndSplineSet
Validated: 1
EndChar

StartChar: greater
Encoding: 62 62 188
Width: 952
VWidth: 0
Flags: W
HStem: 297 144<104.746 160>
LayerCount: 2
Fore
SplineSet
160 441 m 6,0,-1
 570 595 l 5,1,-1
 170 748 l 6,2,3
 102 773 102 773 102 818 c 4,4,5
 102 897 102 897 168 897 c 4,6,7
 191 897 191 897 215 888 c 14,8,-1
 775 678 l 6,9,10
 852 649 852 649 852 596 c 4,11,12
 852 546 852 546 783 520 c 30,13,-1
 208 303 l 6,14,15
 189 297 189 297 165 297 c 4,16,17
 100 297 100 297 100 374 c 4,18,19
 100 418 100 418 160 441 c 6,0,-1
EndSplineSet
Validated: 1
EndChar

StartChar: question
Encoding: 63 63 177
Width: 951
VWidth: 2456
Flags: W
HStem: 0 221<410.125 531.312> 1291 132<103.254 249.304> 1364 146<273.533 657.108>
VStem: 400 142<5.31152 214.903 459.732 827.457> 702 149<1097.86 1319.01>
LayerCount: 2
Fore
SplineSet
136 1423 m 0,0,1
 320 1510 320 1510 550 1510 c 0,2,3
 688 1510 688 1510 777 1406 c 0,4,5
 851 1320 851 1320 851 1206 c 24,6,7
 851 1082 851 1082 765 1000 c 2,8,-1
 584 826 l 2,9,10
 544 788 544 788 544 729 c 26,11,-1
 544 539 l 2,12,13
 544 456 544 456 472 456 c 152,-1,14
 400 456 400 456 400 534 c 2,15,-1
 400 738 l 26,16,17
 400 846 400 846 471 913 c 2,18,-1
 670 1109 l 2,19,20
 702 1141 702 1141 702 1194 c 0,21,22
 702 1364 702 1364 520 1364 c 0,23,24
 402 1364 402 1364 224 1303 c 0,25,26
 190 1291 190 1291 170 1291 c 0,27,28
 168 1291 l 0,29,30
 100 1291 100 1291 100 1364 c 8,31,32
 100 1406 100 1406 136 1423 c 0,0,1
400 111 m 4,33,34
 400 221 400 221 466 221 c 5,35,36
 542 221 542 221 542 110 c 4,37,38
 542 0 542 0 472 0 c 4,39,40
 400 0 400 0 400 111 c 4,33,34
EndSplineSet
Validated: 1
EndChar

StartChar: at
Encoding: 64 64 189
Width: 1660
VWidth: 0
Flags: W
HStem: -220 147<539.5 822.625> 232 148<722.159 941.784 1160.69 1340.68> 1145 147<723.775 985> 1602 147<626.861 1046>
VStem: 150 147<202.109 1281.4> 533 142<429.47 1097.25> 985 143<421.528 1145> 1363 147<401.667 1286.75>
LayerCount: 2
Fore
SplineSet
985 1145 m 1,0,1
 852 1145 l 26,2,3
 675 1145 675 1145 675 954 c 2,4,5
 675 588 l 2,6,7
 675 380 675 380 835 380 c 0,8,9
 985 380 985 380 985 582 c 2,10,11
 985 1145 l 1,0,1
718 -220 m 0,12,13
 536 -220 536 -220 368 -85 c 24,14,15
 150 90 150 90 150 440 c 2,16,17
 150 1044 l 2,18,19
 150 1392 150 1392 402 1591 c 24,20,21
 602 1749 602 1749 846 1749 c 0,22,23
 1073 1749 1073 1749 1268 1587 c 24,24,25
 1510 1386 1510 1386 1510 1039 c 2,26,27
 1510 538 l 2,28,29
 1510 393 1510 393 1456 332 c 0,30,31
 1368 232 1368 232 1249 232 c 0,32,33
 1142 232 1142 232 1052 328 c 1,34,35
 957 232 957 232 826 232 c 0,36,37
 754 232 754 232 680 274 c 0,38,39
 533 358 533 358 533 547 c 2,40,-1
 533 975 l 2,41,42
 533 1120 533 1120 621.5 1206 c 128,-1,43
 710 1292 710 1292 869 1292 c 2,44,-1
 1038 1292 l 1,45,46
 1128 1292 1128 1292 1128 1206 c 2,47,-1
 1128 569 l 2,48,49
 1128 380 1128 380 1247 380 c 0,50,51
 1363 380 1363 380 1363 522 c 2,52,-1
 1363 1071 l 2,53,54
 1363 1306 1363 1306 1188 1464 c 0,55,56
 1035 1602 1035 1602 844 1602 c 0,57,58
 638 1602 638 1602 478 1466 c 0,59,60
 297 1312 297 1312 297 1061 c 2,61,-1
 297 426 l 2,62,63
 297 194 297 194 453 35 c 0,64,65
 559 -73 559 -73 742 -73 c 0,66,67
 828 -73 828 -73 828 -152 c 0,68,69
 828 -220 828 -220 718 -220 c 0,12,13
EndSplineSet
Validated: 1
EndChar

StartChar: A
Encoding: 65 65 4
Width: 1258
VWidth: 2456
Flags: W
HStem: 0 21G<1059.5 1122> 382 141<400 861> 1490 20G<608 659>
LayerCount: 2
Fore
SplineSet
564 1455 m 14,0,1
 582 1510 582 1510 634 1510 c 28,2,3
 684 1510 684 1510 702 1455 c 22,4,-1
 1149 111 l 22,5,6
 1158 84 1158 84 1158 67 c 4,7,8
 1158 8 1158 8 1086 0 c 5,9,10
 1033 0 1033 0 1011 66 c 6,11,12
 909 382 l 5,13,-1
 355 382 l 5,14,-1
 246 58 l 6,15,16
 225 -3 225 -3 178 -3 c 4,17,18
 100 -3 100 -3 100 70 c 20,19,20
 100 80 100 80 122 145 c 14,21,-1
 564 1455 l 14,0,1
630 1206 m 29,22,-1
 400 523 l 29,23,-1
 861 523 l 29,24,-1
 630 1206 l 29,22,-1
EndSplineSet
Validated: 1
EndChar

StartChar: B
Encoding: 66 66 10
Width: 1192
VWidth: 0
Flags: W
HStem: 0 139<304 774.557> 748 156<304 762.127> 1361 149<304 748.315>
VStem: 150 154<139 748 904 1361> 839 145<983.883 1265.53> 916 146<285.495 603.367>
LayerCount: 2
Fore
SplineSet
1062 460 m 4,0,1
 1062 240 1062 240 922.5 120 c 156,-1,2
 783 0 783 0 659 0 c 6,3,-1
 220 0 l 14,4,5
 150 0 150 0 150 91 c 6,6,-1
 150 1416 l 14,7,8
 150 1510 150 1510 243 1510 c 6,9,-1
 555 1510 l 6,10,11
 745 1510 745 1510 832 1434 c 28,12,13
 984 1301 984 1301 984 1132 c 260,14,15
 984 948 984 948 844 838 c 5,16,17
 937 784 937 784 999.5 683 c 132,-1,18
 1062 582 1062 582 1062 460 c 4,0,1
304 748 m 29,19,-1
 304 139 l 29,20,-1
 616 139 l 6,21,22
 752 139 752 139 834 233 c 132,-1,23
 916 327 916 327 916 441 c 260,24,25
 916 555 916 555 839 652 c 4,26,27
 763 748 763 748 619 748 c 14,28,-1
 304 748 l 29,19,-1
304 1361 m 13,29,-1
 304 904 l 5,30,-1
 609 904 l 6,31,32
 724 904 724 904 781.5 966.5 c 132,-1,33
 839 1029 839 1029 839 1122 c 260,34,35
 839 1216 839 1216 778 1288.5 c 132,-1,36
 717 1361 717 1361 605 1361 c 6,37,-1
 304 1361 l 13,29,-1
EndSplineSet
Validated: 2049
EndChar

StartChar: C
Encoding: 67 67 8
Width: 1004
VWidth: 0
Flags: W
HStem: 3 142<389.031 900.507> 1364 151<392.91 895.375>
VStem: 150 146<239.75 1271.62>
LayerCount: 2
Fore
SplineSet
520 1515 m 6,0,1
 826 1515 l 14,2,3
 900 1515 900 1515 900 1440 c 4,4,5
 900 1364 900 1364 820 1364 c 6,6,-1
 519 1364 l 6,7,8
 435 1364 435 1364 356 1291 c 4,9,10
 296 1235 296 1235 296 1141 c 6,11,-1
 296 377 l 6,12,13
 296 283 296 283 359 215 c 4,14,15
 425 145 425 145 496 145 c 6,16,-1
 832 145 l 14,17,18
 904 145 904 145 904 72 c 4,19,20
 904 3 904 3 831 3 c 6,21,-1
 490 3 l 6,22,23
 352 3 352 3 232 136 c 4,24,25
 150 227 150 227 150 369 c 6,26,-1
 150 1152 l 6,27,28
 150 1302 150 1302 268 1413 c 4,29,30
 376 1515 376 1515 520 1515 c 6,0,1
EndSplineSet
Validated: 1
EndChar

StartChar: D
Encoding: 68 68 28
Width: 1205
VWidth: 0
Flags: W
HStem: 0 144<297 813.462> 1366 144<297 815.553>
VStem: 150 147<144 1366> 911 144<240.67 1267.43>
LayerCount: 2
Fore
SplineSet
297 144 m 1,0,1
 644 144 l 2,2,3
 778 144 778 144 844.5 213.5 c 128,-1,4
 911 283 911 283 911 384 c 2,5,-1
 911 1135 l 2,6,7
 911 1224 911 1224 846 1295 c 128,-1,8
 781 1366 781 1366 674 1366 c 2,9,-1
 297 1366 l 1,10,11
 297 144 l 1,0,1
150 1428 m 2,12,13
 150 1510 150 1510 233 1510 c 2,14,-1
 702 1510 l 26,15,16
 840 1510 840 1510 947.5 1402 c 152,-1,17
 1055 1294 1055 1294 1055 1157 c 2,18,-1
 1055 350 l 2,19,20
 1055 213 1055 213 947 106.5 c 152,-1,21
 839 0 839 0 716 0 c 2,22,-1
 217 0 l 26,23,24
 150 0 150 0 150 89 c 26,25,-1
 150 1428 l 2,12,13
EndSplineSet
Validated: 1
EndChar

StartChar: E
Encoding: 69 69 24
Width: 1003
VWidth: 0
Flags: W
HStem: 5 144<294 897.459> 764 140<294 749.507> 1370 145<294 899.124>
VStem: 150 144<149 764 904 1370>
LayerCount: 2
Fore
SplineSet
294 149 m 1,0,-1
 827 149 l 10,1,2
 901 149 901 149 901 77 c 280,3,4
 901 5 901 5 830 5 c 26,5,-1
 216 5 l 2,6,7
 150 5 150 5 150 80 c 26,8,-1
 150 1437 l 2,9,10
 150 1515 150 1515 239 1515 c 26,11,-1
 822 1515 l 2,12,13
 903 1515 903 1515 903 1442 c 24,14,15
 903 1370 903 1370 822 1370 c 18,16,-1
 294 1370 l 1,17,-1
 294 904 l 5,18,-1
 680 904 l 14,19,20
 753 904 753 904 753 832 c 4,21,22
 753 764 753 764 682 764 c 22,23,-1
 294 764 l 5,24,-1
 294 149 l 1,0,-1
EndSplineSet
Validated: 1
EndChar

StartChar: F
Encoding: 70 70 18
Width: 1003
VWidth: 0
Flags: W
HStem: 763 146<299 899.22> 1371 144<299 899.22>
VStem: 150 148<8.55933 763 909 1371>
LayerCount: 2
Fore
SplineSet
298 763 m 5,0,-1
 298 86 l 14,1,2
 298 4 298 4 223 4 c 28,3,4
 150 4 150 4 150 87 c 6,5,6
 150 1445 l 30,7,8
 150 1515 150 1515 228 1515 c 6,9,10
 824 1515 l 30,11,12
 903 1515 903 1515 903 1443 c 156,-1,13
 903 1371 903 1371 825 1371 c 22,14,-1
 299 1371 l 5,15,-1
 299 909 l 5,16,-1
 825 909 l 14,17,18
 903 909 903 909 903 836 c 156,-1,19
 903 763 903 763 824 763 c 22,20,-1
 298 763 l 5,0,-1
EndSplineSet
Validated: 1
EndChar

StartChar: G
Encoding: 71 71 29
Width: 1187
VWidth: 0
Flags: W
HStem: 5 144<385.397 911> 763 143<686.397 911> 1371 144<395.611 1052.79>
VStem: 150 143<245.777 1265.89> 911 143<149 763>
LayerCount: 2
Fore
SplineSet
911 149 m 1,0,-1
 911 763 l 1,1,-1
 754 763 l 10,2,3
 683 763 683 763 683 834 c 24,4,5
 683 906 683 906 751 906 c 2,6,-1
 990 906 l 2,7,8
 1054 906 1054 906 1054 811 c 2,9,-1
 1054 92 l 26,10,11
 1054 5 1054 5 971 5 c 2,12,-1
 485 5 l 2,13,14
 376 5 376 5 263 103.5 c 128,-1,15
 150 202 150 202 150 416 c 2,16,-1
 150 1161 l 2,17,18
 150 1302 150 1302 264.5 1408.5 c 128,-1,19
 379 1515 379 1515 527 1515 c 2,20,-1
 969 1515 l 26,21,22
 1057 1515 1057 1515 1057 1443 c 152,-1,23
 1057 1371 1057 1371 970 1371 c 2,24,-1
 543 1371 l 2,25,26
 433 1371 433 1371 363 1299 c 128,-1,27
 293 1227 293 1227 293 1124 c 2,28,-1
 293 400 l 2,29,30
 293 289 293 289 358 219 c 128,-1,31
 423 149 423 149 503 149 c 2,32,-1
 911 149 l 1,0,-1
EndSplineSet
Validated: 1
EndChar

StartChar: H
Encoding: 72 72 25
Width: 1210
VWidth: 0
Flags: W
HStem: 0 21G<186.75 260.25 953.5 1024.5> 760 144<297 918> 1490 20G<186.75 260.25>
VStem: 150 147<3.68457 760 904 1505.93> 918 142<3.82812 760 904 1502.41>
LayerCount: 2
Fore
SplineSet
918 760 m 5,0,-1
 297 760 l 5,1,-1
 297 77 l 14,2,3
 297 0 297 0 223.5 0 c 156,-1,4
 150 0 150 0 150 76 c 30,5,-1
 150 1425 l 6,6,7
 150 1510 150 1510 223.5 1510 c 132,-1,8
 297 1510 297 1510 297 1425 c 22,9,-1
 297 904 l 5,10,-1
 918 904 l 5,11,-1
 918 1431 l 6,12,13
 918 1506 918 1506 989 1506 c 156,-1,14
 1060 1506 1060 1506 1060 1432 c 30,15,-1
 1060 80 l 6,16,17
 1060 0 1060 0 989 0 c 156,-1,18
 918 0 918 0 918 78 c 22,19,-1
 918 760 l 5,0,-1
EndSplineSet
Validated: 1
EndChar

StartChar: I
Encoding: 73 73 7
Width: 452
VWidth: 2456
Flags: W
HStem: 0 21G<188 264> 1490 20G<188 264>
VStem: 150 152<5.27344 1504.89>
LayerCount: 2
Fore
SplineSet
226 0 m 156,-1,1
 150 0 150 0 150 94 c 30,2,-1
 150 1420 l 6,3,4
 150 1510 150 1510 226 1510 c 156,-1,5
 302 1510 302 1510 302 1417 c 30,6,-1
 302 96 l 6,7,0
 302 0 302 0 226 0 c 156,-1,1
EndSplineSet
Validated: 1
EndChar

StartChar: J
Encoding: 74 74 21
Width: 847
VWidth: 0
Flags: W
HStem: 0 148<104.779 464.81> 1490 20G<590 661.5>
VStem: 554 143<239.284 1506.27>
LayerCount: 2
Fore
SplineSet
554 1432 m 26,0,1
 554 1510 554 1510 626 1510 c 24,2,3
 697 1510 697 1510 697 1433 c 2,4,-1
 697 366 l 18,5,6
 697 217 697 217 589.5 108.5 c 128,-1,7
 482 0 482 0 328 0 c 2,8,-1
 174 0 l 2,9,10
 100 0 100 0 100 74 c 128,-1,11
 100 148 100 148 187 148 c 2,12,-1
 335 148 l 18,13,14
 429 148 429 148 491.5 216.5 c 128,-1,15
 554 285 554 285 554 370 c 26,16,-1
 554 1432 l 26,0,1
EndSplineSet
Validated: 1
EndChar

StartChar: K
Encoding: 75 75 9
Width: 1155
VWidth: 0
Flags: W
HStem: 0 21G<957.5 990.5> 1490 20G<184.5 256.5 964 994>
VStem: 150 144<8.10864 578 797 1505.88>
LayerCount: 2
Fore
SplineSet
219 3 m 4,0,1
 150 3 150 3 150 96 c 6,2,-1
 150 1444 l 6,3,4
 150 1510 150 1510 219 1510 c 4,5,6
 294 1510 294 1510 294 1435 c 6,7,-1
 294 797 l 5,8,-1
 914 1477 l 6,9,10
 949 1515 949 1515 979 1515 c 132,-1,11
 1009 1515 1009 1515 1031 1490 c 28,12,13
 1052 1466 1052 1466 1052 1438 c 4,14,15
 1052 1412 1052 1412 1016 1372 c 6,16,-1
 600 911 l 5,17,-1
 1036 124 l 6,18,19
 1055 90 1055 90 1055 74 c 4,20,21
 1055 43 1055 43 1028 20 c 28,22,23
 1005 0 1005 0 976 0 c 4,24,25
 939 0 939 0 914 45 c 6,26,-1
 497 798 l 29,27,-1
 296 578 l 5,28,-1
 296 99 l 6,29,30
 296 3 296 3 219 3 c 4,0,1
EndSplineSet
Validated: 1
EndChar

StartChar: L
Encoding: 76 76 14
Width: 1007
VWidth: 0
Flags: W
HStem: 0 145<295 902.502> 1490 20G<186.25 258.75>
VStem: 150 145<145 1506.32>
LayerCount: 2
Fore
SplineSet
295 1433 m 30,0,-1
 295 145 l 29,1,-1
 816 145 l 30,2,3
 907 145 907 145 907 72.5 c 132,-1,4
 907 0 907 0 813 0 c 6,5,-1
 221 0 l 30,6,7
 150 0 150 0 150 89 c 6,8,-1
 150 1433 l 30,9,10
 150 1510 150 1510 222.5 1510 c 156,-1,11
 295 1510 295 1510 295 1433 c 30,0,-1
EndSplineSet
Validated: 1
EndChar

StartChar: M
Encoding: 77 77 15
Width: 1364
VWidth: 0
Flags: W
HStem: 0 21G<185.5 259.5 1103 1177> 1490 20G<188 245.5 1118 1176>
VStem: 150 148<5.875 1170> 1066 148<5.43823 1172>
LayerCount: 2
Fore
SplineSet
1074 1472 m 2,0,1
 1098 1510 1098 1510 1138 1510 c 0,2,3
 1214 1510 1214 1510 1214 1430 c 2,4,-1
 1214 99 l 26,5,6
 1214 0 1214 0 1140 0 c 128,-1,7
 1066 0 1066 0 1066 99 c 2,8,-1
 1066 1172 l 9,9,-1
 754 664 l 2,10,11
 716 601 716 601 678 601 c 128,-1,12
 640 601 640 601 604 662 c 2,13,-1
 298 1170 l 9,14,-1
 298 94 l 26,15,16
 298 0 298 0 221 0 c 24,17,18
 150 0 150 0 150 92 c 2,19,-1
 150 1431 l 2,20,21
 150 1510 150 1510 226 1510 c 0,22,23
 265 1510 265 1510 288 1475 c 2,24,-1
 674 824 l 25,25,-1
 1074 1472 l 2,0,1
EndSplineSet
Validated: 1
EndChar

StartChar: N
Encoding: 78 78 17
Width: 1202
VWidth: 0
Flags: W
HStem: 1495 20G<186 245.5 948.5 1017.5>
VStem: 150 144<13.5044 1159> 914 138<357 1511.86>
LayerCount: 2
Fore
SplineSet
914 357 m 25,0,-1
 914 1439 l 2,1,2
 914 1515 914 1515 983 1515 c 128,-1,3
 1052 1515 1052 1515 1052 1442 c 2,4,-1
 1052 89 l 26,5,6
 1052 6 1052 6 986 6 c 0,7,8
 940 6 940 6 910 60 c 26,9,-1
 294 1159 l 9,10,-1
 294 89 l 26,11,12
 294 9 294 9 218 9 c 24,13,14
 150 9 150 9 150 91 c 2,15,-1
 150 1426 l 26,16,17
 150 1515 150 1515 222 1515 c 0,18,19
 269 1515 269 1515 295 1469 c 10,20,-1
 914 357 l 25,0,-1
EndSplineSet
Validated: 1
EndChar

StartChar: P
Encoding: 80 80 13
Width: 1152
VWidth: 0
Flags: W
HStem: 607 148<298 766.057> 1366 144<298 762.19>
VStem: 150 148<9.66919 607 755 1366> 908 144<900.792 1224.13>
LayerCount: 2
Fore
SplineSet
298 1366 m 1,0,1
 298 755 l 1,2,-1
 630 755 l 2,3,4
 731 755 731 755 820 844 c 0,5,6
 908 932 908 932 908 1062 c 128,-1,7
 908 1192 908 1192 819.5 1279 c 128,-1,8
 731 1366 731 1366 588 1366 c 2,9,-1
 298 1366 l 1,0,1
298 88 m 18,10,11
 298 5 298 5 224 5 c 128,-1,12
 150 5 150 5 150 90 c 2,13,-1
 150 1431 l 2,14,15
 150 1510 150 1510 232 1510 c 2,16,-1
 619 1510 l 18,17,18
 806 1510 806 1510 940 1360 c 0,19,20
 1052 1235 1052 1235 1052 1086 c 0,21,22
 1052 904 1052 904 974 800 c 0,23,24
 829 607 829 607 630 607 c 26,25,-1
 298 607 l 25,26,-1
 298 88 l 18,10,11
EndSplineSet
Validated: 1
EndChar

StartChar: Q
Encoding: 81 81 5
Width: 1222
VWidth: 2456
Flags: W
HStem: 0 149<449.958 767.722> 1366 144<447.123 766.044>
VStem: 150 149<302.035 1216.49> 910 149<401.785 1224.1>
LayerCount: 2
Fore
SplineSet
910 401 m 1,0,1
 910 1071 l 2,2,3
 910 1195 910 1195 815 1284 c 0,4,5
 727 1366 727 1366 603 1366 c 0,6,7
 498 1366 498 1366 416 1300 c 8,8,9
 299 1206 299 1206 299 1046 c 2,10,-1
 299 448 l 2,11,12
 299 331 299 331 397 234 c 0,13,14
 483 149 483 149 614 149 c 0,15,16
 749 149 749 149 846 264 c 1,17,18
 765 330 765 330 765 370 c 0,19,20
 765 450 765 450 837 450 c 0,21,22
 878 450 878 450 910 401 c 1,0,1
1028 292 m 1,23,-1
 1173 144 l 2,24,25
 1212 104 1212 104 1212 74 c 0,26,27
 1212 0 1212 0 1136 0 c 0,28,29
 1105 0 1105 0 1066 40 c 2,30,-1
 950 159 l 1,31,32
 921 114 921 114 845 66 c 0,33,34
 741 0 741 0 616 0 c 0,35,36
 411 0 411 0 281 141 c 0,37,38
 150 283 150 283 150 461 c 2,39,-1
 150 1062 l 2,40,41
 150 1206 150 1206 242 1332 c 24,42,43
 372 1510 372 1510 610 1510 c 0,44,45
 812 1510 812 1510 935 1372 c 0,46,47
 1059 1232 1059 1232 1059 1095 c 2,48,-1
 1059 467 l 2,49,50
 1059 355 1059 355 1028 292 c 1,23,-1
EndSplineSet
Validated: 1
EndChar

StartChar: R
Encoding: 82 82 11
Width: 1155
VWidth: 2457
Flags: W
HStem: 0 21G<185.5 257.5 960.5 1017> 604 147<297 633> 1361 143<297 760.933>
VStem: 150 147<5 604 751 1361> 913 142<5.3623 57 894.371 1208.67>
LayerCount: 2
Fore
SplineSet
297 751 m 9,0,1
 624 751 l 2,2,3
 728 751 728 751 832 850 c 0,4,5
 913 927 913 927 913 1067 c 0,6,7
 913 1173 913 1173 825 1264 c 0,8,9
 732 1361 732 1361 623 1361 c 2,10,-1
 297 1361 l 1,11,-1
 297 751 l 9,0,1
228 1504 m 2,12,-1
 623 1504 l 2,13,14
 806 1504 806 1504 956 1340 c 0,15,16
 1055 1232 1055 1232 1055 1093 c 0,17,18
 1055 959 1055 959 1005 841 c 0,19,20
 950 712 950 712 778 640 c 1,21,-1
 1039 127 l 2,22,23
 1054 96 1054 96 1054 76 c 0,24,25
 1054 0 1054 0 980 0 c 0,26,27
 941 0 941 0 913 57 c 2,28,-1
 633 604 l 9,29,-1
 294 604 l 1,30,-1
 294 79 l 2,31,32
 294 0 294 0 221 0 c 0,33,34
 150 0 150 0 150 80 c 2,35,-1
 150 1427 l 2,36,37
 150 1504 150 1504 228 1504 c 2,12,-1
EndSplineSet
Validated: 1
EndChar

StartChar: S
Encoding: 83 83 22
Width: 1105
VWidth: 0
Flags: W
HStem: 0 149<372.62 769.607> 1367 143<339.43 748.826>
VStem: 100 148<1001.44 1275.89> 857 148<233.652 512.583>
LayerCount: 2
Fore
SplineSet
100 1131 m 0,0,1
 100 1287 100 1287 208 1398.5 c 128,-1,2
 316 1510 316 1510 469 1510 c 0,3,4
 681 1510 681 1510 854 1445 c 0,5,6
 926 1418 926 1418 926 1362 c 0,7,8
 926 1293 926 1293 857 1293 c 0,9,10
 828 1293 828 1293 766 1317 c 0,11,12
 637 1367 637 1367 491 1367 c 0,13,14
 359 1367 359 1367 290 1273 c 0,15,16
 248 1216 248 1216 248 1123 c 0,17,18
 248 996 248 996 403 917 c 10,19,-1
 768 732 l 18,20,21
 1005 610 1005 610 1005 378 c 0,22,23
 1005 204 1005 204 881 97 c 0,24,25
 769 0 769 0 612 0 c 0,26,27
 374 0 374 0 156 143 c 24,28,29
 100 180 100 180 100 225 c 0,30,31
 100 294 100 294 174 294 c 0,32,33
 201 294 201 294 246 262 c 0,34,35
 404 149 404 149 625 149 c 24,36,37
 690 149 690 149 742 176 c 0,38,39
 857 236 857 236 857 383 c 0,40,41
 857 522 857 522 706 598 c 10,42,-1
 313 797 l 2,43,44
 100 905 100 905 100 1131 c 0,0,1
EndSplineSet
Validated: 1
EndChar

StartChar: T
Encoding: 84 84 23
Width: 1101
VWidth: 0
Flags: W
HStem: 0 21G<514.5 587.5> 1370 145<104.834 478 624 997.555>
VStem: 478 146<3.78027 1370>
LayerCount: 2
Fore
SplineSet
100 1446 m 0,0,1
 100 1515 100 1515 188 1515 c 2,2,-1
 929 1515 l 18,3,4
 1001 1515 1001 1515 1001 1443 c 0,5,6
 1001 1370 1001 1370 931 1370 c 2,7,-1
 624 1370 l 1,8,-1
 624 79 l 10,9,10
 624 0 624 0 551 0 c 280,11,12
 478 0 478 0 478 77 c 18,13,-1
 478 1370 l 1,14,-1
 186 1370 l 2,15,16
 100 1370 100 1370 100 1446 c 0,0,1
EndSplineSet
Validated: 1
EndChar

StartChar: U
Encoding: 85 85 6
Width: 1206
VWidth: 2456
Flags: W
HStem: 5 143<447.732 755.277> 1495 20G<185 258 945.5 1019.5>
VStem: 150 146<292.909 1510.72> 908 148<298.648 1510.72>
LayerCount: 2
Fore
SplineSet
150 1437 m 6,0,1
 150 1515 150 1515 220 1515 c 4,2,3
 296 1515 296 1515 296 1437 c 6,4,-1
 296 468 l 6,5,6
 296 307 296 307 404 222 c 4,7,8
 499 148 499 148 600 148 c 4,9,10
 725 148 725 148 826 248 c 4,11,12
 908 329 908 329 908 473 c 6,13,-1
 908 1437 l 6,14,15
 908 1515 908 1515 983 1515 c 4,16,17
 1056 1515 1056 1515 1056 1427 c 6,18,-1
 1056 479 l 22,19,20
 1056 266 1056 266 925 141 c 4,21,22
 783 5 783 5 598 5 c 4,23,24
 433 5 433 5 304 113 c 4,25,26
 150 242 150 242 150 445 c 6,27,-1
 150 1437 l 6,0,1
EndSplineSet
Validated: 1
EndChar

StartChar: V
Encoding: 86 86 20
Width: 1259
VWidth: 0
Flags: W
HStem: 0 21G<606 658.5> 1490 20G<1060 1122>
VStem: 100 148<1436 1500.27> 1013 146<1444 1503.83>
LayerCount: 2
Fore
SplineSet
628 300 m 29,0,-1
 1013 1444 l 14,1,2
 1035 1510 1035 1510 1085 1510 c 4,3,4
 1159 1510 1159 1510 1159 1440 c 4,5,6
 1159 1421 1159 1421 1150 1394 c 6,7,-1
 709 68 l 30,8,9
 687 0 687 0 630 0 c 28,10,11
 582 0 582 0 559 66 c 6,12,-1
 106 1408 l 22,13,14
 100 1426 100 1426 100 1441 c 4,15,16
 100 1506 100 1506 179 1506 c 4,17,18
 225 1506 225 1506 248 1436 c 22,19,-1
 628 300 l 29,0,-1
EndSplineSet
Validated: 1
EndChar

StartChar: W
Encoding: 87 87 16
Width: 1559
VWidth: 0
Flags: W
HStem: 0 21G<447.5 503.5 1058 1114.5> 1038 20G<755.5 808> 1490 20G<138.5 204>
LayerCount: 2
Fore
SplineSet
1317 1445 m 18,0,1
 1332 1506 1332 1506 1387 1506 c 0,2,3
 1459 1506 1459 1506 1459 1444 c 0,4,5
 1459 1419 1459 1419 1453 1392 c 2,6,-1
 1157 73 l 26,7,8
 1142 0 1142 0 1087 0 c 24,9,10
 1029 0 1029 0 1007 67 c 2,11,-1
 778 752 l 9,12,-1
 550 63 l 26,13,14
 529 0 529 0 478 0 c 24,15,16
 417 0 417 0 403 61 c 2,17,-1
 103 1405 l 18,18,19
 100 1420 100 1420 100 1442 c 0,20,21
 100 1510 100 1510 177 1510 c 0,22,23
 231 1510 231 1510 245 1445 c 2,24,-1
 488 350 l 1,25,-1
 704 991 l 26,26,27
 727 1058 727 1058 784 1058 c 24,28,29
 832 1058 832 1058 856 985 c 2,30,-1
 1070 346 l 9,31,-1
 1317 1445 l 18,0,1
EndSplineSet
Validated: 1
EndChar

StartChar: Y
Encoding: 89 89 27
Width: 1258
VWidth: 0
Flags: W
HStem: 0 21G<595.5 667> 1490 20G<139.5 196.5 1063.5 1120>
VStem: 559 143<4.16309 757>
LayerCount: 2
Fore
SplineSet
559 761 m 5,0,1
 116 1392 l 6,2,3
 100 1415 100 1415 100 1438 c 4,4,5
 100 1510 100 1510 179 1510 c 12,6,7
 214 1510 214 1510 243 1466 c 22,8,-1
 629 906 l 5,9,-1
 1019 1475 l 14,10,11
 1045 1510 1045 1510 1082 1510 c 4,12,13
 1158 1510 1158 1510 1158 1442 c 4,14,15
 1158 1417 1158 1417 1139 1388 c 6,16,-1
 702 757 l 5,17,-1
 702 85 l 14,18,19
 702 0 702 0 632 0 c 28,20,21
 559 0 559 0 559 87 c 22,22,-1
 559 761 l 5,0,1
EndSplineSet
Validated: 1
EndChar

StartChar: Z
Encoding: 90 90 26
Width: 1106
VWidth: 0
Flags: W
HStem: 0 142<293 1001.66> 1365 145<107.438 809>
LayerCount: 2
Fore
SplineSet
293 142 m 5,0,-1
 928 142 l 6,1,2
 1006 142 1006 142 1006 67 c 28,3,4
 1006 0 1006 0 927 0 c 30,5,-1
 176 0 l 6,6,7
 100 0 100 0 100 72 c 4,8,9
 100 99 100 99 123 140 c 22,10,-1
 809 1365 l 5,11,-1
 186 1365 l 14,12,13
 102 1365 102 1365 102 1444 c 28,14,15
 102 1510 102 1510 189 1510 c 30,16,-1
 909 1510 l 6,17,18
 1003 1510 1003 1510 1003 1444 c 4,19,20
 1003 1414 1003 1414 987 1385 c 6,21,-1
 293 142 l 5,0,-1
EndSplineSet
Validated: 1
EndChar

StartChar: bracketleft
Encoding: 91 91 172
Width: 544
VWidth: 0
Flags: W
HStem: -153 141<296 439.825> 1515 146<296 439.88>
VStem: 150 294<-147.849 -15.7354 1519.06 1656.5> 150 146<-12 1515>
LayerCount: 2
Fore
SplineSet
150 1584 m 2,0,1
 150 1661 150 1661 224 1661 c 2,2,3
 367 1661 l 2,4,5
 444 1661 444 1661 444 1589 c 24,6,7
 444 1515 444 1515 369 1515 c 2,8,-1
 296 1515 l 9,9,-1
 296 -12 l 25,10,-1
 368 -12 l 2,11,12
 444 -12 444 -12 444 -80 c 24,13,14
 444 -153 444 -153 363 -153 c 2,15,-1
 220 -153 l 2,16,17
 150 -153 150 -153 150 -80 c 26,18,19
 150 1584 l 2,0,1
EndSplineSet
Validated: 1
EndChar

StartChar: backslash
Encoding: 92 92 186
Width: 946
VWidth: 2456
Flags: W
HStem: 0 21G<746 807> 1490 20G<136 195>
VStem: 100 146<1447 1502.56> 697 149<6.67529 62>
LayerCount: 2
Fore
SplineSet
846 67 m 0,0,1
 846 0 846 0 768 0 c 0,2,3
 724 0 724 0 697 62 c 2,4,-1
 110 1391 l 18,5,6
 100 1416 100 1416 100 1442 c 0,7,8
 100 1510 100 1510 172 1510 c 0,9,10
 218 1510 218 1510 246 1447 c 2,11,-1
 828 130 l 26,12,13
 846 89 846 89 846 67 c 0,0,1
EndSplineSet
Validated: 1
EndChar

StartChar: bracketright
Encoding: 93 93 173
Width: 544
VWidth: 0
Flags: W
HStem: -153 141<104.175 248> 1515 146<104.12 248>
VStem: 100 294<-147.849 -15.7354 1519.06 1656.5> 248 146<-12 1515>
LayerCount: 2
Fore
SplineSet
394 1584 m 2,0,1
 394 -80 l 26,2,3
 394 -153 394 -153 324 -153 c 2,4,-1
 181 -153 l 2,5,6
 100 -153 100 -153 100 -80 c 24,7,8
 100 -12 100 -12 176 -12 c 2,9,-1
 248 -12 l 25,10,-1
 248 1515 l 17,11,-1
 175 1515 l 2,12,13
 100 1515 100 1515 100 1589 c 24,14,15
 100 1661 100 1661 177 1661 c 2,16,-1
 320 1661 l 2,17,18
 394 1661 394 1661 394 1584 c 2,0,1
EndSplineSet
Validated: 1
EndChar

StartChar: asciicircum
Encoding: 94 94 190
Width: 798
VWidth: 0
Flags: W
HStem: 1435 372
VStem: 100 598<1435 1531>
LayerCount: 2
Fore
SplineSet
557 1471 m 6,0,1
 402 1629 l 5,2,-1
 244 1476 l 6,3,4
 202 1435 202 1435 173 1435 c 20,5,6
 100 1435 100 1435 100 1500 c 4,7,8
 100 1531 100 1531 134 1566 c 14,9,-1
 332 1770 l 6,10,11
 368 1807 368 1807 402 1807 c 28,12,13
 430 1807 430 1807 467 1770 c 30,14,-1
 662 1574 l 6,15,16
 698 1538 698 1538 698 1502 c 4,17,18
 698 1435 698 1435 622 1435 c 4,19,20
 591 1435 591 1435 557 1471 c 6,0,1
EndSplineSet
Validated: 1
EndChar

StartChar: underscore
Encoding: 95 95 191
Width: 952
VWidth: 0
Flags: W
HStem: -144 144<104.065 847.5>
LayerCount: 2
Fore
SplineSet
172 0 m 22,0,1
 780 0 l 14,2,3
 852 0 852 0 852 -77 c 28,4,5
 852 -144 852 -144 777 -144 c 6,6,-1
 174 -144 l 14,7,8
 100 -144 100 -144 100 -68 c 28,9,10
 100 0 100 0 172 0 c 22,0,1
EndSplineSet
Validated: 1
EndChar

StartChar: grave
Encoding: 96 96 192
Width: 646
VWidth: 0
Flags: W
HStem: 1391 374
VStem: 100 446
LayerCount: 2
Fore
SplineSet
229 1727 m 6,0,1
 510 1516 l 30,2,3
 546 1490 546 1490 546 1453 c 4,4,5
 546 1378 546 1378 478 1378 c 4,6,7
 452 1378 452 1378 423 1398 c 6,8,9
 138 1613 l 6,10,11
 100 1641 100 1641 100 1673 c 4,12,13
 100 1752 100 1752 176 1752 c 4,14,15
 197 1752 197 1752 229 1727 c 6,0,1
EndSplineSet
Validated: 1
EndChar

StartChar: a
Encoding: 97 97 81
Width: 986
VWidth: 0
Flags: W
HStem: 0 151<295.814 706> 461 145<295.739 706> 915 146<183.12 661.891>
VStem: 100 148<196.351 412.709> 706 150<151 461 606 869.725>
AnchorPoint: "above" 531 1062 basechar 0
LayerCount: 2
Fore
SplineSet
414 461 m 2,0,1
 331 461 331 461 289.5 411.5 c 128,-1,2
 248 362 248 362 248 302 c 256,3,4
 248 236 248 236 295.5 193.5 c 128,-1,5
 343 151 343 151 400 151 c 2,6,-1
 706 151 l 1,7,-1
 706 461 l 1,8,-1
 414 461 l 2,0,1
254 915 m 18,9,10
 179 915 179 915 179 989 c 256,11,12
 179 1061 179 1061 254 1061 c 2,13,-1
 565 1061 l 2,14,15
 694 1061 694 1061 775 964.5 c 152,-1,16
 856 868 856 868 856 766 c 2,17,-1
 856 94 l 10,18,19
 856 51 856 51 833 25.5 c 144,-1,20
 810 0 810 0 770 0 c 2,21,-1
 390 0 l 26,22,23
 277 0 277 0 188.5 92 c 144,-1,24
 100 184 100 184 100 300 c 256,25,26
 100 429 100 429 184.5 517.5 c 128,-1,27
 269 606 269 606 394 606 c 2,28,-1
 706 606 l 1,29,-1
 706 790 l 2,30,31
 706 828 706 828 661 871.5 c 128,-1,32
 616 915 616 915 561 915 c 10,33,-1
 254 915 l 18,9,10
EndSplineSet
Validated: 1
EndChar

StartChar: b
Encoding: 98 98 82
Width: 1030
VWidth: 0
Flags: W
HStem: 4 144<291 713.263> 915 143<293 709.89> 1495 20G<184.5 256>
VStem: 150 141<148 915 1058 1511.95> 757 143<190.5 868>
LayerCount: 2
Fore
SplineSet
585 148 m 6,0,1
 757 148 757 148 757 318 c 6,2,3
 757 747 l 6,4,5
 757 824 757 824 711.5 869.5 c 132,-1,6
 666 915 666 915 593 915 c 6,7,-1
 291 915 l 5,8,-1
 291 148 l 5,9,-1
 585 148 l 6,0,1
240 4 m 30,10,11
 150 4 150 4 150 72 c 30,12,-1
 150 1441 l 6,13,14
 150 1515 150 1515 219 1515 c 28,15,16
 293 1515 293 1515 293 1441 c 22,17,-1
 293 1058 l 5,18,-1
 623 1058 l 6,19,20
 750 1058 750 1058 843 944 c 28,21,22
 900 874 900 874 900 780 c 6,23,-1
 900 278 l 30,24,25
 900 161 900 161 813.5 82.5 c 156,-1,26
 727 4 727 4 599 4 c 6,27,-1
 240 4 l 30,10,11
EndSplineSet
Validated: 1
EndChar

StartChar: c
Encoding: 99 99 83
Width: 829
VWidth: 0
Flags: W
HStem: 4 147<320.666 723.938> 917 145<320.732 724.825>
VStem: 130 146<194.146 872.345>
LayerCount: 2
Fore
SplineSet
653 1062 m 2,0,1
 729 1062 729 1062 729 992 c 24,2,3
 729 917 729 917 653 917 c 2,4,5
 454 917 l 2,6,7
 276 917 276 917 276 749 c 2,8,9
 276 332 l 2,10,11
 276 151 276 151 444 151 c 26,12,-1
 648 151 l 2,13,14
 729 151 729 151 729 74 c 0,15,16
 729 4 729 4 652 4 c 2,17,18
 419 4 l 26,19,20
 299 4 299 4 212 92 c 24,21,22
 130 175 130 175 130 296 c 2,23,24
 130 753 l 26,25,26
 130 890 130 890 210 970 c 0,27,28
 302 1062 302 1062 440 1062 c 26,29,30
 653 1062 l 2,0,1
EndSplineSet
Validated: 1
EndChar

StartChar: d
Encoding: 100 100 84
Width: 1031
VWidth: 0
Flags: W
HStem: 0 151<318 735> 916 145<319.34 735> 1495 20G<771.5 844.5>
VStem: 130 142<198.591 867.75> 735 146<151 916 1061 1510.77>
LayerCount: 2
Fore
SplineSet
445 916 m 2,0,1
 272 916 272 916 272 724 c 2,2,3
 272 330 l 2,4,5
 272 151 272 151 456 151 c 2,6,7
 735 151 l 1,8,9
 735 916 l 1,10,11
 445 916 l 2,0,1
735 1438 m 10,12,13
 735 1515 735 1515 808 1515 c 152,-1,14
 881 1515 881 1515 881 1433 c 2,15,-1
 881 94 l 26,16,17
 881 0 881 0 786 0 c 2,18,-1
 439 0 l 18,19,20
 309 0 309 0 228 81 c 24,21,22
 130 179 130 179 130 297 c 2,23,-1
 130 774 l 26,24,25
 130 871 130 871 199 955 c 0,26,27
 286 1061 286 1061 444 1061 c 18,28,-1
 735 1061 l 1,29,-1
 735 1438 l 10,12,13
EndSplineSet
Validated: 1
EndChar

StartChar: e
Encoding: 101 101 85
Width: 1015
VWidth: 0
Flags: W
HStem: 0 146<319.585 880.166> 462 142<280 739> 914 148<380.018 649.712>
VStem: 130 148<187.561 462 604 814.113> 739 143<604 819.156>
LayerCount: 2
Fore
SplineSet
280 604 m 13,0,-1
 739 604 l 21,1,2
 739 760 739 760 689 828 c 4,3,4
 626 914 626 914 515 914 c 4,5,6
 409 914 409 914 330 826 c 4,7,8
 280 770 280 770 280 604 c 13,0,-1
130 698 m 6,9,10
 130 856 130 856 261 966 c 28,11,12
 375 1062 375 1062 512 1062 c 4,13,14
 675 1062 675 1062 789 937 c 4,15,16
 882 835 882 835 882 724 c 6,17,-1
 882 534 l 6,18,19
 882 462 882 462 815 462 c 22,20,-1
 278 462 l 29,21,-1
 278 330 l 6,22,23
 278 146 278 146 434 146 c 30,24,-1
 797 146 l 30,25,26
 885 146 885 146 885 72 c 28,27,28
 885 0 885 0 798 0 c 6,29,-1
 430 0 l 6,30,31
 309 0 309 0 217 97 c 28,32,33
 130 189 130 189 130 316 c 30,34,35
 130 698 l 6,9,10
EndSplineSet
Validated: 1
EndChar

StartChar: f
Encoding: 102 102 86
Width: 899
VWidth: 0
Flags: W
HStem: 918 144<153.493 300 446 744.386> 1370 148<504.598 743.496>
VStem: 300 145<8.75 918 1062 1314.76>
LayerCount: 2
Fore
SplineSet
672 1518 m 2,0,1
 748 1518 748 1518 748 1445 c 0,2,3
 748 1370 748 1370 666 1370 c 2,4,-1
 622 1370 l 2,5,6
 554 1370 554 1370 503 1329 c 0,7,8
 446 1283 446 1283 446 1207 c 2,9,-1
 446 1062 l 1,10,-1
 665 1062 l 10,11,12
 749 1062 749 1062 749 988 c 24,13,14
 749 918 749 918 664 918 c 18,15,-1
 445 918 l 1,16,-1
 445 80 l 10,17,18
 445 4 445 4 368 4 c 24,19,20
 300 4 300 4 300 87 c 2,21,-1
 300 918 l 1,22,-1
 219 918 l 2,23,24
 150 918 150 918 150 991 c 0,25,26
 150 1062 150 1062 223 1062 c 18,27,-1
 300 1062 l 1,28,-1
 300 1214 l 2,29,30
 300 1339 300 1339 383 1419 c 0,31,32
 486 1518 486 1518 599 1518 c 26,33,-1
 672 1518 l 2,0,1
EndSplineSet
Validated: 1
EndChar

StartChar: g
Encoding: 103 103 87
Width: 1029
VWidth: 0
Flags: W
HStem: -456 145<207.504 692.555> 0 145<317.291 731> 911 146<325.598 734>
VStem: 130 142<190.479 859.761> 734 145<-268.179 0 145 911>
LayerCount: 2
Fore
SplineSet
445 911 m 6,0,1
 375 911 375 911 324 867 c 4,2,3
 272 822 272 822 272 743 c 6,4,-1
 272 326 l 22,5,6
 272 236 272 236 316 189 c 4,7,8
 357 145 357 145 438 145 c 6,9,-1
 734 145 l 5,10,-1
 734 911 l 5,11,-1
 445 911 l 6,0,1
433 1057 m 6,12,13
 804 1057 l 30,14,15
 879 1057 879 1057 879 975 c 6,16,17
 879 -181 l 30,18,19
 879 -295 879 -295 794 -376 c 28,20,21
 710 -456 710 -456 594 -456 c 6,22,23
 281 -456 l 30,24,25
 203 -456 203 -456 203 -385 c 28,26,27
 203 -311 203 -311 285 -311 c 6,28,29
 537 -311 l 6,30,31
 731 -311 731 -311 731 -169 c 6,32,-1
 731 0 l 21,33,34
 407 0 l 30,35,36
 285 0 285 0 207 91 c 28,37,38
 130 181 130 181 130 306 c 6,39,40
 130 764 l 30,41,42
 130 887 130 887 214 969 c 28,43,44
 304 1057 304 1057 433 1057 c 6,12,13
EndSplineSet
Validated: 1
EndChar

StartChar: h
Encoding: 104 104 88
Width: 1031
VWidth: 0
Flags: W
HStem: 916 144<296 712.948> 1495 20G<187.5 260.5>
VStem: 150 146<10.7241 916 1060 1510.11> 758 143<11 872.006>
LayerCount: 2
Fore
SplineSet
150 1426 m 6,0,1
 150 1515 150 1515 225 1515 c 4,2,3
 296 1515 296 1515 296 1430 c 6,4,-1
 296 1060 l 13,5,-1
 606 1060 l 30,6,7
 725 1060 725 1060 823 967 c 4,8,9
 901 893 901 893 901 761 c 6,10,-1
 901 84 l 30,11,12
 901 6 901 6 835 6 c 28,13,14
 758 6 758 6 758 86 c 6,15,-1
 758 744 l 6,16,17
 758 916 758 916 582 916 c 6,18,-1
 296 916 l 29,19,-1
 296 87 l 30,20,21
 296 6 296 6 220 6 c 28,22,23
 150 6 150 6 150 92 c 30,24,-1
 150 1426 l 6,0,1
EndSplineSet
Validated: 1
EndChar

StartChar: i
Encoding: 105 105 89
Width: 447
VWidth: 0
Flags: W
HStem: 1041 20G<187 260.5> 1297 218<156.302 291.25>
VStem: 150 147<9.55933 1056.5 1301.88 1510.62>
LayerCount: 2
Fore
SplineSet
297 980 m 6,0,-1
 297 88 l 6,1,2
 297 5 297 5 225 5 c 4,3,4
 150 5 150 5 150 86 c 6,5,-1
 150 979 l 22,6,7
 150 1061 150 1061 224 1061 c 4,8,9
 297 1061 297 1061 297 980 c 6,0,-1
153 1445 m 2,10,11
 153 1515 153 1515 222 1515 c 0,12,13
 296 1515 296 1515 296 1440 c 2,14,-1
 296 1375 l 2,15,16
 296 1297 296 1297 220 1297 c 0,17,18
 153 1297 153 1297 153 1370 c 10,19,-1
 153 1445 l 2,10,11
EndSplineSet
Validated: 1
EndChar

StartChar: j
Encoding: 106 106 90
Width: 446
VWidth: 0
Flags: W
HStem: -456 145<-145.825 98.7568> 1034 20G<187.25 259.75> 1295 220<156.574 290.779>
VStem: 151 145<-258.341 1050.41 1298.68 1509.62>
LayerCount: 2
Fore
SplineSet
151 979 m 26,0,1
 151 1054 151 1054 223.5 1054 c 152,-1,2
 296 1054 296 1054 296 980 c 2,3,-1
 296 -171 l 26,4,5
 296 -280 296 -280 214 -363 c 24,6,7
 122 -456 122 -456 13 -456 c 2,8,-1
 -74 -456 l 26,9,10
 -150 -456 -150 -456 -150 -382 c 24,11,12
 -150 -311 -150 -311 -79 -311 c 2,13,-1
 8 -311 l 26,14,15
 58 -311 58 -311 108 -259 c 24,16,17
 151 -214 151 -214 151 -160 c 26,18,-1
 151 979 l 26,0,1
151 1434 m 2,19,20
 151 1515 151 1515 230 1515 c 0,21,22
 296 1515 296 1515 296 1429 c 2,23,-1
 296 1367 l 2,24,25
 296 1295 296 1295 223.5 1295 c 128,-1,26
 151 1295 151 1295 151 1362 c 10,27,-1
 151 1434 l 2,19,20
EndSplineSet
Validated: 1
EndChar

StartChar: k
Encoding: 107 107 79
Width: 1007
VWidth: 0
Flags: W
HStem: 0 21G<808 866> 1034 20G<821 871.5> 1490 20G<185.5 257.5>
VStem: 150 144<7.1748 488 672 1506.12>
LayerCount: 2
Fore
SplineSet
150 1429 m 2,0,1
 150 1510 150 1510 221 1510 c 24,2,3
 294 1510 294 1510 294 1429 c 18,4,-1
 294 672 l 1,5,-1
 774 1034 l 2,6,7
 806 1054 806 1054 836 1054 c 0,8,9
 907 1054 907 1054 907 984 c 0,10,11
 907 950 907 950 873 924 c 18,12,-1
 583 705 l 1,13,-1
 893 112 l 2,14,15
 905 90 905 90 905 71 c 0,16,17
 905 0 905 0 827 0 c 0,18,19
 789 0 789 0 768 40 c 18,20,-1
 466 618 l 1,21,-1
 299 488 l 1,22,-1
 299 79 l 10,23,24
 299 3 299 3 225 3 c 24,25,26
 150 3 150 3 150 78 c 26,27,-1
 150 1429 l 2,0,1
EndSplineSet
Validated: 1
EndChar

StartChar: l
Encoding: 108 108 91
Width: 548
VWidth: 0
Flags: W
HStem: 0 148<307.564 443.441> 1491 20G<190 263.5>
VStem: 150 147<154.391 1505.88>
LayerCount: 2
Fore
SplineSet
150 1432 m 6,0,1
 150 1511 150 1511 230 1511 c 4,2,3
 297 1511 297 1511 297 1429 c 6,4,5
 297 259 l 6,6,7
 297 148 297 148 365 148 c 4,8,9
 448 148 448 148 448 73 c 20,10,11
 448 0 448 0 370 0 c 28,12,13
 279 0 279 0 211 71 c 28,14,15
 150 135 150 135 150 235 c 30,16,17
 150 1432 l 6,0,1
EndSplineSet
Validated: 1
EndChar

StartChar: m
Encoding: 109 109 78
Width: 1315
VWidth: 0
Flags: W
HStem: 917 148<274 581 732 991.098>
VStem: 130 144<9.63672 917> 581 151<12.4375 917> 1038 147<9.6875 868.743>
LayerCount: 2
Fore
SplineSet
130 991 m 2,0,1
 130 1026 130 1026 156 1050 c 24,2,3
 172 1065 172 1065 213 1065 c 2,4,5
 869 1065 l 26,6,7
 999 1065 999 1065 1084 987 c 24,8,9
 1185 895 1185 895 1185 776 c 2,10,11
 1185 92 l 26,12,13
 1185 4 1185 4 1115 4 c 24,14,15
 1038 4 1038 4 1038 95 c 2,16,17
 1038 761 l 26,18,19
 1038 830 1038 830 996 870 c 24,20,21
 947 917 947 917 874 917 c 18,22,-1
 732 917 l 1,23,-1
 732 94 l 10,24,25
 732 7 732 7 661 7 c 24,26,27
 581 7 581 7 581 87 c 18,28,-1
 581 917 l 1,29,-1
 274 917 l 1,30,-1
 274 82 l 10,31,32
 274 6 274 6 202 6 c 152,-1,33
 130 6 130 6 130 77 c 26,34,-1
 130 991 l 2,0,1
EndSplineSet
Validated: 1
EndChar

StartChar: n
Encoding: 110 110 92
Width: 1011
VWidth: 0
Flags: W
HStem: 914 149<271 694.529>
VStem: 130 141<11.9717 914> 735 146<12.3833 868.897>
LayerCount: 2
Fore
SplineSet
130 988 m 6,0,1
 130 1063 130 1063 203 1063 c 6,2,3
 588 1063 l 30,4,5
 709 1063 709 1063 807 966 c 28,6,7
 881 893 881 893 881 774 c 6,8,9
 881 103 l 30,10,11
 881 7 881 7 811 7 c 28,12,13
 735 7 735 7 735 105 c 6,14,15
 735 762 l 30,16,17
 735 835 735 835 696 870 c 4,18,19
 649 914 649 914 593 914 c 6,20,21
 271 914 l 29,22,-1
 271 92 l 30,23,24
 271 8 271 8 201 8 c 28,25,26
 130 8 130 8 130 91 c 30,27,28
 130 988 l 6,0,1
EndSplineSet
Validated: 1
EndChar

StartChar: o
Encoding: 111 111 80
Width: 1009
VWidth: 0
Flags: W
HStem: 8 142<376.774 639.004> 919 144<372.518 636.298>
VStem: 130 143<247.938 824.457> 738 141<247.732 817.52>
LayerCount: 2
Fore
SplineSet
353 862 m 4,0,1
 273 803 273 803 273 679 c 6,2,3
 273 372 l 6,4,5
 273 259 273 259 383 190 c 4,6,7
 447 150 447 150 511 150 c 132,-1,8
 575 150 575 150 640 194 c 4,9,10
 738 260 738 260 738 403 c 6,11,-1
 738 658 l 6,12,13
 738 785 738 785 663 853 c 4,14,15
 591 919 591 919 511 919 c 132,-1,16
 431 919 431 919 353 862 c 4,0,1
493 1063 m 4,17,18
 661 1063 661 1063 767 958 c 4,19,20
 879 847 879 847 879 722 c 6,21,-1
 879 374 l 6,22,23
 879 206 879 206 758 100 c 4,24,25
 653 8 653 8 504 8 c 28,26,27
 345 8 345 8 251 104 c 28,28,29
 130 227 130 227 130 379 c 6,30,-1
 130 706 l 6,31,32
 130 867 130 867 269 980 c 4,33,34
 371 1063 371 1063 493 1063 c 4,17,18
EndSplineSet
Validated: 1
EndChar

StartChar: p
Encoding: 112 112 93
Width: 1039
VWidth: 0
Flags: W
HStem: -456 21G<184.5 258> 0 144<297 716.534> 908 146<297 714.938>
VStem: 150 147<-450.062 0 144 908> 760 149<206.255 859.587>
LayerCount: 2
Fore
SplineSet
618 144 m 6,0,1
 684 144 684 144 730 205 c 4,2,3
 760 245 760 245 760 306 c 6,4,-1
 760 744 l 6,5,6
 760 816 760 816 718 861 c 4,7,8
 674 908 674 908 607 908 c 6,9,-1
 297 908 l 5,10,-1
 297 144 l 5,11,-1
 618 144 l 6,0,1
150 969 m 6,12,13
 150 1054 150 1054 235 1054 c 6,14,15
 622 1054 l 30,16,17
 737 1054 737 1054 829 955 c 28,18,19
 909 869 909 869 909 749 c 6,20,21
 909 327 l 30,22,23
 909 185 909 185 838 103 c 28,24,25
 749 0 749 0 625 0 c 22,26,-1
 297 0 l 5,27,-1
 297 -365 l 14,28,29
 297 -456 297 -456 219 -456 c 28,30,31
 150 -456 150 -456 150 -361 c 30,32,33
 150 969 l 6,12,13
EndSplineSet
Validated: 1
EndChar

StartChar: q
Encoding: 113 113 94
Width: 1039
VWidth: 0
Flags: W
HStem: -4 144<322.466 742> 904 144<324.062 742>
VStem: 130 149<202.255 855.587> 742 147<-454.062 -4 140 904>
LayerCount: 2
Fore
SplineSet
421 140 m 2,0,1
 742 140 l 1,2,-1
 742 904 l 1,3,-1
 432 904 l 2,4,5
 365 904 365 904 321 857 c 0,6,7
 279 812 279 812 279 740 c 2,8,-1
 279 302 l 2,9,10
 279 241 279 241 309 201 c 0,11,12
 355 140 355 140 421 140 c 2,0,1
889 965 m 2,13,-1
 889 -365 l 26,14,15
 889 -460 889 -460 820 -460 c 24,16,17
 742 -460 742 -460 742 -369 c 18,18,-1
 742 -4 l 1,19,-1
 414 -4 l 10,20,21
 290 -4 290 -4 201 99 c 24,22,23
 130 181 130 181 130 323 c 26,24,-1
 130 745 l 2,25,26
 130 867 130 867 210 951 c 24,27,28
 302 1048 302 1048 417 1048 c 26,29,-1
 804 1048 l 2,30,31
 889 1048 889 1048 889 965 c 2,13,-1
EndSplineSet
Validated: 1
EndChar

StartChar: r
Encoding: 114 114 95
Width: 834
VWidth: 0
Flags: W
HStem: 914 147<278 588>
VStem: 130 148<7.9375 914> 588 146<767.188 914>
LayerCount: 2
Fore
SplineSet
130 979 m 2,0,1
 130 1061 130 1061 215 1061 c 2,2,3
 650 1061 l 26,4,5
 734 1061 734 1061 734 992 c 2,6,7
 734 845 l 26,8,9
 734 762 734 762 668 762 c 0,10,11
 588 762 588 762 588 840 c 2,12,13
 588 914 l 9,14,-1
 278 914 l 25,15,-1
 278 82 l 26,16,17
 278 3 278 3 201 3 c 24,18,19
 130 3 130 3 130 85 c 26,20,21
 130 979 l 2,0,1
EndSplineSet
Validated: 1
EndChar

StartChar: s
Encoding: 115 115 96
Width: 954
VWidth: 0
Flags: W
HStem: 4 146<285.049 667.403> 917 146<270.092 608.898>
VStem: 100 146<706.338 892.825> 707 147<177.344 355.692>
LayerCount: 2
Fore
SplineSet
728 986 m 16,0,1
 776 960 776 960 776 921 c 0,2,3
 776 843 776 843 707 843 c 8,4,5
 689 843 689 843 650 858 c 0,6,7
 498 917 498 917 387 917 c 0,8,9
 246 917 246 917 246 794 c 0,10,11
 246 723 246 723 321 688 c 26,12,-1
 690 515 l 2,13,14
 854 440 854 440 854 273 c 0,15,16
 854 140 854 140 735 49 c 0,17,18
 676 4 676 4 585 4 c 0,19,20
 400 4 400 4 165 80 c 0,21,22
 100 101 100 101 100 150 c 0,23,24
 100 224 100 224 166 224 c 0,25,26
 205 224 205 224 246 208 c 0,27,28
 396 150 396 150 564 150 c 0,29,30
 623 150 623 150 654 170 c 0,31,32
 707 204 707 204 707 274 c 0,33,34
 707 342 707 342 614 386 c 26,35,-1
 260 555 l 2,36,37
 100 631 100 631 100 806 c 0,38,39
 100 907 100 907 171 982 c 0,40,41
 248 1063 248 1063 367 1063 c 0,42,43
 584 1063 584 1063 728 986 c 16,0,1
EndSplineSet
Validated: 1
EndChar

StartChar: t
Encoding: 116 116 97
Width: 711
VWidth: 0
Flags: W
HStem: 0 21G<246 318> 912 142<63.541 210 354 656> 1491 20G<247.5 319.5>
VStem: 210 144<4.01953 912 1054 1506.61>
LayerCount: 2
Fore
SplineSet
210 1435 m 10,0,1
 210 1511 210 1511 285 1511 c 0,2,3
 354 1511 354 1511 354 1431 c 18,4,5
 354 1054 l 1,6,7
 583 1054 l 2,8,9
 661 1054 661 1054 661 976 c 0,10,11
 661 912 661 912 581 912 c 18,12,-1
 354 912 l 1,13,-1
 354 77 l 10,14,15
 354 0 354 0 282 0 c 152,-1,16
 210 0 210 0 210 84 c 2,17,-1
 210 912 l 1,18,-1
 134 912 l 2,19,20
 60 912 60 912 60 982 c 0,21,22
 60 1054 60 1054 133 1054 c 18,23,-1
 210 1054 l 1,24,-1
 210 1435 l 10,0,1
EndSplineSet
Validated: 1
EndChar

StartChar: u
Encoding: 117 117 98
Width: 1012
VWidth: 0
Flags: W
HStem: 0 147<318.472 737> 1038 20G<166 237.5 774.5 847>
VStem: 130 143<194.35 1053.74> 737 145<147 1049.55>
LayerCount: 2
Fore
SplineSet
130 971 m 2,0,1
 130 1058 130 1058 202 1058 c 24,2,3
 273 1058 273 1058 273 969 c 2,4,5
 273 305 l 2,6,7
 273 236 273 236 317 193 c 0,8,9
 364 147 364 147 424 147 c 2,10,-1
 737 147 l 1,11,-1
 737 975 l 10,12,13
 737 1054 737 1054 812 1054 c 24,14,15
 882 1054 882 1054 882 973 c 2,16,-1
 882 82 l 26,17,18
 882 0 882 0 807 0 c 2,19,-1
 414 0 l 26,20,21
 294 0 294 0 206 94 c 24,22,23
 130 175 130 175 130 302 c 26,24,25
 130 971 l 2,0,1
EndSplineSet
Validated: 1
EndChar

StartChar: v
Encoding: 118 118 99
Width: 954
VWidth: 0
Flags: W
HStem: 0 21G<451.5 503.5> 1034 20G<143.5 207 754.5 818.5>
VStem: 709 145<1001 1049.33>
LayerCount: 2
Fore
SplineSet
709 1001 m 2,0,1
 726 1054 726 1054 783 1054 c 0,2,3
 854 1054 854 1054 854 992 c 0,4,5
 854 973 854 973 847 952 c 2,6,7
 551 68 l 26,8,9
 529 0 529 0 478 0 c 24,10,11
 425 0 425 0 404 60 c 2,12,13
 109 944 l 18,14,15
 100 971 100 971 100 987 c 0,16,17
 100 1054 100 1054 187 1054 c 0,18,19
 227 1054 227 1054 248 989 c 2,20,21
 477 306 l 1,22,23
 709 1001 l 2,0,1
EndSplineSet
Validated: 1
EndChar

StartChar: w
Encoding: 119 119 100
Width: 1253
VWidth: 0
Flags: W
HStem: 0 21G<373 427.5 831 887.5> 1038 20G<140 204 1057.5 1118.5>
LayerCount: 2
Fore
SplineSet
1012 986 m 26,0,1
 1031 1058 1031 1058 1084 1058 c 0,2,3
 1153 1058 1153 1058 1153 992 c 0,4,5
 1153 974 1153 974 1148 954 c 2,6,7
 933 71 l 26,8,9
 916 0 916 0 859 0 c 24,10,11
 803 0 803 0 778 66 c 2,12,13
 626 475 l 9,14,-1
 475 65 l 26,15,16
 452 0 452 0 403 0 c 24,17,18
 343 0 343 0 328 62 c 2,19,20
 109 925 l 18,21,22
 100 960 100 960 100 985 c 0,23,24
 100 1054 100 1054 180 1054 c 0,25,26
 228 1054 228 1054 242 998 c 2,27,28
 414 324 l 1,29,30
 558 697 l 26,31,32
 579 752 579 752 628 752 c 0,33,34
 681 752 681 752 704 691 c 2,35,36
 839 328 l 9,37,-1
 1012 986 l 26,0,1
EndSplineSet
Validated: 1
EndChar

StartChar: x
Encoding: 120 120 101
Width: 951
VWidth: 0
Flags: MW
LayerCount: 2
Fore
SplineSet
393 527 m 1,0,1
 116 940 l 10,2,3
 100 964 100 964 100 985 c 0,4,5
 100 1057 100 1057 178 1057 c 0,6,7
 212 1057 212 1057 236 1021 c 2,8,-1
 477 659 l 1,9,-1
 719 1021 l 10,10,11
 742 1054 742 1054 781 1054 c 0,12,13
 848 1054 848 1054 848 991 c 0,14,15
 848 955 848 955 833 931 c 2,16,17
 562 528 l 1,18,19
 826 134 l 2,20,21
 851 95 851 95 851 72 c 0,22,23
 851 0 851 0 782 0 c 0,24,25
 740 0 740 0 717 35 c 2,26,27
 479 399 l 1,28,29
 239 39 l 10,30,31
 213 0 213 0 176 0 c 0,32,33
 100 0 100 0 100 68 c 0,34,35
 100 95 100 95 118 123 c 2,36,37
 393 527 l 1,0,1
EndSplineSet
Validated: 1
EndChar

StartChar: y
Encoding: 121 121 102
Width: 951
VWidth: 0
Flags: W
HStem: -456 145<104.614 269> 1034 20G<136.5 199 753 814>
LayerCount: 2
Fore
SplineSet
835 915 m 10,0,-1
 399 -387 l 2,1,2
 376 -456 376 -456 310 -456 c 2,3,4
 181 -456 l 2,5,6
 100 -456 100 -456 100 -385 c 0,7,8
 100 -311 100 -311 184 -311 c 2,9,-1
 269 -311 l 2,10,11
 392 61 l 1,12,-1
 113 920 l 2,13,14
 100 957 100 957 100 985 c 0,15,16
 100 1054 100 1054 173 1054 c 8,17,18
 225 1054 225 1054 247 985 c 18,19,-1
 471 296 l 1,20,-1
 708 993 l 10,21,22
 729 1054 729 1054 777 1054 c 0,23,24
 851 1054 851 1054 851 985 c 0,25,26
 851 963 851 963 835 915 c 10,0,-1
EndSplineSet
Validated: 1
EndChar

StartChar: z
Encoding: 122 122 103
Width: 950
VWidth: 0
Flags: W
HStem: 0 154<311 839.83> 916 148<105.75 640>
LayerCount: 2
Fore
SplineSet
311 154 m 1,0,-1
 768 154 l 2,1,2
 846 154 846 154 846 69 c 24,3,4
 846 0 846 0 768 0 c 26,5,-1
 191 0 l 2,6,7
 100 0 100 0 100 80 c 0,8,9
 100 108 100 108 122 140 c 18,10,-1
 640 916 l 1,11,-1
 175 916 l 10,12,13
 101 916 101 916 101 987 c 24,14,15
 101 1064 101 1064 177 1064 c 26,16,-1
 748 1064 l 2,17,18
 850 1064 850 1064 850 990 c 0,19,20
 850 965 850 965 834 941 c 2,21,-1
 311 154 l 1,0,-1
EndSplineSet
Validated: 1
EndChar

StartChar: braceleft
Encoding: 123 123 174
Width: 644
VWidth: 0
Flags: W
HStem: -138 142<401.768 538.812> 695 145<104.312 240.593> 1529 146<403.112 537.061>
VStem: 247 147<14.4585 685.346 845.841 1517.96>
LayerCount: 2
Fore
SplineSet
463 1675 m 152,-1,1
 542 1675 542 1675 542 1606 c 0,2,3
 542 1538 542 1538 472 1529 c 0,4,5
 394 1518 394 1518 394 1445 c 26,6,-1
 394 914 l 2,7,8
 394 842 394 842 335 767 c 1,9,10
 390 716 390 716 390 626 c 2,11,12
 390 98 l 2,13,14
 390 14 390 14 471 4 c 0,15,16
 544 -5 544 -5 544 -71 c 0,17,18
 544 -138 544 -138 461 -138 c 24,19,20
 365 -138 365 -138 304 -68 c 24,21,22
 247 -3 247 -3 247 100 c 2,23,24
 247 619 l 2,25,26
 247 684 247 684 166 695 c 0,27,28
 100 704 100 704 100 768 c 24,29,30
 100 840 100 840 169 840 c 0,31,32
 247 840 247 840 247 912 c 26,33,-1
 247 1469 l 26,34,35
 247 1550 247 1550 317 1614 c 24,36,0
 384 1675 384 1675 463 1675 c 152,-1,1
EndSplineSet
Validated: 1
EndChar

StartChar: bar
Encoding: 124 124 194
Width: 452
VWidth: 2456
Flags: W
VStem: 150 152<-221.085 1740.25>
LayerCount: 2
Fore
SplineSet
220 -228 m 24,0,1
 150 -228 150 -228 150 -130 c 26,2,-1
 150 1654 l 2,3,4
 150 1746 150 1746 227 1746 c 24,5,6
 302 1746 302 1746 302 1653 c 26,7,-1
 302 -133 l 2,8,9
 302 -228 302 -228 220 -228 c 24,0,1
EndSplineSet
Validated: 1
EndChar

StartChar: braceright
Encoding: 125 125 175
Width: 644
VWidth: 0
Flags: W
HStem: -138 142<105.25 243.124> 695 145<402.486 539.75> 1529 146<106.939 241.516>
VStem: 250 148<14.4585 685.651 845.841 1520>
LayerCount: 2
Fore
SplineSet
181 1675 m 24,0,1
 261 1675 261 1675 328 1614 c 24,2,3
 398 1550 398 1550 398 1469 c 26,4,-1
 398 912 l 26,5,6
 398 840 398 840 476 840 c 0,7,8
 544 840 544 840 544 768 c 24,9,10
 544 704 544 704 478 695 c 0,11,12
 396 684 396 684 396 619 c 2,13,-1
 396 100 l 2,14,15
 396 -3 396 -3 340 -68 c 24,16,17
 280 -138 280 -138 184 -138 c 24,18,19
 100 -138 100 -138 100 -71 c 0,20,21
 100 -5 100 -5 173 4 c 0,22,23
 255 14 255 14 255 98 c 2,24,-1
 255 626 l 2,25,26
 255 716 255 716 309 767 c 1,27,28
 250 842 250 842 250 914 c 2,29,-1
 250 1445 l 26,30,31
 250 1519 250 1519 172 1529 c 0,32,33
 102 1538 102 1538 102 1606 c 0,34,35
 102 1675 102 1675 181 1675 c 24,0,1
EndSplineSet
Validated: 1
EndChar

StartChar: asciitilde
Encoding: 126 126 193
Width: 954
VWidth: 0
Flags: W
HStem: 649 144<541.127 712.178> 798 144<236.873 416.021>
LayerCount: 2
Fore
SplineSet
702 826 m 4,0,1
 736 865 736 865 785 865 c 4,2,3
 854 865 854 865 854 790 c 4,4,5
 854 765 854 765 817 730 c 4,6,7
 732 649 732 649 625 649 c 4,8,9
 533 649 533 649 468 710 c 4,10,11
 374 798 374 798 322 798 c 4,12,13
 291 798 291 798 246 761 c 132,-1,14
 201 724 201 724 171 724 c 4,15,16
 100 724 100 724 100 806 c 4,17,18
 100 828 100 828 134 858 c 4,19,20
 228 942 228 942 324 942 c 4,21,22
 423 942 423 942 519 856 c 4,23,24
 589 793 589 793 625 793 c 4,25,26
 673 793 673 793 702 826 c 4,0,1
EndSplineSet
Validated: 1
EndChar

StartChar: exclamdown
Encoding: 161 161 228
Width: 450
VWidth: 2456
Flags: W
LayerCount: 2
Fore
SplineSet
150 1408.5 m 128,-1,1
 150 1519 150 1519 225 1519 c 128,-1,2
 300 1519 300 1519 300 1413 c 0,3,4
 300 1298 300 1298 221 1298 c 0,5,0
 150 1298 150 1298 150 1408.5 c 128,-1,1
225 1063 m 128,-1,7
 300 1063 300 1063 300 968 c 2,8,-1
 300 100 l 26,9,10
 300 7 300 7 225 7 c 152,-1,11
 150 7 150 7 150 99 c 2,12,-1
 150 968 l 26,13,6
 150 1063 150 1063 225 1063 c 128,-1,7
EndSplineSet
Validated: 1
EndChar

StartChar: cent
Encoding: 162 162 254
Width: 980
VWidth: 0
Flags: W
HStem: 0 148<320.666 515 662 874.562> 914 145<318.604 515 662 875.496>
VStem: 130 146<191.556 869.25> 515 147<-220.441 0 148 914 1059 1278.5>
LayerCount: 2
Fore
SplineSet
798 1059 m 2,0,1
 880 1059 880 1059 880 989 c 0,2,3
 880 914 880 914 798 914 c 2,4,-1
 662 914 l 1,5,-1
 662 148 l 1,6,-1
 793 148 l 2,7,8
 880 148 880 148 880 71 c 0,9,10
 880 0 880 0 797 0 c 2,11,-1
 662 0 l 1,12,-1
 662 -142 l 2,13,14
 662 -225 662 -225 590 -225 c 0,15,16
 515 -225 515 -225 515 -144 c 2,17,-1
 515 0 l 1,18,-1
 419 0 l 2,19,20
 299 0 299 0 212 92 c 0,21,22
 130 179 130 179 130 303 c 2,23,-1
 130 745 l 2,24,25
 130 884 130 884 210 964 c 0,26,27
 305 1059 305 1059 440 1059 c 2,28,-1
 515 1059 l 1,29,-1
 515 1201 l 2,30,31
 515 1283 515 1283 589 1283 c 0,32,33
 662 1283 662 1283 662 1202 c 2,34,-1
 662 1059 l 1,35,-1
 798 1059 l 2,0,1
515 148 m 1,36,-1
 515 914 l 1,37,-1
 454 914 l 2,38,39
 276 914 276 914 276 746 c 2,40,-1
 276 329 l 2,41,42
 276 148 276 148 444 148 c 2,43,-1
 515 148 l 1,36,-1
EndSplineSet
Validated: 1
EndChar

StartChar: sterling
Encoding: 163 163 253
Width: 1157
VWidth: 0
Flags: W
HStem: 0 136<4.2588 185.688 328 863.862> 675 146<5.6692 232 375 674.122> 1361 144<467.306 744.143>
VStem: 232 143<194.355 675 821 1265.28> 836 148<1064.06 1262.34> 915 142<185.25 358.268>
LayerCount: 2
Fore
SplineSet
232 1104 m 18,0,1
 232 1301 232 1301 360 1414 c 0,2,3
 463 1505 463 1505 617 1505 c 0,4,5
 772 1505 772 1505 885 1384 c 0,6,7
 984 1278 984 1278 984 1140 c 0,8,9
 984 1059 984 1059 905 1059 c 24,10,11
 845 1059 845 1059 836 1148 c 0,12,13
 828 1223 828 1223 772 1290 c 0,14,15
 713 1361 713 1361 602 1361 c 0,16,17
 503 1361 503 1361 436 1288 c 0,18,19
 372 1218 372 1218 372 1074 c 10,20,-1
 372 821 l 25,21,-1
 573 821 l 26,22,23
 680 821 680 821 680 750 c 24,24,25
 680 675 680 675 573 675 c 26,26,-1
 375 675 l 9,27,-1
 375 318 l 18,28,29
 375 167 375 167 328 136 c 9,30,-1
 740 136 l 18,31,32
 829 136 829 136 865 177 c 0,33,34
 915 234 915 234 915 284 c 0,35,36
 915 362 915 362 987 362 c 0,37,38
 1057 362 1057 362 1057 286 c 0,39,40
 1057 181 1057 181 984 93 c 0,41,42
 908 0 908 0 769 0 c 10,43,-1
 72 0 l 26,44,45
 0 0 0 0 0 62 c 0,46,47
 0 140 0 140 89 140 c 0,48,49
 153 140 153 140 197 193 c 0,50,51
 232 236 232 236 232 325 c 2,52,-1
 232 675 l 25,53,-1
 86 675 l 26,54,55
 1 675 1 675 1 745 c 24,56,57
 1 821 1 821 85 821 c 26,58,-1
 232 821 l 9,59,-1
 232 1104 l 18,0,1
EndSplineSet
Validated: 1
EndChar

StartChar: section
Encoding: 167 167 402
Width: 1066
VWidth: 0
Flags: W
HStem: -89 160<370.458 763.364> 1449 167<296.024 714.131>
VStem: 104 160<723.647 938.542 1222.5 1416.66> 800 166<107.553 305.793 585.675 810.006>
LayerCount: 2
Fore
SplineSet
720 832 m 18,0,1
 494 932 l 2,2,3
 435 957 435 957 386 957 c 0,4,5
 264 957 264 957 264 842 c 0,6,7
 264 743 264 743 320 717 c 10,8,-1
 593 588 l 18,9,10
 646 564 646 564 681 564 c 0,11,12
 800 564 800 564 800 703 c 0,13,14
 800 797 800 797 720 832 c 18,0,1
904 1523 m 24,15,16
 958 1504 958 1504 958 1449 c 0,17,18
 958 1408 958 1408 936 1388 c 24,19,20
 913 1367 913 1367 887 1367 c 0,21,22
 868 1367 868 1367 636 1424 c 0,23,24
 535 1449 535 1449 413 1449 c 0,25,26
 266 1449 266 1449 266 1304 c 0,27,28
 266 1216 266 1216 464 1124 c 26,29,-1
 800 969 l 26,30,31
 966 893 966 893 966 700 c 0,32,33
 966 522 966 522 833 453 c 281,34,35
 966 358 966 358 966 225 c 0,36,37
 966 68 966 68 846 -28 c 0,38,39
 770 -89 770 -89 610 -89 c 0,40,41
 409 -89 409 -89 190 -10 c 24,42,43
 104 21 104 21 104 74 c 0,44,45
 104 157 104 157 181 157 c 24,46,47
 224 157 224 157 374 114 c 128,-1,48
 524 71 524 71 633 71 c 0,49,50
 800 71 800 71 800 227 c 0,51,52
 800 305 800 305 634 382 c 10,53,-1
 275 546 l 18,54,55
 104 624 104 624 104 829 c 0,56,57
 104 993 104 993 233 1065 c 9,58,59
 100 1182 100 1182 100 1306 c 0,60,61
 100 1397 100 1397 165 1494 c 0,62,63
 247 1616 247 1616 424 1616 c 0,64,65
 640 1616 640 1616 904 1523 c 24,15,16
EndSplineSet
Validated: 1
EndChar

StartChar: copyright
Encoding: 169 169 404
Width: 1368
VWidth: 2457
Flags: W
HStem: 376 126<484.492 876.846> 641 132<566.011 824.434> 1139 143<568.047 818.375> 1414 127<489.818 885.09>
VStem: 100 126<759.447 1148.63> 396 133<809.224 1105.84> 1142 126<764.617 1156.82>
LayerCount: 2
Fore
SplineSet
699 1282 m 2,0,-1
 749 1282 l 10,1,2
 823 1282 823 1282 823 1215 c 0,3,4
 823 1139 823 1139 743 1139 c 2,5,-1
 698 1139 l 2,6,7
 600 1139 600 1139 567 1107 c 0,8,9
 529 1070 529 1070 529 1030 c 2,10,-1
 529 907 l 2,11,12
 529 847 529 847 565 808 c 0,13,14
 597 773 597 773 675 773 c 2,15,-1
 755 773 l 10,16,17
 827 773 827 773 827 705 c 0,18,19
 827 641 827 641 754 641 c 2,20,-1
 669 641 l 2,21,22
 559 641 559 641 468 729 c 0,23,24
 396 799 396 799 396 913 c 2,25,-1
 396 1023 l 2,26,27
 396 1128 396 1128 492 1218 c 0,28,29
 560 1282 560 1282 699 1282 c 2,0,-1
470 414 m 4,30,31
 270 502 270 502 177 665 c 4,32,33
 100 799 100 799 100 956 c 4,34,35
 100 1117 100 1117 178 1247 c 4,36,37
 244 1357 244 1357 396 1462 c 4,38,39
 510 1541 510 1541 687 1541 c 4,40,41
 784 1541 784 1541 896 1503 c 28,42,43
 1082 1440 1082 1440 1191 1251 c 4,44,45
 1268 1117 1268 1117 1268 961 c 4,46,47
 1268 804 1268 804 1189 668 c 4,48,49
 1101 517 1101 517 973 454 c 4,50,51
 814 376 814 376 681 376 c 4,52,53
 556 376 556 376 470 414 c 4,30,31
503 537 m 4,54,55
 579 502 579 502 688 502 c 4,56,57
 802 502 802 502 912 564 c 4,58,59
 1016 623 1016 623 1080 732 c 4,60,61
 1142 837 1142 837 1142 960 c 132,-1,62
 1142 1083 1142 1083 1082 1187 c 4,63,64
 1004 1322 1004 1322 863 1380 c 28,65,66
 780 1414 780 1414 685 1414 c 4,67,68
 561 1414 561 1414 456 1352 c 4,69,70
 349 1289 349 1289 288 1182 c 4,71,72
 226 1073 226 1073 226 954 c 4,73,74
 226 832 226 832 294 715 c 4,75,76
 359 603 359 603 503 537 c 4,54,55
EndSplineSet
Validated: 2049
EndChar

StartChar: guillemotleft
Encoding: 171 171 241
Width: 1104
VWidth: 0
Flags: W
HStem: 1037 19G<462 513 917 968>
LayerCount: 2
Fore
SplineSet
982 281 m 2,0,1
 1004 254 1004 254 1004 225 c 0,2,3
 1004 153 1004 153 936 153 c 0,4,5
 899 153 899 153 874 185 c 2,6,-1
 573 553 l 26,7,8
 555 575 555 575 555 604 c 0,9,10
 555 634 555 634 580 665 c 2,11,-1
 872 1024 l 18,12,13
 899 1057 899 1057 935 1057 c 0,14,15
 1001 1057 1001 1057 1001 978 c 0,16,17
 1001 952 1001 952 970 914 c 2,18,-1
 721 607 l 1,19,-1
 982 281 l 2,0,1
527 280 m 2,20,21
 549 253 549 253 549 224 c 0,22,23
 549 152 549 152 481 152 c 0,24,25
 444 152 444 152 419 184 c 2,26,-1
 118 552 l 26,27,28
 100 574 100 574 100 603 c 0,29,30
 100 633 100 633 125 664 c 2,31,-1
 417 1023 l 18,32,33
 444 1056 444 1056 480 1056 c 0,34,35
 546 1056 546 1056 546 977 c 0,36,37
 546 951 546 951 515 913 c 2,38,-1
 266 606 l 1,39,-1
 527 280 l 2,20,21
EndSplineSet
Validated: 1
EndChar

StartChar: registered
Encoding: 174 174 405
Width: 1368
VWidth: 2457
Flags: W
HStem: 376 126<484.492 876.846> 879 104<608 701> 1189 106<608 794.088> 1414 127<489.818 885.09>
VStem: 100 126<759.447 1148.63> 499 108<619.431 879 983 1189> 822 99<1008.34 1165.03> 1142 126<764.629 1160.02>
LayerCount: 2
Fore
SplineSet
470 414 m 0,0,1
 270 502 270 502 177 665 c 0,2,3
 100 799 100 799 100 956 c 0,4,5
 100 1117 100 1117 178 1247 c 0,6,7
 244 1357 244 1357 396 1462 c 0,8,9
 510 1541 510 1541 687 1541 c 0,10,11
 784 1541 784 1541 896 1503 c 24,12,13
 1082 1440 1082 1440 1191 1251 c 0,14,15
 1268 1117 1268 1117 1268 961 c 0,16,17
 1268 804 1268 804 1189 668 c 0,18,19
 1101 517 1101 517 973 454 c 0,20,21
 814 376 814 376 681 376 c 0,22,23
 556 376 556 376 470 414 c 0,0,1
503 537 m 0,24,25
 579 502 579 502 688 502 c 0,26,27
 802 502 802 502 912 564 c 0,28,29
 1016 623 1016 623 1080 732 c 0,30,31
 1142 837 1142 837 1142 961 c 128,-1,32
 1142 1085 1142 1085 1082 1189 c 0,33,34
 1004 1324 1004 1324 863 1380 c 24,35,36
 777 1414 777 1414 685 1414 c 0,37,38
 561 1414 561 1414 456 1352 c 0,39,40
 349 1289 349 1289 288 1182 c 0,41,42
 226 1073 226 1073 226 954 c 0,43,44
 226 832 226 832 294 715 c 0,45,46
 359 603 359 603 503 537 c 0,24,25
608 983 m 9,47,-1
 712 983 l 2,48,49
 774 983 774 983 798 1017 c 128,-1,50
 822 1051 822 1051 822 1088 c 0,51,52
 822 1131 822 1131 795 1159 c 0,53,54
 766 1189 766 1189 712 1189 c 2,55,-1
 608 1189 l 1,56,-1
 608 983 l 9,47,-1
549 1295 m 2,57,-1
 727 1295 l 2,58,59
 809 1295 809 1295 877 1222 c 0,60,61
 921 1174 921 1174 921 1094 c 0,62,63
 921 1049 921 1049 899 997 c 0,64,65
 870 928 870 928 810 896 c 1,66,-1
 928 683 l 2,67,68
 931 677 931 677 931 653 c 0,69,70
 931 619 931 619 887 619 c 0,71,72
 841 619 841 619 827 644 c 2,73,-1
 701 879 l 9,74,-1
 607 879 l 1,75,-1
 607 667 l 2,76,77
 607 619 607 619 553 619 c 128,-1,78
 499 619 499 619 499 668 c 2,79,-1
 499 1246 l 2,80,81
 499 1295 499 1295 549 1295 c 2,57,-1
EndSplineSet
Validated: 2049
EndChar

StartChar: degree
Encoding: 176 176 76
Width: 800
VWidth: 0
Flags: W
HStem: 909 148<292.157 505.39> 1363 147<293.971 507.7>
VStem: 100 147<1102.71 1309.06> 554 146<1108.73 1312.35>
LayerCount: 2
Fore
SplineSet
516 1309 m 4,0,1
 475 1363 475 1363 395 1363 c 4,2,3
 330 1363 330 1363 281 1305 c 4,4,5
 247 1265 247 1265 247 1204 c 4,6,7
 247 1139 247 1139 294 1099 c 4,8,9
 343 1057 343 1057 398 1057 c 4,10,11
 454 1057 454 1057 515 1110 c 4,12,13
 554 1144 554 1144 554 1209 c 4,14,15
 554 1259 554 1259 516 1309 c 4,0,1
629 1406 m 4,16,17
 700 1327 700 1327 700 1196 c 4,18,19
 700 1079 700 1079 611 995 c 4,20,21
 520 909 520 909 397 909 c 4,22,23
 298 909 298 909 214 972 c 4,24,25
 100 1057 100 1057 100 1198 c 4,26,27
 100 1349 100 1349 203 1438 c 4,28,29
 286 1510 286 1510 391 1510 c 4,30,31
 535 1510 535 1510 629 1406 c 4,16,17
EndSplineSet
Validated: 1
EndChar

StartChar: plusminus
Encoding: 177 177 265
Width: 952
VWidth: 0
Flags: W
HStem: 241 144<104.23 847.5> 808 143<104.614 409 554 847.276>
VStem: 409 142<510.559 808 951 1248.61>
LayerCount: 2
Fore
SplineSet
177 385 m 18,0,1
 780 385 l 10,2,3
 852 385 852 385 852 308 c 24,4,5
 852 241 852 241 775 241 c 2,6,-1
 174 241 l 10,7,8
 100 241 100 241 100 316 c 24,9,10
 100 385 100 385 177 385 c 18,0,1
409 1173 m 10,11,12
 409 1253 409 1253 483 1253 c 24,13,14
 554 1253 554 1253 554 1167 c 18,15,-1
 554 950 l 1,16,-1
 768 950 l 10,17,18
 852 950 852 950 852 877 c 24,19,20
 852 808 852 808 766 808 c 2,21,-1
 551 808 l 1,22,-1
 551 589 l 10,23,24
 551 506 551 506 484 506 c 24,25,26
 409 506 409 506 409 587 c 18,27,-1
 409 808 l 1,28,-1
 184 808 l 10,29,30
 100 808 100 808 100 882 c 24,31,32
 100 951 100 951 186 951 c 18,33,-1
 409 951 l 1,34,-1
 409 1173 l 10,11,12
EndSplineSet
Validated: 1
EndChar

StartChar: uni00B2
Encoding: 178 178 379
Width: 658
VWidth: 0
Flags: W
HStem: 807 146<329 547.836> 1366 141<257.448 399.328>
VStem: 100 453<812.503 945.328 1236 1409.38> 403 148<1214.13 1362.11>
LayerCount: 2
Fore
SplineSet
403 1300 m 4,0,1
 403 1366 403 1366 328 1366 c 4,2,3
 273 1366 273 1366 244 1295 c 12,4,5
 220 1236 220 1236 181 1236 c 4,6,7
 100 1236 100 1236 100 1305 c 4,8,9
 100 1349 100 1349 128 1388 c 4,10,11
 171 1448 171 1448 211 1476 c 4,12,13
 255 1507 255 1507 338 1507 c 4,14,15
 439 1507 439 1507 511 1422 c 4,16,17
 551 1375 551 1375 551 1305 c 4,18,19
 551 1217 551 1217 477 1126 c 22,20,-1
 329 953 l 5,21,-1
 459 953 l 14,22,23
 553 953 553 953 553 885 c 4,24,25
 553 807 553 807 471 807 c 6,26,-1
 179 807 l 6,27,28
 100 807 100 807 100 876 c 4,29,30
 100 903 100 903 142 953 c 6,31,-1
 380 1237 l 6,32,33
 403 1266 403 1266 403 1300 c 4,0,1
EndSplineSet
Validated: 1
EndChar

StartChar: uni00B3
Encoding: 179 179 380
Width: 672
VWidth: 0
Flags: W
HStem: 794 146<104.12 414.518> 1118 148<105.614 407.202> 1369 149<105.109 406.139>
VStem: 408 146<1267.7 1367.58> 425 147<952.123 1107.1>
LayerCount: 2
Fore
SplineSet
508 1196 m 5,0,1
 572 1122 572 1122 572 1044 c 4,2,3
 572 794 572 794 324 794 c 29,4,-1
 174 794 l 29,5,6
 100 794 100 794 100 864 c 28,7,8
 100 940 100 940 175 940 c 30,9,-1
 319 940 l 30,10,11
 425 940 425 940 425 1029 c 156,-1,12
 425 1118 425 1118 325 1118 c 29,13,-1
 181 1118 l 29,14,15
 101 1118 101 1118 101 1194 c 28,16,17
 101 1266 101 1266 185 1266 c 6,18,-1
 346 1266 l 14,19,20
 408 1266 408 1266 408 1319 c 28,21,22
 408 1369 408 1369 350 1369 c 30,23,-1
 185 1369 l 21,24,25
 100 1369 100 1369 100 1443.5 c 156,-1,26
 100 1518 100 1518 193 1518 c 30,27,-1
 362 1518 l 6,28,29
 443 1518 443 1518 506 1456 c 4,30,31
 554 1409 554 1409 554 1329 c 4,32,33
 554 1239 554 1239 508 1196 c 5,0,1
EndSplineSet
Validated: 1
EndChar

StartChar: paragraph
Encoding: 182 182 589
Width: 1217
VWidth: 0
Flags: W
HStem: 0 21G<596.25 672.75 898 972> 602 149<387.401 558 711 861> 1365 145<382.148 558 711 861 1009 1113.04>
VStem: 100 151<890.962 1234.39> 558 153<5 602 751 1365> 861 148<4.50439 602 751 1365>
LayerCount: 2
Fore
SplineSet
1009 1368 m 25,0,-1
 1009 82 l 26,1,2
 1009 0 1009 0 935 0 c 152,-1,3
 861 0 861 0 861 82 c 26,4,-1
 861 602 l 25,5,-1
 711 602 l 25,6,-1
 711 84 l 26,7,8
 711 0 711 0 634.5 0 c 152,-1,9
 558 0 558 0 558 80 c 25,10,-1
 558 602 l 17,11,12
 382 602 382 602 247 722 c 0,13,14
 100 853 100 853 100 1054 c 0,15,16
 100 1234 100 1234 207 1360 c 0,17,18
 334 1510 334 1510 563 1510 c 10,19,-1
 1045 1510 l 26,20,21
 1117 1510 1117 1510 1117 1438 c 24,22,23
 1117 1368 1117 1368 1047 1368 c 26,24,-1
 1009 1368 l 25,0,-1
711 1365 m 25,25,-1
 711 751 l 25,26,-1
 861 751 l 25,27,-1
 861 1365 l 25,28,-1
 711 1365 l 25,25,-1
558 1365 m 17,29,30
 400 1365 400 1365 321 1270 c 0,31,32
 251 1186 251 1186 251 1058 c 0,33,34
 251 934 251 934 325 848 c 0,35,36
 408 751 408 751 558 751 c 9,37,-1
 558 1365 l 17,29,30
EndSplineSet
EndChar

StartChar: periodcentered
Encoding: 183 183 408
Width: 452
VWidth: 0
Flags: W
HStem: 495 214<159.844 290.251>
VStem: 150 152<501.25 700.536>
LayerCount: 2
Fore
SplineSet
150 602 m 132,-1,1
 150 709 150 709 220 709 c 4,2,3
 302 709 302 709 302 595 c 4,4,5
 302 495 302 495 225 495 c 4,6,0
 150 495 150 495 150 602 c 132,-1,1
EndSplineSet
Validated: 1
EndChar

StartChar: uni00B9
Encoding: 185 185 415
Width: 600
VWidth: 0
Flags: W
HStem: 1490 20G<355 412.5>
VStem: 304 146<803.724 1270>
LayerCount: 2
Fore
SplineSet
304 1478 m 6,0,1
 335 1510 335 1510 375 1510 c 4,2,3
 450 1510 450 1510 450 1427 c 6,4,-1
 450 884 l 30,5,6
 450 799 450 799 378 799 c 28,7,8
 304 799 304 799 304 885 c 6,9,10
 304 1270 l 5,11,-1
 230 1194 l 6,12,13
 204 1167 204 1167 176 1167 c 4,14,15
 100 1167 100 1167 100 1234 c 4,16,17
 100 1267 100 1267 129 1297 c 14,18,-1
 304 1478 l 6,0,1
EndSplineSet
Validated: 1
EndChar

StartChar: guillemotright
Encoding: 187 187 242
Width: 1104
VWidth: 0
Flags: W
LayerCount: 2
Fore
SplineSet
122 274 m 2,0,1
 383 600 l 1,2,-1
 134 907 l 2,3,4
 103 945 103 945 103 971 c 0,5,6
 103 1050 103 1050 169 1050 c 0,7,8
 205 1050 205 1050 232 1017 c 10,9,-1
 524 658 l 2,10,11
 549 627 549 627 549 597 c 0,12,13
 549 568 549 568 531 546 c 26,14,-1
 230 178 l 2,15,16
 205 146 205 146 168 146 c 0,17,18
 100 146 100 146 100 218 c 0,19,20
 100 247 100 247 122 274 c 2,0,1
577 273 m 2,21,22
 838 599 l 1,23,-1
 589 906 l 2,24,25
 558 944 558 944 558 970 c 0,26,27
 558 1049 558 1049 624 1049 c 0,28,29
 660 1049 660 1049 687 1016 c 10,30,-1
 979 657 l 2,31,32
 1004 626 1004 626 1004 596 c 0,33,34
 1004 567 1004 567 986 545 c 26,35,-1
 685 177 l 2,36,37
 660 145 660 145 623 145 c 0,38,39
 555 145 555 145 555 217 c 0,40,41
 555 246 555 246 577 273 c 2,21,22
EndSplineSet
Validated: 1
EndChar

StartChar: onequarter
Encoding: 188 188 426
Width: 1314
VWidth: 0
Flags: W
HStem: 0 21G<285 346 1022 1094> 253 147<854 987 1131 1259.25> 1490 20G<355 412.5 897 956>
VStem: 246 149<6.67529 62> 304 146<803.724 1270> 846 146<1447 1502.56> 987 144<4.55933 253 400 610.693>
LayerCount: 2
Fore
SplineSet
304 1478 m 2,0,1
 335 1510 335 1510 375 1510 c 0,2,3
 450 1510 450 1510 450 1427 c 2,4,-1
 450 884 l 26,5,6
 450 799 450 799 378 799 c 24,7,8
 304 799 304 799 304 885 c 2,9,10
 304 1270 l 1,11,-1
 230 1194 l 2,12,13
 204 1167 204 1167 176 1167 c 0,14,15
 100 1167 100 1167 100 1234 c 0,16,17
 100 1267 100 1267 129 1297 c 10,18,-1
 304 1478 l 2,0,1
246 67 m 0,19,20
 246 89 246 89 264 130 c 26,21,-1
 846 1447 l 2,22,23
 874 1510 874 1510 920 1510 c 0,24,25
 992 1510 992 1510 992 1442 c 0,26,27
 992 1414 992 1414 982 1391 c 10,28,-1
 395 62 l 2,29,30
 368 0 368 0 324 0 c 0,31,32
 246 0 246 0 246 67 c 0,19,20
767 663 m 30,33,34
 780 719 780 719 841 719 c 4,35,36
 910 719 910 719 910 650 c 4,37,38
 910 640 910 640 903 610 c 6,39,-1
 854 400 l 5,40,-1
 987 400 l 5,41,-1
 987 531 l 14,42,43
 987 615 987 615 1060 615 c 28,44,45
 1131 615 1131 615 1131 525 c 22,46,-1
 1131 400 l 5,47,-1
 1191 400 l 5,48,49
 1264 400 1264 400 1264 321 c 4,50,51
 1264 258 1264 258 1188 258 c 21,52,-1
 1131 258 l 5,53,-1
 1131 83 l 14,54,55
 1131 0 1131 0 1057 0 c 28,56,57
 987 0 987 0 987 80 c 22,58,-1
 987 253 l 5,59,-1
 760 253 l 6,60,61
 721 253 721 253 689 318 c 20,62,63
 688 320 688 320 688 323 c 4,64,65
 692 344 692 344 703 390 c 14,66,-1
 767 663 l 30,33,34
EndSplineSet
Validated: 2049
EndChar

StartChar: onehalf
Encoding: 189 189 427
Width: 1264
VWidth: 0
Flags: W
HStem: 0 145<940 1158.84> 558 141<868.448 1010.33> 1490 20G<355 412.5 897 956>
VStem: 246 149<6.67529 62> 304 146<803.724 1270> 711 453<5.43286 137.328 428 601.375> 846 146<1447 1502.56> 1014 148<406.132 554.111>
LayerCount: 2
Fore
SplineSet
1014 492 m 0,0,1
 1014 558 1014 558 939 558 c 0,2,3
 884 558 884 558 855 487 c 8,4,5
 831 428 831 428 792 428 c 0,6,7
 711 428 711 428 711 497 c 0,8,9
 711 541 711 541 739 580 c 0,10,11
 782 640 782 640 822 668 c 0,12,13
 866 699 866 699 949 699 c 0,14,15
 1050 699 1050 699 1122 614 c 0,16,17
 1162 567 1162 567 1162 497 c 0,18,19
 1162 409 1162 409 1088 318 c 18,20,-1
 940 145 l 1,21,-1
 1070 145 l 10,22,23
 1164 145 1164 145 1164 77 c 0,24,25
 1164 0 1164 0 1082 0 c 2,26,-1
 790 0 l 2,27,28
 711 0 711 0 711 68 c 0,29,30
 711 95 711 95 753 145 c 2,31,-1
 991 429 l 2,32,33
 1014 458 1014 458 1014 492 c 0,0,1
304 1478 m 2,34,35
 335 1510 335 1510 375 1510 c 0,36,37
 450 1510 450 1510 450 1427 c 2,38,-1
 450 884 l 26,39,40
 450 799 450 799 378 799 c 24,41,42
 304 799 304 799 304 885 c 2,43,-1
 304 1270 l 1,44,-1
 230 1194 l 2,45,46
 204 1167 204 1167 176 1167 c 0,47,48
 100 1167 100 1167 100 1234 c 0,49,50
 100 1267 100 1267 129 1297 c 10,51,-1
 304 1478 l 2,34,35
246 67 m 0,52,53
 246 89 246 89 264 130 c 26,54,-1
 846 1447 l 2,55,56
 874 1510 874 1510 920 1510 c 0,57,58
 992 1510 992 1510 992 1442 c 0,59,60
 992 1414 992 1414 982 1391 c 10,61,-1
 395 62 l 2,62,63
 368 0 368 0 324 0 c 0,64,65
 246 0 246 0 246 67 c 0,52,53
EndSplineSet
Validated: 2049
EndChar

StartChar: threequarters
Encoding: 190 190 428
Width: 1346
VWidth: 0
Flags: W
HStem: 0 21G<311 372 1054 1126> 253 147<886 1019 1163 1291.25> 794 146<104.12 414.518> 1118 148<105.614 407.202> 1369 149<105.109 406.139>
VStem: 272 149<6.67529 62> 408 146<1267.7 1367.58> 425 147<952.123 1107.1> 872 147<1447 1502.56> 1019 144<4.55933 253 400 610.693>
LayerCount: 2
Fore
SplineSet
508 1196 m 1,0,1
 572 1122 572 1122 572 1044 c 0,2,3
 572 794 572 794 324 794 c 25,4,-1
 174 794 l 25,5,6
 100 794 100 794 100 864 c 24,7,8
 100 940 100 940 175 940 c 26,9,-1
 319 940 l 26,10,11
 425 940 425 940 425 1029 c 152,-1,12
 425 1118 425 1118 325 1118 c 25,13,-1
 181 1118 l 25,14,15
 101 1118 101 1118 101 1194 c 24,16,17
 101 1266 101 1266 185 1266 c 2,18,-1
 346 1266 l 10,19,20
 408 1266 408 1266 408 1319 c 24,21,22
 408 1369 408 1369 350 1369 c 26,23,-1
 185 1369 l 17,24,25
 100 1369 100 1369 100 1443.5 c 152,-1,26
 100 1518 100 1518 193 1518 c 26,27,-1
 362 1518 l 2,28,29
 443 1518 443 1518 506 1456 c 0,30,31
 554 1409 554 1409 554 1329 c 0,32,33
 554 1239 554 1239 508 1196 c 1,0,1
799 663 m 26,34,35
 811 719 811 719 872 719 c 0,36,37
 942 719 942 719 942 650 c 0,38,39
 942 641 942 641 935 610 c 2,40,-1
 886 400 l 1,41,-1
 1019 400 l 1,42,-1
 1019 531 l 10,43,44
 1019 615 1019 615 1092 615 c 24,45,46
 1163 615 1163 615 1163 525 c 18,47,-1
 1163 400 l 1,48,-1
 1223 400 l 1,49,50
 1296 400 1296 400 1296 321 c 0,51,52
 1296 258 1296 258 1220 258 c 17,53,-1
 1163 258 l 1,54,-1
 1163 83 l 10,55,56
 1163 0 1163 0 1089 0 c 24,57,58
 1019 0 1019 0 1019 80 c 18,59,-1
 1019 253 l 1,60,-1
 792 253 l 2,61,62
 753 253 753 253 721 318 c 16,63,64
 720 320 720 320 720 323 c 0,65,66
 723 339 723 339 735 390 c 10,67,-1
 799 663 l 26,34,35
272 67 m 0,68,69
 272 89 272 89 290 130 c 26,70,-1
 872 1447 l 2,71,72
 900 1510 900 1510 946 1510 c 0,73,74
 1019 1510 1019 1510 1019 1442 c 0,75,76
 1019 1414 1019 1414 1008 1391 c 10,77,-1
 421 62 l 2,78,79
 394 0 394 0 350 0 c 0,80,81
 272 0 272 0 272 67 c 0,68,69
EndSplineSet
Validated: 2049
EndChar

StartChar: questiondown
Encoding: 191 191 229
Width: 951
VWidth: 2456
Flags: W
LayerCount: 2
Fore
SplineSet
815 87 m 0,0,1
 631 0 631 0 401 0 c 0,2,3
 263 0 263 0 174 104 c 0,4,5
 100 190 100 190 100 304 c 24,6,7
 100 428 100 428 186 510 c 2,8,-1
 367 684 l 2,9,10
 407 722 407 722 407 781 c 26,11,-1
 407 971 l 2,12,13
 407 1054 407 1054 479 1054 c 152,-1,14
 551 1054 551 1054 551 976 c 2,15,-1
 551 772 l 26,16,17
 551 664 551 664 480 597 c 2,18,-1
 281 401 l 2,19,20
 249 369 249 369 249 316 c 0,21,22
 249 146 249 146 431 146 c 0,23,24
 549 146 549 146 727 207 c 0,25,26
 761 219 761 219 781 219 c 0,27,28
 783 219 l 0,29,30
 851 219 851 219 851 146 c 8,31,32
 851 104 851 104 815 87 c 0,0,1
551 1399 m 0,33,34
 551 1289 551 1289 485 1289 c 1,35,36
 409 1289 409 1289 409 1400 c 0,37,38
 409 1510 409 1510 479 1510 c 0,39,40
 551 1510 551 1510 551 1399 c 0,33,34
EndSplineSet
Validated: 1
EndChar

StartChar: AE
Encoding: 198 198 218
Width: 1564
VWidth: 0
Flags: W
HStem: 0 148<1005 1459.39> 378 152<399 863> 765 145<1005 1379.04> 1366 148<680 863 1005 1457.06>
VStem: 863 142<148 378 530 765 910 1366>
LayerCount: 2
Fore
SplineSet
863 1366 m 25,0,1
 680 1366 l 25,2,-1
 399 530 l 25,3,-1
 863 530 l 25,4,5
 863 1366 l 25,0,1
561 1461 m 2,6,7
 579 1514 579 1514 630 1514 c 10,8,9
 1383 1514 l 26,10,11
 1462 1514 1462 1514 1462 1439 c 0,12,13
 1462 1372 1462 1372 1384 1372 c 26,14,15
 1005 1372 l 25,16,17
 1005 910 l 25,18,-1
 1312 910 l 26,19,20
 1383 910 1383 910 1383 834 c 24,21,22
 1383 765 1383 765 1311 765 c 26,23,-1
 1005 765 l 25,24,25
 1005 148 l 25,26,-1
 1382 148 l 26,27,28
 1464 148 1464 148 1464 76 c 24,29,30
 1464 0 1464 0 1380 0 c 26,31,32
 926 0 l 26,33,34
 863 0 863 0 863 75 c 26,35,-1
 863 378 l 25,36,37
 352 378 l 25,38,-1
 246 68 l 26,39,40
 223 0 223 0 171 0 c 0,41,42
 147 0 147 0 124 16 c 0,43,44
 100 33 100 33 100 73 c 0,45,46
 100 94 100 94 116 144 c 26,47,48
 561 1461 l 2,6,7
EndSplineSet
Validated: 1
EndChar

StartChar: Eth
Encoding: 208 208 163
Width: 1285
VWidth: 0
Flags: W
HStem: 0 141<375 887.819> 679 150<4.285 227 375 596.331> 1366 144<375 892.44>
VStem: 227 148<141 679 829 1366> 989 146<238.868 1273.71>
LayerCount: 2
Fore
SplineSet
375 141 m 1,0,1
 746 141 l 2,2,3
 859 141 859 141 935 225 c 0,4,5
 989 285 989 285 989 387 c 2,6,-1
 989 1135 l 2,7,8
 989 1225 989 1225 938 1282 c 0,9,10
 862 1366 862 1366 752 1366 c 2,11,-1
 375 1366 l 1,12,-1
 375 829 l 1,13,-1
 528 829 l 2,14,15
 601 829 601 829 601 755 c 0,16,17
 601 679 601 679 516 679 c 2,18,19
 375 679 l 1,20,21
 375 141 l 1,0,1
227 1428 m 2,22,23
 227 1510 227 1510 311 1510 c 2,24,-1
 746 1510 l 26,25,26
 910 1510 910 1510 1021 1403 c 24,27,28
 1135 1293 1135 1293 1135 1139 c 2,29,30
 1135 375 l 26,31,32
 1135 226 1135 226 1032 112 c 24,33,34
 931 0 931 0 794 0 c 2,35,36
 295 0 l 26,37,38
 227 0 227 0 227 89 c 18,39,40
 227 679 l 1,41,42
 76 679 l 1,43,44
 0 679 0 679 0 754 c 128,-1,45
 0 829 0 829 78 829 c 2,46,-1
 227 829 l 1,47,-1
 227 1428 l 2,22,23
EndSplineSet
Validated: 1
EndChar

StartChar: multiply
Encoding: 215 215 47
Width: 957
VWidth: 0
Flags: W
LayerCount: 2
Fore
SplineSet
726 942 m 14,0,1
 754 970 754 970 780 970 c 4,2,3
 856 970 856 970 856 891 c 4,4,5
 856 861 856 861 824 832 c 6,6,-1
 578 594 l 5,7,-1
 816 362 l 6,8,9
 857 324 857 324 857 287 c 4,10,11
 857 218 857 218 781 218 c 4,12,13
 756 218 756 218 709 263 c 6,14,-1
 477 491 l 5,15,-1
 245 256 l 14,16,17
 206 217 206 217 180 217 c 4,18,19
 101 217 101 217 101 285 c 4,20,21
 101 319 101 319 137 356 c 6,22,-1
 374 594 l 5,23,-1
 139 829 l 6,24,25
 100 868 100 868 100 893 c 4,26,27
 100 971 100 971 178 971 c 4,28,29
 209 971 209 971 246 933 c 22,30,-1
 477 697 l 5,31,-1
 726 942 l 14,0,1
EndSplineSet
Validated: 1
EndChar

StartChar: Oslash
Encoding: 216 216 223
Width: 1211
VWidth: 0
Flags: W
HStem: 0 148<443.939 762.316> 1367 148<445.736 759.619>
VStem: 152 147<519 1226.36> 910 145<298.641 987>
LayerCount: 2
Fore
SplineSet
152 1088 m 2,0,1
 152 1254 152 1254 283 1384 c 0,2,3
 415 1515 415 1515 605 1515 c 0,4,5
 787 1515 787 1515 917 1385 c 0,6,7
 957 1345 957 1345 986 1302 c 1,8,-1
 1058 1384 l 2,9,10
 1098 1431 1098 1431 1140 1431 c 0,11,12
 1211 1431 1211 1431 1211 1367 c 0,13,14
 1211 1330 1211 1330 1194 1310 c 2,15,-1
 1048 1144 l 1,16,17
 1055 1107 1055 1107 1055 1067 c 2,18,-1
 1055 456 l 2,19,20
 1055 260 1055 260 918 127 c 0,21,22
 787 0 787 0 598 0 c 0,23,24
 417 0 417 0 287 127 c 0,25,26
 249 164 249 164 221 204 c 1,27,-1
 156 130 l 2,28,29
 108 75 108 75 73 75 c 0,30,31
 0 75 0 75 0 144 c 0,32,33
 0 179 0 179 25 207 c 2,34,-1
 158 358 l 1,35,36
 152 392 152 392 152 428 c 2,37,-1
 152 1088 l 2,0,1
910 987 m 1,38,-1
 324 320 l 1,39,40
 349 270 349 270 399 225 c 0,41,42
 485 148 485 148 594 148 c 0,43,44
 720 148 720 148 799 219 c 0,45,46
 910 319 910 319 910 452 c 2,47,-1
 910 987 l 1,38,-1
299 519 m 1,48,-1
 885 1187 l 1,49,50
 859 1247 859 1247 805 1291 c 0,51,52
 712 1367 712 1367 593 1367 c 0,53,54
 494 1367 494 1367 399 1290 c 0,55,56
 299 1209 299 1209 299 1064 c 2,57,-1
 299 519 l 1,48,-1
EndSplineSet
Validated: 2049
EndChar

StartChar: Thorn
Encoding: 222 222 285
Width: 1030
VWidth: 0
Flags: W
HStem: 0 21G<187 260> 240 144<296 713.88> 1151 143<293 709.89>
VStem: 150 141<5.21851 240 384 1151 1294 1502.95> 757 143<426.5 1104>
LayerCount: 2
Fore
SplineSet
585 384 m 2,0,1
 757 384 757 384 757 554 c 2,2,-1
 757 983 l 2,3,4
 757 1060 757 1060 711.5 1105.5 c 128,-1,5
 666 1151 666 1151 593 1151 c 2,6,-1
 291 1151 l 1,7,-1
 291 384 l 1,8,-1
 585 384 l 2,0,1
296 240 m 25,9,-1
 296 95 l 26,10,11
 296 0 296 0 224 0 c 24,12,13
 150 0 150 0 150 95 c 26,14,-1
 150 1432 l 2,15,16
 150 1506 150 1506 219 1506 c 24,17,18
 293 1506 293 1506 293 1432 c 18,19,-1
 293 1294 l 1,20,-1
 623 1294 l 2,21,22
 750 1294 750 1294 843 1180 c 24,23,24
 900 1110 900 1110 900 1016 c 2,25,-1
 900 514 l 26,26,27
 900 396 900 396 814 318 c 152,-1,28
 728 240 728 240 599 240 c 2,29,-1
 296 240 l 25,9,-1
EndSplineSet
Validated: 1
EndChar

StartChar: germandbls
Encoding: 223 223 161
Width: 1204
VWidth: 0
Flags: W
HStem: 6 145<690.436 865.548> 835 151<689.625 861.8> 1368 150<345.035 859.594>
VStem: 150 146<8.83301 1315.53> 910 142<195.369 771.587 1029.89 1319.49>
LayerCount: 2
Fore
SplineSet
1054 1113 m 2,0,1
 1054 990 1054 990 951 908 c 1,2,3
 1052 825 1052 825 1052 683 c 2,4,-1
 1052 289 l 2,5,6
 1052 172 1052 172 960 82 c 0,7,8
 882 6 882 6 775 6 c 16,9,10
 683 6 683 6 683 79 c 0,11,12
 683 135 683 135 777 151 c 0,13,14
 910 173 910 173 910 340 c 2,15,-1
 910 655 l 2,16,17
 910 728 910 728 877 773 c 0,18,19
 830 835 830 835 762 835 c 0,20,21
 684 835 684 835 684 917 c 24,22,23
 684 986 684 986 774 986 c 0,24,25
 830 986 830 986 870 1034 c 0,26,27
 908 1080 908 1080 908 1135 c 2,28,-1
 908 1216 l 2,29,30
 908 1278 908 1278 868 1318 c 0,31,32
 818 1368 818 1368 762 1368 c 10,33,-1
 474 1368 l 2,34,35
 386 1368 386 1368 339 1317 c 0,36,37
 296 1270 296 1270 296 1208 c 10,38,-1
 296 105 l 26,39,40
 296 4 296 4 223 4 c 128,-1,41
 150 4 150 4 150 102 c 2,42,-1
 150 1222 l 2,43,44
 150 1346 150 1346 250 1439 c 24,45,46
 334 1518 334 1518 476 1518 c 2,47,-1
 747 1518 l 2,48,49
 895 1518 895 1518 974 1421 c 0,50,51
 1054 1323 1054 1323 1054 1244 c 2,52,-1
 1054 1113 l 2,0,1
EndSplineSet
Validated: 1
EndChar

StartChar: ae
Encoding: 230 230 219
Width: 1308
VWidth: 0
Flags: W
HStem: 0 144<295.564 556 754.472 1153.5> 454 146<295.345 556 703 1009> 909 145<179.828 503.626 748.901 966.072>
VStem: 100 148<187.934 404.278> 556 144<195.714 454 600 857.384> 1009 149<600 853.714>
LayerCount: 2
Fore
SplineSet
556 454 m 1,0,1
 394 454 l 18,2,3
 333 454 333 454 285 401 c 0,4,5
 248 360 248 360 248 293 c 0,6,7
 248 225 248 225 294 186 c 0,8,9
 344 144 344 144 400 144 c 10,10,-1
 556 144 l 17,11,-1
 556 454 l 1,0,1
703 600 m 1,12,-1
 1009 600 l 9,13,-1
 1009 753 l 18,14,15
 1009 814 1009 814 975 855 c 0,16,17
 929 909 929 909 855 909 c 0,18,19
 796 909 796 909 752 869 c 0,20,21
 703 824 703 824 703 763 c 10,22,-1
 703 600 l 1,12,-1
255 1054 m 26,23,-1
 402 1054 l 18,24,25
 535 1054 535 1054 629 949 c 1,26,27
 718 1054 718 1054 862 1054 c 0,28,29
 987 1054 987 1054 1084 953 c 0,30,31
 1158 876 1158 876 1158 743 c 10,32,-1
 1158 538 l 26,33,34
 1158 454 1158 454 1095 454 c 26,35,-1
 700 454 l 9,36,-1
 700 319 l 18,37,38
 700 236 700 236 753 188 c 0,39,40
 800 145 800 145 861 145 c 10,41,-1
 1064 145 l 26,42,43
 1158 145 1158 145 1158 72 c 24,44,45
 1158 0 1158 0 1066 0 c 26,46,-1
 844 0 l 18,47,48
 750 0 750 0 696 47 c 1,49,50
 681 0 681 0 626 0 c 26,51,-1
 379 0 l 18,52,53
 282 0 282 0 190 86 c 0,54,55
 100 170 100 170 100 290 c 0,56,57
 100 432 100 432 185 509 c 0,58,59
 280 595 280 595 368 595 c 10,60,-1
 556 595 l 9,61,-1
 556 750 l 18,62,63
 556 807 556 807 515 854 c 0,64,65
 467 909 467 909 404 909 c 10,66,-1
 256 909 l 26,67,68
 176 909 176 909 176 981.5 c 152,-1,69
 176 1054 176 1054 255 1054 c 26,23,-1
EndSplineSet
Validated: 2049
EndChar

StartChar: eth
Encoding: 240 240 287
Width: 1013
VWidth: 0
Flags: W
HStem: 0 141<374.377 644.543> 756 146<371.719 736> 1364 146<289.08 449.672>
VStem: 130 145<231.656 657.236> 740 143<243.519 756 902 1057.37>
LayerCount: 2
Fore
SplineSet
740 358 m 2,0,1
 740 756 l 1,2,-1
 506 756 l 2,3,4
 408 756 408 756 343 686 c 0,5,6
 275 613 275 613 275 514 c 2,7,-1
 275 362 l 2,8,9
 275 264 275 264 337 212 c 0,10,11
 421 141 421 141 505 141 c 0,12,13
 604 141 604 141 656 195 c 0,14,15
 740 282 740 282 740 358 c 2,0,1
576 1414 m 1,16,-1
 659 1500 l 2,17,18
 683 1525 683 1525 710 1525 c 0,19,20
 741 1525 741 1525 765 1496 c 0,21,22
 785 1472 785 1472 785 1450 c 0,23,24
 785 1423 785 1423 757 1394 c 2,25,-1
 687 1322 l 1,26,27
 883 1096 883 1096 883 865 c 2,28,-1
 883 343 l 2,29,30
 883 210 883 210 776 106 c 0,31,32
 667 0 667 0 526 0 c 0,33,34
 351 0 351 0 255 93 c 0,35,36
 130 214 130 214 130 343 c 2,37,-1
 130 545 l 2,38,39
 130 668 130 668 228 777 c 0,40,41
 340 902 340 902 508 902 c 2,42,-1
 736 902 l 1,43,44
 717 1085 717 1085 586 1217 c 1,45,-1
 501 1130 l 2,46,47
 478 1105 478 1105 449 1105 c 0,48,49
 419 1105 419 1105 396 1130 c 0,50,51
 374 1154 374 1154 374 1178 c 0,52,53
 374 1205 374 1205 402 1234 c 2,54,-1
 473 1307 l 1,55,56
 417 1339 417 1339 347 1364 c 0,57,58
 284 1386 284 1386 284 1432 c 0,59,60
 284 1510 284 1510 356 1510 c 128,-1,61
 428 1510 428 1510 576 1414 c 1,16,-1
EndSplineSet
Validated: 1
EndChar

StartChar: divide
Encoding: 247 247 44
Width: 955
VWidth: 0
Flags: W
HStem: 145 214<412.844 543.251> 520 144<105.219 850.386> 829 213<412.751 542.48>
VStem: 403 152<151.25 350.536 835.25 1033.46>
LayerCount: 2
Fore
SplineSet
403 934 m 4,0,1
 403 1042 403 1042 473 1042 c 4,2,3
 554 1042 554 1042 554 929 c 4,4,5
 554 829 554 829 478.5 829 c 132,-1,6
 403 829 403 829 403 934 c 4,0,1
403 252 m 132,-1,8
 403 359 403 359 473 359 c 4,9,10
 555 359 555 359 555 245 c 4,11,12
 555 145 555 145 478 145 c 4,13,7
 403 145 403 145 403 252 c 132,-1,8
195 664 m 22,14,15
 766 664 l 14,16,17
 855 664 855 664 855 594 c 4,18,19
 855 520 855 520 771 520 c 6,20,-1
 190 520 l 14,21,22
 100 520 100 520 100 595 c 28,23,24
 100 664 100 664 195 664 c 22,14,15
EndSplineSet
Validated: 2049
EndChar

StartChar: oslash
Encoding: 248 248 222
Width: 1117
VWidth: 0
Flags: W
HStem: 8 142<431.056 693.004> 919 144<426.518 690.699>
VStem: 184 143<408 824.457> 792 141<247.732 663>
LayerCount: 2
Fore
SplineSet
792 663 m 17,0,-1
 373 245 l 1,1,2
 398 215 398 215 437 190 c 0,3,4
 499 150 499 150 565 150 c 0,5,6
 629 150 629 150 694 194 c 0,7,8
 792 260 792 260 792 403 c 2,9,-1
 792 663 l 17,0,-1
547 1063 m 0,10,11
 716 1063 716 1063 821 958 c 0,12,13
 836 943 836 943 849 928 c 1,14,-1
 954 1032 l 2,15,16
 983 1061 983 1061 1014 1061 c 0,17,18
 1087 1061 1087 1061 1087 993 c 0,19,20
 1087 957 1087 957 1058 928 c 2,21,-1
 923 794 l 1,22,23
 933 759 933 759 933 722 c 2,24,-1
 933 374 l 2,25,26
 933 206 933 206 812 100 c 0,27,28
 707 8 707 8 558 8 c 0,29,30
 401 8 401 8 305 104 c 0,31,32
 286 123 286 123 270 143 c 1,33,-1
 158 31 l 2,34,35
 130 4 130 4 98 4 c 0,36,37
 30 4 30 4 30 72 c 1,38,39
 30 112 30 112 60 142 c 2,40,-1
 198 279 l 1,41,42
 184 328 184 328 184 379 c 2,43,-1
 184 706 l 2,44,45
 184 867 184 867 323 980 c 0,46,47
 425 1063 425 1063 547 1063 c 0,10,11
407 862 m 0,48,49
 327 803 327 803 327 679 c 2,50,-1
 327 408 l 1,51,-1
 744 823 l 1,52,53
 732 839 732 839 717 853 c 0,54,55
 646 919 646 919 565 919 c 0,56,57
 485 919 485 919 407 862 c 0,48,49
EndSplineSet
Validated: 2049
EndChar

StartChar: thorn
Encoding: 254 254 286
Width: 1030
VWidth: 0
Flags: W
HStem: -456 21G<187 260> 4 144<296 713.381> 915 143<293 709.89>
VStem: 150 141<-450.781 4 148 915 1058 1433.95> 757 143<190.5 868>
LayerCount: 2
Fore
SplineSet
585 148 m 2,0,1
 757 148 757 148 757 318 c 2,2,-1
 757 747 l 2,3,4
 757 824 757 824 711.5 869.5 c 128,-1,5
 666 915 666 915 593 915 c 2,6,-1
 291 915 l 1,7,-1
 291 148 l 1,8,-1
 585 148 l 2,0,1
296 4 m 25,9,-1
 296 -361 l 26,10,11
 296 -456 296 -456 224 -456 c 24,12,13
 150 -456 150 -456 150 -361 c 26,14,-1
 150 1363 l 2,15,16
 150 1437 150 1437 219 1437 c 24,17,18
 293 1437 293 1437 293 1363 c 18,19,-1
 293 1058 l 1,20,-1
 623 1058 l 2,21,22
 750 1058 750 1058 843 944 c 24,23,24
 900 874 900 874 900 780 c 2,25,-1
 900 278 l 26,26,27
 900 161 900 161 814 82 c 24,28,29
 727 4 727 4 599 4 c 2,30,-1
 296 4 l 25,9,-1
EndSplineSet
Validated: 1
EndChar

StartChar: dcroat
Encoding: 273 273 164
Width: 1118
VWidth: 0
Flags: W
HStem: 0 144<323.952 734> 912 145<326.946 734> 1370 147<437.834 734 882 1173>
VStem: 130 144<196.628 858.705> 734 148<144 912 1057 1370 1517 1889.25>
LayerCount: 2
Fore
SplineSet
433 912 m 2,0,1
 365 912 365 912 316 857 c 0,2,3
 274 810 274 810 274 750 c 2,4,-1
 274 312 l 2,5,6
 274 247 274 247 317 195 c 0,7,8
 359 144 359 144 428 144 c 2,9,-1
 734 144 l 1,10,-1
 734 912 l 1,11,-1
 433 912 l 2,0,1
734 1815 m 9,12,13
 734 1894 734 1894 810 1894 c 24,14,15
 878 1894 878 1894 878 1818 c 2,16,-1
 878 1517 l 1,17,18
 1098 1517 l 2,19,20
 1178 1517 1178 1517 1178 1440 c 0,21,22
 1178 1370 1178 1370 1106 1370 c 2,23,24
 882 1370 l 1,25,26
 882 77 l 10,27,28
 882 0 882 0 804 0 c 2,29,30
 416 0 l 26,31,32
 301 0 301 0 214 88 c 24,33,34
 130 173 130 173 130 289 c 2,35,-1
 130 781 l 26,36,37
 130 862 130 862 202 954 c 0,38,39
 283 1057 283 1057 443 1057 c 18,40,-1
 734 1057 l 1,41,-1
 734 1370 l 1,42,-1
 521 1370 l 26,43,44
 433 1370 433 1370 433 1442 c 0,45,46
 433 1515 433 1515 521 1515 c 26,47,-1
 734 1515 l 1,48,-1
 734 1815 l 9,12,13
EndSplineSet
Validated: 1
EndChar

StartChar: gcommaaccent
Encoding: 291 291 273
Width: 1029
VWidth: 0
Flags: W
LayerCount: 2
Fore
SplineSet
445 911 m 2,0,1
 375 911 375 911 324 867 c 0,2,3
 272 822 272 822 272 743 c 2,4,-1
 272 326 l 18,5,6
 272 236 272 236 316 189 c 0,7,8
 357 145 357 145 438 145 c 2,9,-1
 734 145 l 1,10,-1
 734 911 l 1,11,-1
 445 911 l 2,0,1
433 1057 m 2,12,13
 804 1057 l 26,14,15
 879 1057 879 1057 879 975 c 2,16,17
 879 -181 l 26,18,19
 879 -295 879 -295 794 -376 c 24,20,21
 710 -456 710 -456 594 -456 c 2,22,23
 281 -456 l 26,24,25
 203 -456 203 -456 203 -385 c 24,26,27
 203 -311 203 -311 285 -311 c 2,28,29
 537 -311 l 2,30,31
 731 -311 731 -311 731 -169 c 2,32,-1
 731 0 l 17,33,34
 407 0 l 26,35,36
 285 0 285 0 207 91 c 24,37,38
 130 181 130 181 130 306 c 2,39,40
 130 764 l 26,41,42
 130 887 130 887 214 969 c 24,43,44
 304 1057 304 1057 433 1057 c 2,12,13
555 1547 m 2,45,46
 572 1614 572 1614 625 1614 c 0,47,48
 700 1614 700 1614 700 1549 c 0,49,50
 700 1525 700 1525 694 1501 c 2,51,-1
 629 1238 l 2,52,53
 612 1168 612 1168 555 1168 c 0,54,55
 483 1168 483 1168 483 1236 c 0,56,57
 483 1259 483 1259 493 1299 c 10,58,-1
 555 1547 l 2,45,46
EndSplineSet
Validated: 2049
EndChar

StartChar: Hbar
Encoding: 294 294 259
Width: 1295
VWidth: 0
Flags: W
HStem: 0 21G<227 300.5 993.5 1064.5> 760 144<337 958> 1368 142<-25.935 190 337 958 1100 1320.28>
VStem: 190 147<4.1748 760 904 1368 1510 1884.93> 958 142<3.82812 760 904 1368 1510 1881.41>
LayerCount: 2
Fore
SplineSet
958 760 m 1,0,-1
 337 760 l 1,1,-1
 337 77 l 2,2,3
 337 0 337 0 264 0 c 0,4,5
 190 0 190 0 190 76 c 2,6,-1
 190 1368 l 1,7,-1
 44 1368 l 2,8,9
 -30 1368 -30 1368 -30 1444 c 0,10,11
 -30 1510 -30 1510 42 1510 c 2,12,-1
 190 1510 l 1,13,-1
 190 1804 l 2,14,15
 190 1889 190 1889 263.5 1889 c 128,-1,16
 337 1889 337 1889 337 1804 c 2,17,-1
 337 1510 l 1,18,-1
 958 1510 l 1,19,-1
 958 1810 l 2,20,21
 958 1885 958 1885 1029 1885 c 128,-1,22
 1100 1885 1100 1885 1100 1811 c 2,23,-1
 1100 1510 l 1,24,-1
 1242 1510 l 2,25,26
 1325 1510 1325 1510 1325 1434 c 0,27,28
 1325 1368 1325 1368 1239 1368 c 2,29,-1
 1100 1368 l 1,30,-1
 1100 80 l 2,31,32
 1100 0 1100 0 1029 0 c 128,-1,33
 958 0 958 0 958 78 c 2,34,-1
 958 760 l 1,0,-1
958 1368 m 1,35,-1
 337 1368 l 1,36,-1
 337 904 l 1,37,-1
 958 904 l 1,38,-1
 958 1368 l 1,35,-1
EndSplineSet
Validated: 1
EndChar

StartChar: hbar
Encoding: 295 295 260
Width: 1108
VWidth: 0
Flags: W
HStem: 916 144<343 759.948> 1377 144<-25.77 197 343 558.5>
VStem: 197 146<26.1149 916 1060 1377 1521 1894.11> 805 143<11 872.006>
LayerCount: 2
Fore
SplineSet
197 1810 m 2,0,1
 197 1899 197 1899 272 1899 c 0,2,3
 343 1899 343 1899 343 1814 c 2,4,-1
 343 1521 l 1,5,-1
 491 1521 l 2,6,7
 563 1521 563 1521 563 1444 c 0,8,9
 563 1377 563 1377 486 1377 c 2,10,-1
 343 1377 l 1,11,-1
 343 1060 l 1,12,-1
 653 1060 l 2,13,14
 772 1060 772 1060 870 967 c 0,15,16
 948 893 948 893 948 761 c 2,17,-1
 948 84 l 2,18,19
 948 6 948 6 882 6 c 0,20,21
 805 6 805 6 805 86 c 2,22,-1
 805 744 l 2,23,24
 805 916 805 916 629 916 c 2,25,-1
 343 916 l 1,26,-1
 343 87 l 2,27,28
 343 45 343 45 324 25.5 c 128,-1,29
 305 6 305 6 267 6 c 0,30,31
 197 6 197 6 197 92 c 2,32,-1
 197 1377 l 1,33,-1
 44 1377 l 2,34,35
 -30 1377 -30 1377 -30 1452 c 0,36,37
 -30 1521 -30 1521 47 1521 c 2,38,-1
 197 1521 l 1,39,-1
 197 1810 l 2,0,1
EndSplineSet
Validated: 1
EndChar

StartChar: Itilde
Encoding: 296 296 451
Width: 654
VWidth: 0
Flags: W
LayerCount: 2
Fore
SplineSet
327 0 m 152,-1,1
 251 0 251 0 251 94 c 26,2,-1
 251 1420 l 2,3,4
 251 1510 251 1510 327 1510 c 152,-1,5
 403 1510 403 1510 403 1417 c 26,6,-1
 403 96 l 2,7,0
 403 0 403 0 327 0 c 152,-1,1
552 1814 m 0,8,9
 586 1853 586 1853 635 1853 c 0,10,11
 704 1853 704 1853 704 1778 c 0,12,13
 704 1753 704 1753 667 1718 c 0,14,15
 582 1637 582 1637 475 1637 c 0,16,17
 383 1637 383 1637 318 1698 c 0,18,19
 224 1786 224 1786 172 1786 c 0,20,21
 141 1786 141 1786 96 1749 c 128,-1,22
 51 1712 51 1712 21 1712 c 0,23,24
 -50 1712 -50 1712 -50 1794 c 0,25,26
 -50 1816 -50 1816 -16 1846 c 0,27,28
 78 1930 78 1930 174 1930 c 0,29,30
 273 1930 273 1930 369 1844 c 0,31,32
 439 1781 439 1781 475 1781 c 0,33,34
 523 1781 523 1781 552 1814 c 0,8,9
EndSplineSet
Validated: 1
EndChar

StartChar: itilde
Encoding: 297 297 450
Width: 654
VWidth: 0
Flags: W
LayerCount: 2
Fore
SplineSet
401 986 m 2,0,-1
 401 84 l 2,1,2
 401 0 401 0 329 0 c 0,3,4
 254 0 254 0 254 82 c 2,5,-1
 254 980 l 18,6,7
 254 1057 254 1057 328 1057 c 0,8,9
 401 1057 401 1057 401 986 c 2,0,-1
552 1362 m 0,10,11
 586 1401 586 1401 635 1401 c 0,12,13
 704 1401 704 1401 704 1326 c 0,14,15
 704 1301 704 1301 667 1266 c 0,16,17
 582 1185 582 1185 475 1185 c 0,18,19
 383 1185 383 1185 318 1246 c 0,20,21
 224 1334 224 1334 172 1334 c 0,22,23
 141 1334 141 1334 96 1297 c 128,-1,24
 51 1260 51 1260 21 1260 c 0,25,26
 -50 1260 -50 1260 -50 1342 c 0,27,28
 -50 1364 -50 1364 -16 1394 c 0,29,30
 78 1478 78 1478 174 1478 c 0,31,32
 273 1478 273 1478 369 1392 c 0,33,34
 439 1329 439 1329 475 1329 c 0,35,36
 523 1329 523 1329 552 1362 c 0,10,11
EndSplineSet
Validated: 1
EndChar

StartChar: dotlessi
Encoding: 305 305 130
Width: 447
VWidth: 0
Flags: W
HStem: 0 21G<187.5 261> 1037 20G<187 260.5>
VStem: 150 147<4.61426 1052.77>
LayerCount: 2
Fore
SplineSet
297 986 m 2,0,1
 297 84 l 2,2,3
 297 0 297 0 225 0 c 0,4,5
 150 0 150 0 150 82 c 2,6,7
 150 980 l 18,8,9
 150 1057 150 1057 224 1057 c 0,10,11
 297 1057 297 1057 297 986 c 2,0,1
EndSplineSet
Validated: 1
EndChar

StartChar: Lslash
Encoding: 321 321 170
Width: 1034
VWidth: 0
Flags: W
HStem: 0 149<329 928.562> 1042 20G<553 582> 1494 20G<219 292>
VStem: 182 147<149 607 902 1509.5>
LayerCount: 2
Fore
SplineSet
328 1434 m 18,0,-1
 328 902 l 1,1,-1
 511 1042 l 2,2,3
 541 1062 541 1062 565 1062 c 0,4,5
 599 1062 599 1062 619 1025 c 0,6,7
 634 997 634 997 634 978 c 0,8,9
 634 949 634 949 602 925 c 10,10,-1
 329 716 l 1,11,-1
 329 149 l 9,12,-1
 847 149 l 26,13,14
 934 149 934 149 934 79 c 0,15,16
 934 0 934 0 849 0 c 2,17,-1
 254 0 l 26,18,19
 182 0 182 0 182 89 c 2,20,-1
 182 607 l 1,21,-1
 17 482 l 2,22,23
 -21 453 -21 453 -50 453 c 0,24,25
 -78 453 -78 453 -98 478 c 0,26,27
 -120 506 -120 506 -120 528 c 0,28,29
 -120 567 -120 567 -70 605 c 2,30,-1
 182 794 l 1,31,-1
 182 1432 l 10,32,33
 182 1514 182 1514 256 1514 c 24,34,35
 328 1514 328 1514 328 1434 c 18,0,-1
EndSplineSet
Validated: 1
EndChar

StartChar: lslash
Encoding: 322 322 171
Width: 600
VWidth: 0
Flags: W
HStem: 0 146<325.485 460.715> 1491 20G<207 280.5>
VStem: 167 147<151.561 770 1048 1505>
LayerCount: 2
Fore
SplineSet
167 1424 m 2,0,1
 167 1511 167 1511 247 1511 c 24,2,3
 314 1511 314 1511 314 1426 c 2,4,5
 314 1048 l 1,6,7
 423 1118 l 2,8,9
 449 1136 449 1136 473 1136 c 0,10,11
 506 1136 506 1136 530 1100 c 0,12,13
 544 1079 544 1079 544 1058 c 0,14,15
 544 1024 544 1024 501 995 c 2,16,-1
 314 868 l 1,17,-1
 314 259 l 2,18,19
 314 146 314 146 382 146 c 0,20,21
 465 146 465 146 465 75 c 16,22,23
 465 0 465 0 387 0 c 24,24,25
 298 0 298 0 228 70 c 24,26,27
 167 131 167 131 167 225 c 18,28,-1
 167 770 l 1,29,-1
 50 694 l 2,30,31
 32 681 32 681 10 681 c 0,32,33
 -27 681 -27 681 -49 724 c 0,34,35
 -60 746 -60 746 -60 765 c 0,36,37
 -60 798 -60 798 -21 823 c 10,38,-1
 167 950 l 1,39,-1
 167 1424 l 2,0,1
EndSplineSet
Validated: 1
EndChar

StartChar: OE
Encoding: 338 338 284
Width: 1444
VWidth: 0
Flags: W
HStem: 5 144<419.511 710 854 1338.46> 764 140<854 1190.51> 1370 145<427.852 710 854 1340.12>
VStem: 130 147<289.002 1226.36> 710 144<149 764 904 1367>
LayerCount: 2
Fore
SplineSet
710 148 m 25,0,-1
 710 1367 l 25,1,-1
 571 1367 l 0,2,3
 472 1367 472 1367 377 1290 c 0,4,5
 277 1209 277 1209 277 1064 c 2,6,7
 277 423 l 18,8,9
 277 315 277 315 377 225 c 0,10,11
 464 148 464 148 572 148 c 0,12,-1
 710 148 l 25,0,-1
576 5 m 9,13,14
 399 5 399 5 265 127 c 16,15,16
 130 250 130 250 130 428 c 2,17,-1
 130 1088 l 18,18,19
 130 1254 130 1254 261 1384 c 16,20,21
 393 1515 393 1515 583 1515 c 26,22,-1
 1263 1515 l 2,23,24
 1344 1515 1344 1515 1344 1442 c 24,25,26
 1344 1370 1344 1370 1263 1370 c 18,27,-1
 854 1370 l 1,28,-1
 854 904 l 1,29,-1
 1121 904 l 10,30,31
 1194 904 1194 904 1194 832 c 0,32,33
 1194 764 1194 764 1123 764 c 18,34,-1
 854 764 l 1,35,-1
 854 149 l 1,36,-1
 1268 149 l 10,37,38
 1342 149 1342 149 1342 77 c 280,39,40
 1342 5 1342 5 1271 5 c 25,41,-1
 576 5 l 9,13,14
EndSplineSet
Validated: 1
EndChar

StartChar: oe
Encoding: 339 339 283
Width: 1615
VWidth: 0
Flags: W
HStem: 0 142<376.774 639.994 925.307 1480.79> 461 143<880 1339> 908 146<365.839 640.339 978.506 1252.92>
VStem: 130 143<239.938 816.933> 733 145<233.822 461 604 807.501> 1339 143<604 819.402>
LayerCount: 2
Fore
SplineSet
733 684 m 10,0,1
 733 778 733 778 663 845 c 16,2,3
 597 908 597 908 494 908 c 0,4,5
 423 908 423 908 353 854 c 0,6,7
 273 792 273 792 273 671 c 2,8,-1
 273 364 l 2,9,10
 273 251 273 251 383 182 c 0,11,12
 447 142 447 142 511 142 c 0,13,14
 576 142 576 142 640 186 c 0,15,16
 733 250 733 250 733 380 c 2,17,-1
 733 684 l 10,0,1
880 604 m 1,18,-1
 1339 604 l 1,19,20
 1339 744 1339 744 1304 806 c 0,21,22
 1246 908 1246 908 1104 908 c 0,23,24
 1016 908 1016 908 938 828 c 0,25,26
 880 769 880 769 880 604 c 1,18,-1
878 461 m 17,27,-1
 878 316 l 2,28,29
 878 146 878 146 1051 146 c 2,30,-1
 1397 146 l 2,31,32
 1485 146 1485 146 1485 72 c 0,33,34
 1485 0 1485 0 1398 0 c 2,35,-1
 1030 0 l 2,36,37
 907 0 907 0 817 97 c 0,38,39
 804 111 804 111 792 126 c 1,40,41
 777 108 777 108 758 92 c 0,42,43
 649 0 649 0 504 0 c 0,44,45
 345 0 345 0 251 96 c 0,46,47
 130 219 130 219 130 371 c 2,48,-1
 130 698 l 2,49,50
 130 860 130 860 269 972 c 0,51,52
 371 1054 371 1054 493 1054 c 0,53,54
 657 1054 657 1054 767 950 c 0,55,56
 805 914 805 914 807 908 c 1,57,58
 822 927 822 927 864 966 c 0,59,60
 963 1058 963 1058 1112 1058 c 0,61,62
 1279 1058 1279 1058 1389 937 c 0,63,64
 1482 835 1482 835 1482 724 c 2,65,-1
 1482 534 l 2,66,67
 1482 461 1482 461 1415 461 c 2,68,-1
 878 461 l 17,27,-1
EndSplineSet
Validated: 2049
EndChar

StartChar: uni018F
Encoding: 399 399 538
Width: 1187
VWidth: 0
Flags: W
HStem: 0 148<441.187 759.316> 715 148<293 907> 1367 148<448.16 755.021>
VStem: 150 143<291.016 715> 907 145<298.641 715 863 1222.49>
LayerCount: 2
Back
SplineSet
297 423 m 18
 297 351 330.333 285 397 225 c 0
 455 173.667 520 148 592 148 c 0
 676 148 744.333 171.667 797 219 c 0
 871 285.667 908 363.333 908 452 c 2
 908 1060 l 26
 908 1157.33 873 1234.33 803 1291 c 0
 740.333 1341.67 669.667 1367 591 1367 c 0
 525 1367 460.333 1341.33 397 1290 c 0
 330.333 1236 297 1160.67 297 1064 c 2
 297 423 l 18
150 1088 m 18
 150 1198.67 193.667 1297.33 281 1384 c 16
 369 1471.33 476.333 1515 603 1515 c 24
 723.667 1515 827.667 1471.67 915 1385 c 16
 1007 1293.67 1053 1187.67 1053 1067 c 2
 1053 456 l 26
 1053 325.333 1007.33 215.667 916 127 c 0
 828.667 42.3333 722 3.8147e-06 596 0 c 24
 477.333 0 373.666 42.3333 285 127 c 16
 195 213.667 150 314 150 428 c 2
 150 1088 l 18
EndSplineSet
Fore
SplineSet
907 715 m 29,0,-1
 293 715 l 29,1,-1
 293 423 l 22,2,3
 293 317 293 317 396 225 c 4,4,5
 482 148 482 148 591 148 c 4,6,7
 717 148 717 148 796 219 c 4,8,9
 907 319 907 319 907 452 c 14,10,-1
 907 715 l 29,0,-1
396 1290 m 4,11,12
 332 1243 332 1243 304 1243 c 4,13,14
 271 1243 271 1243 261 1257 c 4,15,16
 241 1286 241 1286 241 1296 c 4,17,18
 241 1346 241 1346 280 1384 c 4,19,20
 416 1515 416 1515 602 1515 c 28,21,22
 779 1515 779 1515 914 1385 c 20,23,24
 1052 1252 1052 1252 1052 1067 c 6,25,-1
 1052 456 l 30,26,27
 1052 260 1052 260 915 127 c 4,28,29
 784 0 784 0 595 0 c 28,30,31
 415 0 415 0 284 127 c 20,32,33
 150 257 150 257 150 428 c 14,34,-1
 150 764 l 22,35,36
 150 863 150 863 230 863 c 14,37,-1
 907 863 l 29,38,-1
 907 1060 l 30,39,40
 907 1207 907 1207 802 1291 c 4,41,42
 707 1367 707 1367 590 1367 c 4,43,44
 501 1367 501 1367 396 1290 c 4,11,12
EndSplineSet
Validated: 1
EndChar

StartChar: uni019F
Encoding: 415 415 553
Width: 1203
VWidth: 0
HStem: 0 148<442.87 760.316> 684 144<297 908> 1367 148<443.736 757.192>
VStem: 150 147<289.002 684 828 1226.36> 908 145<298.641 684 828 1222>
LayerCount: 2
Fore
SplineSet
150 1088 m 2,0,1
 150 1254 150 1254 281 1384 c 0,2,3
 413 1515 413 1515 603 1515 c 0,4,5
 784 1515 784 1515 915 1385 c 0,6,7
 1053 1248 1053 1248 1053 1067 c 2,8,-1
 1053 456 l 2,9,10
 1053 260 1053 260 916 127 c 0,11,12
 785 0 785 0 596 0 c 0,13,14
 418 0 418 0 285 127 c 0,15,16
 150 257 150 257 150 428 c 2,17,-1
 150 1088 l 2,0,1
297 423 m 2,18,19
 297 315 297 315 397 225 c 0,20,21
 484 148 484 148 592 148 c 0,22,23
 718 148 718 148 797 219 c 0,24,25
 908 319 908 319 908 452 c 2,26,-1
 908 684 l 1,27,-1
 297 684 l 1,28,-1
 297 423 l 2,18,19
908 828 m 1,29,-1
 908 1060 l 2,30,31
 908 1206 908 1206 803 1291 c 0,32,33
 709 1367 709 1367 591 1367 c 0,34,35
 492 1367 492 1367 397 1290 c 0,36,37
 297 1209 297 1209 297 1064 c 2,38,-1
 297 828 l 1,39,-1
 908 828 l 1,29,-1
EndSplineSet
Validated: 2049
EndChar

StartChar: uni01A2
Encoding: 418 418 549
Width: 1509
VWidth: 0
Flags: W
HStem: 3 142<389.031 818> 1364 151<390.802 818 959 1172.53>
VStem: 150 146<239.75 1272.83> 818 141<145 1364> 1213 146<5.49316 1320.9>
LayerCount: 2
Fore
SplineSet
887 3 m 2,0,-1
 490 3 l 2,1,2
 352 3 352 3 232 136 c 0,3,4
 150 227 150 227 150 369 c 2,5,-1
 150 1152 l 2,6,7
 150 1296 150 1296 268 1413 c 0,8,9
 371 1515 371 1515 520 1515 c 2,10,-1
 1066 1515 l 2,11,12
 1187 1515 1187 1515 1285 1418 c 0,13,14
 1359 1345 1359 1345 1359 1226 c 2,15,-1
 1359 98 l 2,16,17
 1359 0 1359 0 1289 0 c 0,18,19
 1213 0 1213 0 1213 100 c 2,20,-1
 1213 1214 l 2,21,22
 1213 1287 1213 1287 1174 1322 c 1,23,24
 1127 1364 1127 1364 1071 1364 c 2,25,-1
 959 1364 l 1,26,-1
 959 87 l 2,27,28
 959 42 959 42 940 22 c 0,29,30
 922 3 922 3 887 3 c 2,0,-1
818 1364 m 1,31,-1
 519 1364 l 2,32,33
 435 1364 435 1364 356 1291 c 0,34,35
 296 1235 296 1235 296 1141 c 2,36,-1
 296 377 l 2,37,38
 296 283 296 283 359 215 c 0,39,40
 425 145 425 145 496 145 c 2,41,-1
 818 145 l 1,42,-1
 818 1364 l 1,31,-1
EndSplineSet
Validated: 1
EndChar

StartChar: uni01A3
Encoding: 419 419 550
Width: 1334
VWidth: 0
Flags: W
HStem: 4 147<320.666 645> 917 145<320.732 645 786 940.488>
VStem: 130 146<194.146 872.345> 645 141<151 917> 987 146<9.3833 871.578>
LayerCount: 2
Fore
SplineSet
645 917 m 5,0,-1
 454 917 l 6,1,2
 276 917 276 917 276 749 c 6,3,-1
 276 332 l 6,4,5
 276 151 276 151 444 151 c 6,6,-1
 645 151 l 5,7,-1
 645 917 l 5,0,-1
840 1062 m 6,8,9
 959 1062 959 1062 1059 963 c 4,10,11
 1133 890 1133 890 1133 771 c 6,12,-1
 1133 100 l 6,13,14
 1133 4 1133 4 1063 4 c 4,15,16
 987 4 987 4 987 102 c 6,17,-1
 987 759 l 6,18,19
 987 832 987 832 948 867 c 5,20,21
 897 917 897 917 845 917 c 6,22,-1
 786 917 l 5,23,-1
 786 89 l 6,24,25
 786 44 786 44 769 25 c 4,26,27
 749 4 749 4 705 4 c 6,28,-1
 419 4 l 6,29,30
 299 4 299 4 212 92 c 4,31,32
 130 175 130 175 130 296 c 6,33,-1
 130 753 l 6,34,35
 130 890 130 890 210 970 c 4,36,37
 302 1062 302 1062 440 1062 c 6,38,-1
 840 1062 l 6,8,9
EndSplineSet
Validated: 1
EndChar

StartChar: uni01B5
Encoding: 437 437 547
Width: 1106
VWidth: 0
Flags: W
HStem: 0 142<293 1001.66> 719 144<104.23 447 696 1001.5> 1365 145<107.438 809>
LayerCount: 2
Fore
SplineSet
293 142 m 1,0,-1
 928 142 l 2,1,2
 1006 142 1006 142 1006 67 c 0,3,4
 1006 0 1006 0 927 0 c 2,5,-1
 176 0 l 2,6,7
 100 0 100 0 100 72 c 0,8,9
 100 99 100 99 123 140 c 2,10,-1
 447 719 l 1,11,-1
 174 719 l 2,12,13
 100 719 100 719 100 794 c 0,14,15
 100 863 100 863 177 863 c 2,16,-1
 528 863 l 1,17,-1
 809 1365 l 1,18,-1
 186 1365 l 2,19,20
 102 1365 102 1365 102 1444 c 0,21,22
 102 1510 102 1510 189 1510 c 2,23,-1
 909 1510 l 2,24,25
 1003 1510 1003 1510 1003 1444 c 0,26,27
 1003 1414 1003 1414 987 1385 c 2,28,-1
 696 863 l 1,29,-1
 934 863 l 2,30,31
 1006 863 1006 863 1006 786 c 0,32,33
 1006 719 1006 719 929 719 c 2,34,-1
 615 719 l 1,35,-1
 293 142 l 1,0,-1
EndSplineSet
Validated: 1
EndChar

StartChar: uni01B6
Encoding: 438 438 548
Width: 950
VWidth: 0
Flags: W
HStem: 0 154<311 839.83> 453 144<104.23 331 605 845.5> 916 148<105.75 640>
LayerCount: 2
Fore
SplineSet
311 154 m 1,0,-1
 768 154 l 2,1,2
 846 154 846 154 846 69 c 0,3,4
 846 0 846 0 768 0 c 2,5,-1
 191 0 l 2,6,7
 100 0 100 0 100 80 c 0,8,9
 100 108 100 108 122 140 c 2,10,-1
 331 453 l 1,11,-1
 174 453 l 2,12,13
 100 453 100 453 100 528 c 0,14,15
 100 597 100 597 177 597 c 2,16,-1
 427 597 l 1,17,-1
 640 916 l 1,18,-1
 175 916 l 2,19,20
 101 916 101 916 101 987 c 0,21,22
 101 1064 101 1064 177 1064 c 2,23,-1
 748 1064 l 2,24,25
 850 1064 850 1064 850 990 c 0,26,27
 850 965 850 965 834 941 c 2,28,-1
 605 597 l 1,29,-1
 778 597 l 2,30,31
 850 597 850 597 850 520 c 0,32,33
 850 453 850 453 773 453 c 2,34,-1
 510 453 l 1,35,-1
 311 154 l 1,0,-1
EndSplineSet
Validated: 1
EndChar

StartChar: uni01CF
Encoding: 463 463 384
Width: 600
VWidth: 0
Flags: W
HStem: 0 21G<262 338> 1490 20G<262 338>
VStem: 224 152<5.27344 1504.89>
LayerCount: 2
Fore
SplineSet
300 0 m 152,-1,1
 224 0 224 0 224 94 c 26,2,-1
 224 1420 l 2,3,4
 224 1510 224 1510 300 1510 c 152,-1,5
 376 1510 376 1510 376 1417 c 26,6,-1
 376 96 l 2,7,0
 376 0 376 0 300 0 c 152,-1,1
472 1985 m 2,8,9
 498 2012 498 2012 526 2012 c 0,10,11
 558 2012 558 2012 580 1990 c 0,12,13
 600 1970 600 1970 600 1938 c 0,14,15
 600 1904 600 1904 558 1863 c 2,16,-1
 368 1674 l 26,17,18
 330 1637 330 1637 302 1637 c 24,19,20
 268 1637 268 1637 232 1674 c 2,21,-1
 22 1885 l 18,22,23
 0 1907 0 1907 0 1935 c 0,24,25
 0 1971 0 1971 24 1992 c 0,26,27
 44 2011 44 2011 74 2011 c 128,-1,28
 104 2011 104 2011 128 1986 c 2,29,-1
 302 1816 l 1,30,-1
 472 1985 l 2,8,9
EndSplineSet
Validated: 1
EndChar

StartChar: uni01D0
Encoding: 464 464 383
Width: 690
VWidth: 0
Flags: W
HStem: 0 21G<309.5 383> 1037 20G<309 382.5>
VStem: 272 147<4.61426 1052.77>
LayerCount: 2
Fore
SplineSet
419 986 m 2,0,-1
 419 84 l 2,1,2
 419 0 419 0 347 0 c 0,3,4
 272 0 272 0 272 82 c 2,5,-1
 272 980 l 18,6,7
 272 1057 272 1057 346 1057 c 0,8,9
 419 1057 419 1057 419 986 c 2,0,-1
517 1533 m 2,10,11
 543 1560 543 1560 571 1560 c 0,12,13
 603 1560 603 1560 625 1538 c 0,14,15
 645 1518 645 1518 645 1486 c 0,16,17
 645 1452 645 1452 603 1411 c 2,18,-1
 413 1222 l 26,19,20
 375 1185 375 1185 347 1185 c 24,21,22
 313 1185 313 1185 277 1222 c 2,23,-1
 67 1433 l 18,24,25
 45 1455 45 1455 45 1483 c 0,26,27
 45 1519 45 1519 69 1540 c 0,28,29
 89 1559 89 1559 119 1559 c 128,-1,30
 149 1559 149 1559 173 1534 c 2,31,-1
 347 1364 l 1,32,-1
 517 1533 l 2,10,11
EndSplineSet
Validated: 1
EndChar

StartChar: uni01F0
Encoding: 496 496 558
Width: 699
VWidth: 0
Flags: W
HStem: -456 145<-68.8252 175.757> 1034 20G<264.25 336.75>
VStem: 228 145<-258.341 1050.41>
LayerCount: 2
Fore
SplineSet
228 979 m 2,0,1
 228 1054 228 1054 300.5 1054 c 128,-1,2
 373 1054 373 1054 373 980 c 2,3,-1
 373 -171 l 2,4,5
 373 -280 373 -280 291 -363 c 0,6,7
 199 -456 199 -456 90 -456 c 2,8,-1
 3 -456 l 2,9,10
 -73 -456 -73 -456 -73 -382 c 0,11,12
 -73 -311 -73 -311 0 -311 c 2,13,-1
 85 -311 l 2,14,15
 135 -311 135 -311 185 -259 c 0,16,17
 228 -214 228 -214 228 -160 c 2,18,-1
 228 979 l 2,0,1
471 1510 m 2,19,20
 498 1539 498 1539 527 1539 c 0,21,22
 555 1539 555 1539 579 1517 c 0,23,24
 599 1499 599 1499 599 1465 c 0,25,26
 599 1432 599 1432 557 1390 c 2,27,-1
 367 1201 l 2,28,29
 330 1164 330 1164 303 1164 c 0,30,31
 270 1164 270 1164 233 1201 c 2,32,-1
 23 1412 l 2,33,34
 0 1435 0 1435 0 1462 c 0,35,36
 0 1504 0 1504 23 1519 c 0,37,38
 52 1538 52 1538 77 1538 c 0,39,40
 101 1538 101 1538 127 1511 c 2,41,-1
 303 1343 l 1,42,-1
 471 1510 l 2,19,20
EndSplineSet
Validated: 1
EndChar

StartChar: uni0228
Encoding: 552 552 433
Width: 2371
VWidth: 0
Flags: W
HStem: 0 21G<957.5 990.5> 1490 20G<184.5 256.5 964 994>
VStem: 150 144<8.10864 578 797 1505.88> 1693 144<417.504 913> 2133 138<716 1236.86>
LayerCount: 2
Fore
SplineSet
2133 716 m 1,0,-1
 2133 1164 l 2,1,2
 2133 1240 2133 1240 2202 1240 c 128,-1,3
 2271 1240 2271 1240 2271 1167 c 2,4,-1
 2271 495 l 2,5,6
 2271 412 2271 412 2205 412 c 0,7,8
 2188 412 2188 412 2167 427 c 0,9,10
 2144 442 2144 442 2129 466 c 2,11,-1
 1837 913 l 1,12,-1
 1837 493 l 2,13,14
 1837 413 1837 413 1761 413 c 0,15,16
 1693 413 1693 413 1693 495 c 2,17,-1
 1693 1149 l 2,18,19
 1693 1238 1693 1238 1765 1238 c 0,20,21
 1809 1238 1809 1238 1838 1192 c 2,22,-1
 2133 716 l 1,0,-1
219 3 m 0,23,24
 150 3 150 3 150 96 c 2,25,-1
 150 1444 l 2,26,27
 150 1510 150 1510 219 1510 c 0,28,29
 294 1510 294 1510 294 1435 c 2,30,-1
 294 797 l 1,31,-1
 914 1477 l 2,32,33
 949 1515 949 1515 979 1515 c 128,-1,34
 1009 1515 1009 1515 1031 1493.5 c 128,-1,35
 1053 1472 1053 1472 1053 1440 c 0,36,37
 1053 1425 1053 1425 1024 1392 c 2,38,-1
 600 911 l 1,39,-1
 1028 147 l 2,40,41
 1054 102 1054 102 1054 79 c 0,42,43
 1054 43 1054 43 1028 20 c 0,44,45
 1005 0 1005 0 976 0 c 0,46,47
 939 -0 939 -0 914 45 c 2,48,-1
 497 798 l 1,49,-1
 296 578 l 1,50,-1
 296 99 l 2,51,52
 296 3 296 3 219 3 c 0,23,24
EndSplineSet
Validated: 1
EndChar

StartChar: uni0229
Encoding: 553 553 434
Width: 1549
VWidth: 0
Flags: W
HStem: 415 142<347.267 610.744> 1090 144<342.518 606.298>
VStem: 100 143<654.938 995.457> 708 141<654.25 988.52>
LayerCount: 2
Fore
SplineSet
323 1033 m 4,0,1
 243 974 243 974 243 850 c 6,2,-1
 243 779 l 6,3,4
 243 666 243 666 353 597 c 4,5,6
 417 557 417 557 481 557 c 132,-1,7
 545 557 545 557 610 601 c 4,8,9
 708 667 708 667 708 810 c 6,10,-1
 708 829 l 6,11,12
 708 956 708 956 633 1024 c 4,13,14
 561 1090 561 1090 481 1090 c 132,-1,15
 401 1090 401 1090 323 1033 c 4,0,1
463 1234 m 4,16,17
 631 1234 631 1234 737 1129 c 4,18,19
 849 1018 849 1018 849 893 c 6,20,-1
 849 781 l 6,21,22
 849 612 849 612 728 507 c 4,23,24
 622 415 622 415 474 415 c 4,25,26
 317 415 317 415 221 511 c 4,27,28
 100 632 100 632 100 786 c 6,29,-1
 100 877 l 6,30,31
 100 1038 100 1038 239 1151 c 4,32,33
 341 1234 341 1234 463 1234 c 4,16,17
EndSplineSet
Validated: 1
EndChar

StartChar: uni023B
Encoding: 571 571 556
Width: 1799
VWidth: 0
Flags: W
LayerCount: 2
Fore
SplineSet
1531 700 m 5,0,-1
 1531 1148 l 6,1,2
 1531 1224 1531 1224 1600 1224 c 132,-1,3
 1669 1224 1669 1224 1669 1151 c 6,4,-1
 1669 479 l 6,5,6
 1669 396 1669 396 1603 396 c 4,7,8
 1586 396 1586 396 1565 411 c 4,9,10
 1540 429 1540 429 1527 450 c 6,11,-1
 1235 897 l 5,12,-1
 1235 477 l 6,13,14
 1235 397 1235 397 1159 397 c 4,15,16
 1091 397 1091 397 1091 479 c 6,17,-1
 1091 1133 l 6,18,19
 1091 1222 1091 1222 1163 1222 c 4,20,21
 1207 1222 1207 1222 1236 1176 c 6,22,-1
 1531 700 l 5,0,-1
295 1433 m 30,23,-1
 295 145 l 29,24,-1
 816 145 l 30,25,26
 907 145 907 145 907 72.5 c 132,-1,27
 907 0 907 0 813 0 c 6,28,-1
 221 0 l 30,29,30
 150 0 150 0 150 89 c 6,31,-1
 150 1433 l 30,32,33
 150 1510 150 1510 222.5 1510 c 156,-1,34
 295 1510 295 1510 295 1433 c 30,23,-1
EndSplineSet
Validated: 1
EndChar

StartChar: uni023C
Encoding: 572 572 557
Width: 949
VWidth: 0
Flags: W
HStem: 415 142<347.267 610.744> 1090 144<342.518 606.298>
VStem: 100 143<654.938 995.457> 708 141<654.25 988.52>
LayerCount: 2
Fore
SplineSet
323 1033 m 0,0,1
 243 974 243 974 243 850 c 2,2,-1
 243 779 l 2,3,4
 243 666 243 666 353 597 c 0,5,6
 417 557 417 557 481 557 c 128,-1,7
 545 557 545 557 610 601 c 0,8,9
 708 667 708 667 708 810 c 2,10,-1
 708 829 l 2,11,12
 708 956 708 956 633 1024 c 0,13,14
 561 1090 561 1090 481 1090 c 128,-1,15
 401 1090 401 1090 323 1033 c 0,0,1
463 1234 m 0,16,17
 631 1234 631 1234 737 1129 c 0,18,19
 849 1018 849 1018 849 893 c 2,20,-1
 849 781 l 2,21,22
 849 612 849 612 728 507 c 0,23,24
 622 415 622 415 474 415 c 0,25,26
 317 415 317 415 221 511 c 0,27,28
 100 632 100 632 100 786 c 2,29,-1
 100 877 l 2,30,31
 100 1038 100 1038 239 1151 c 0,32,33
 341 1234 341 1234 463 1234 c 0,16,17
EndSplineSet
Validated: 1
EndChar

StartChar: uni0259
Encoding: 601 601 537
Width: 1015
VWidth: 0
Flags: W
HStem: 0 148<365.288 634.356> 458 142<276 737> 916 146<134.834 695.415>
VStem: 133 143<242.844 458> 737 148<247.887 458 600 874.439>
LayerCount: 2
Fore
SplineSet
737 458 m 9,0,-1
 276 458 l 17,1,2
 276 302 276 302 326 234 c 0,3,4
 389 148 389 148 500 148 c 0,5,6
 603 148 603 148 685 236 c 0,7,8
 737 292 737 292 737 458 c 9,0,-1
885 364 m 2,9,10
 885 206 885 206 754 96 c 24,11,12
 640 0 640 0 503 0 c 0,13,14
 340 0 340 0 226 125 c 0,15,16
 133 227 133 227 133 338 c 2,17,-1
 133 528 l 2,18,19
 133 600 133 600 200 600 c 18,20,-1
 737 600 l 25,21,-1
 737 732 l 2,22,23
 737 916 737 916 581 916 c 26,24,-1
 218 916 l 26,25,26
 130 916 130 916 130 990 c 24,27,28
 130 1062 130 1062 217 1062 c 2,29,-1
 585 1062 l 2,30,31
 706 1062 706 1062 798 965 c 24,32,33
 885 873 885 873 885 746 c 26,34,35
 885 364 l 2,9,10
EndSplineSet
Validated: 1
EndChar

StartChar: uni0275
Encoding: 629 629 554
Width: 1009
VWidth: 0
Flags: W
HStem: 8 142<376.774 639.004> 454 144<273 738> 919 144<372.518 636.298>
VStem: 130 143<247.938 454 598 824.457> 738 141<247.732 454 598 817.52>
LayerCount: 2
Fore
SplineSet
353 862 m 0,0,1
 273 803 273 803 273 679 c 2,2,-1
 273 598 l 1,3,-1
 738 598 l 1,4,-1
 738 658 l 2,5,6
 738 785 738 785 663 853 c 0,7,8
 591 919 591 919 511 919 c 128,-1,9
 431 919 431 919 353 862 c 0,0,1
493 1063 m 0,10,11
 661 1063 661 1063 767 958 c 0,12,13
 879 847 879 847 879 722 c 2,14,-1
 879 374 l 2,15,16
 879 206 879 206 758 100 c 0,17,18
 653 8 653 8 504 8 c 0,19,20
 345 8 345 8 251 104 c 0,21,22
 130 227 130 227 130 379 c 2,23,-1
 130 706 l 2,24,25
 130 867 130 867 269 980 c 0,26,27
 371 1063 371 1063 493 1063 c 0,10,11
738 454 m 1,28,-1
 273 454 l 1,29,-1
 273 372 l 2,30,31
 273 259 273 259 383 190 c 0,32,33
 447 150 447 150 511 150 c 128,-1,34
 575 150 575 150 640 194 c 0,35,36
 738 260 738 260 738 403 c 2,37,-1
 738 454 l 1,28,-1
EndSplineSet
Validated: 2049
EndChar

StartChar: dotaccent
Encoding: 729 729 572
Width: 0
VWidth: 0
Flags: W
HStem: 1296 214<-385.156 -254.749>
VStem: -395 152<1302.25 1501.54>
LayerCount: 2
Fore
SplineSet
-395 1403 m 132,-1,1
 -395 1510 -395 1510 -325 1510 c 4,2,3
 -243 1510 -243 1510 -243 1396 c 4,4,5
 -243 1296 -243 1296 -320 1296 c 4,6,0
 -395 1296 -395 1296 -395 1403 c 132,-1,1
EndSplineSet
Validated: 1
EndChar

StartChar: ring
Encoding: 730 730 50
Width: 697
VWidth: 0
Flags: W
HStem: 1447 138<257.792 445.195> 1811 139<256.377 446.376>
VStem: 100 141<1601.58 1793.6> 462 135<1602.8 1794.87>
AnchorPoint: "above" 353 1280 basechar 0
LayerCount: 2
Fore
SplineSet
351.5 1811 m 128,-1,1
 241 1811 241 1811 241 1704 c 0,2,3
 241 1585 241 1585 351 1585 c 0,4,5
 462 1585 462 1585 462 1704 c 24,6,0
 462 1811 462 1811 351.5 1811 c 128,-1,1
348 1950 m 0,7,8
 597 1950 597 1950 597 1704 c 24,9,10
 597 1447 597 1447 348.5 1447 c 152,-1,11
 100 1447 100 1447 100 1700 c 24,12,13
 100 1950 100 1950 348 1950 c 0,7,8
EndSplineSet
Validated: 1
EndChar

StartChar: hungarumlaut
Encoding: 733 733 143
Width: 801
VWidth: 0
Flags: W
HStem: 1295 448
VStem: 96 601
LayerCount: 2
Fore
SplineSet
556 1828 m 2,0,1
 571 1892 571 1892 620 1892 c 0,2,3
 701 1892 701 1892 701 1830 c 0,4,5
 701 1807 701 1807 693 1772 c 2,6,-1
 630 1512 l 2,7,8
 614 1444 614 1444 566 1444 c 16,9,10
 485 1444 485 1444 485 1511 c 0,11,12
 485 1531 485 1531 489 1545 c 10,13,-1
 556 1828 l 2,0,1
176 1828 m 2,14,15
 192 1891 192 1891 245 1891 c 0,16,17
 323 1891 323 1891 323 1822 c 0,18,19
 323 1812 323 1812 317 1788 c 2,20,-1
 246 1508 l 2,21,22
 230 1444 230 1444 178 1444 c 0,23,24
 100 1444 100 1444 100 1509 c 0,25,26
 100 1525 100 1525 105 1545 c 10,27,-1
 176 1828 l 2,14,15
EndSplineSet
Validated: 1
EndChar

StartChar: acutecomb
Encoding: 769 769 49
Width: 646
VWidth: 0
Flags: W
HStem: 1391 374
VStem: 100 446
LayerCount: 2
Fore
SplineSet
417 1740 m 2,0,1
 449 1765 449 1765 470 1765 c 0,2,3
 546 1765 546 1765 546 1686 c 0,4,5
 546 1654 546 1654 508 1626 c 2,6,-1
 223 1411 l 2,7,8
 194 1391 194 1391 168 1391 c 0,9,10
 100 1391 100 1391 100 1466 c 0,11,12
 100 1503 100 1503 136 1529 c 26,13,-1
 417 1740 l 2,0,1
EndSplineSet
Validated: 1
EndChar

StartChar: uni0302
Encoding: 770 770 56
Width: 798
VWidth: 0
Flags: W
LayerCount: 2
Fore
SplineSet
557 1474 m 6,0,1
 402 1632 l 5,2,-1
 244 1479 l 6,3,4
 202 1438 202 1438 173 1438 c 20,5,6
 100 1438 100 1438 100 1503 c 4,7,8
 100 1534 100 1534 134 1569 c 14,9,-1
 332 1773 l 6,10,11
 368 1810 368 1810 402 1810 c 28,12,13
 430 1810 430 1810 467 1773 c 30,14,-1
 662 1577 l 6,15,16
 698 1541 698 1541 698 1505 c 4,17,18
 698 1438 698 1438 622 1438 c 4,19,20
 591 1438 591 1438 557 1474 c 6,0,1
EndSplineSet
Validated: 1
EndChar

StartChar: uni0304
Encoding: 772 772 202
Width: 1006
VWidth: 0
Flags: W
HStem: 1822 144<4.1748 901.77>
LayerCount: 2
Fore
SplineSet
76 1592 m 22,0,1
 828 1592 l 14,2,3
 906 1592 906 1592 906 1522 c 28,4,5
 906 1448 906 1448 829 1448 c 6,6,-1
 74 1448 l 14,7,8
 0 1448 0 1448 0 1524 c 28,9,10
 0 1592 0 1592 76 1592 c 22,0,1
EndSplineSet
Validated: 1
EndChar

StartChar: uni0306
Encoding: 774 774 148
Width: 804
VWidth: 0
Flags: W
HStem: 1756 150<296.047 494.807>
VStem: 100 149<1953 2124.19> 554 150<1947.96 2123.07>
LayerCount: 2
Fore
SplineSet
249 1728 m 12,0,1
 249 1657 249 1657 303 1617 c 4,2,3
 353 1580 353 1580 399 1580 c 4,4,5
 458 1580 458 1580 496 1610 c 4,6,7
 554 1656 554 1656 554 1721 c 20,8,9
 554 1803 554 1803 635 1803 c 28,10,11
 704 1803 704 1803 704 1719 c 4,12,13
 704 1597 704 1597 618 1518 c 28,14,15
 522 1430 522 1430 397 1430 c 28,16,17
 261 1430 261 1430 177 1532 c 4,18,19
 100 1626 100 1626 100 1732 c 28,20,21
 100 1803 100 1803 183 1803 c 28,22,23
 249 1803 249 1803 249 1728 c 12,0,1
EndSplineSet
Validated: 1
EndChar

StartChar: uni0307
Encoding: 775 775 573
Width: 0
VWidth: 0
Flags: W
HStem: 1296 214<-385.156 -254.749>
VStem: -395 152<1302.25 1501.54>
LayerCount: 2
Fore
SplineSet
-609 1739 m 132,-1,1
 -609 1846 -609 1846 -539 1846 c 4,2,3
 -457 1846 -457 1846 -457 1732 c 4,4,5
 -457 1632 -457 1632 -534 1632 c 4,6,0
 -609 1632 -609 1632 -609 1739 c 132,-1,1
EndSplineSet
Validated: 1
EndChar

StartChar: uni0308
Encoding: 776 776 54
Width: 808
VWidth: 0
Flags: W
HStem: 1442 214<109.984 241.251 565.844 697.172>
VStem: 100 153<1448.25 1647.54> 556 152<1448.38 1649.46>
LayerCount: 2
Fore
SplineSet
556 1550 m 132,-1,1
 556 1658 556 1658 626 1658 c 4,2,3
 708 1658 708 1658 708 1544 c 4,4,5
 708 1442 708 1442 631 1442 c 4,6,0
 556 1442 556 1442 556 1550 c 132,-1,1
100 1549 m 128,-1,8
 100 1656 100 1656 171 1656 c 0,9,10
 253 1656 253 1656 253 1542 c 0,11,12
 253 1442 253 1442 176 1442 c 0,13,7
 100 1442 100 1442 100 1549 c 128,-1,8
EndSplineSet
Validated: 1
EndChar

StartChar: hookabovecomb
Encoding: 777 777 488
Width: 951
VWidth: 2456
Flags: W
HStem: 1792 134<403.463 542.136>
VStem: 262 136<1678.19 1786.56> 417 134<1364.89 1467> 544 135<1637.56 1789.42>
AnchorPoint: "above" 484 1170 mark 0
LayerCount: 2
Fore
SplineSet
262 1675 m 0,0,1
 262 1738 262 1738 350 1820 c 24,2,3
 392 1860 392 1860 482 1860 c 0,4,5
 557 1860 557 1860 624 1798 c 24,6,7
 679 1747 679 1747 679 1667 c 24,8,9
 679 1607 679 1607 635 1534 c 26,10,-1
 551 1401 l 9,11,-1
 551 1371 l 26,12,13
 551 1296 551 1296 483 1296 c 0,14,15
 417 1296 417 1296 417 1366 c 26,16,17
 417 1418 l 26,18,19
 417 1439 417 1439 438 1467 c 26,20,-1
 520 1606 l 26,21,22
 544 1645 544 1645 544 1667 c 0,23,24
 544 1726 544 1726 476 1726 c 0,25,26
 412 1726 412 1726 398 1667 c 128,-1,27
 384 1608 384 1608 327 1608 c 24,28,29
 262 1608 262 1608 262 1675 c 0,0,1
EndSplineSet
Validated: 1
EndChar

StartChar: uni030C
Encoding: 780 780 52
Width: 799
VWidth: 0
Flags: W
HStem: 1434 375
VStem: 100 599<1704 1767>
LayerCount: 2
Fore
SplineSet
571 1782 m 2,0,1
 598 1809 598 1809 626 1809 c 0,2,3
 657 1809 657 1809 679 1787 c 0,4,5
 699 1767 699 1767 699 1735 c 0,6,7
 699 1701 699 1701 657 1660 c 2,8,-1
 467 1471 l 26,9,10
 430 1434 430 1434 402 1434 c 24,11,12
 369 1434 369 1434 332 1471 c 2,13,-1
 122 1682 l 18,14,15
 100 1704 100 1704 100 1732 c 0,16,17
 100 1768 100 1768 123 1789 c 0,18,19
 144 1808 144 1808 174 1808 c 0,20,21
 203 1808 203 1808 227 1783 c 2,22,-1
 402 1613 l 1,23,-1
 571 1782 l 2,0,1
EndSplineSet
Validated: 1
EndChar

StartChar: uni031B
Encoding: 795 795 513
Width: 1009
VWidth: 0
Flags: W
HStem: 584 132<476.696 621.41>
VStem: 320 127<732.691 827.319> 634 133<723.041 1063.12>
AnchorPoint: "above" 384 772 mark 0
LayerCount: 2
Fore
SplineSet
320 767 m 0,0,1
 320 782 320 782 336 807 c 0,2,3
 351 830 351 830 385 830 c 0,4,5
 437 830 437 830 447 792 c 128,-1,6
 457 754 457 754 490 732 c 24,7,8
 514 716 514 716 558 716 c 0,9,10
 634 716 634 716 634 842 c 26,11,-1
 634 898 l 26,12,13
 634 980 634 980 700.5 980 c 128,-1,14
 767 980 767 980 767 900 c 26,15,-1
 767 816 l 26,16,17
 767 708 767 708 701 640 c 24,18,19
 647 584 647 584 543 584 c 0,20,21
 440 584 440 584 388 644 c 0,22,23
 320 722 320 722 320 767 c 0,0,1
EndSplineSet
Validated: 1
EndChar

StartChar: uni0321
Encoding: 801 801 539
Width: 128
VWidth: 0
Flags: W
HStem: -377 140<-268.268 -102.347> -21 20G<-43 33>
VStem: -85 152<-220.291 -10.6504>
AnchorPoint: "above" -6.79999 -70 mark 0
LayerCount: 2
Fore
SplineSet
-85 -122 m 0,0,1
 -85 -1 -85 -1 -1 -1 c 24,2,3
 67 -1 67 -1 67 -123 c 0,4,5
 67 -229 67 -229 -18 -312 c 24,6,7
 -85 -377 -85 -377 -189 -377 c 24,8,9
 -272 -377 -272 -377 -272 -309 c 24,10,11
 -272 -237 -272 -237 -194 -237 c 0,12,13
 -85 -237 -85 -237 -85 -122 c 0,0,1
EndSplineSet
Validated: 1
EndChar

StartChar: uni0327
Encoding: 807 807 154
Width: 418
VWidth: 0
Flags: W
HStem: -299 450<181.016 237.089>
VStem: 100 218
LayerCount: 2
Fore
SplineSet
177 94 m 6,0,1
 191 151 191 151 238 151 c 4,2,3
 258 151 258 151 280 141 c 4,4,5
 318 124 318 124 318 81 c 4,6,7
 318 66 318 66 313 48 c 6,8,9
 242 -238 l 6,10,11
 227 -299 227 -299 177 -299 c 4,12,13
 162 -299 162 -299 142 -293 c 4,14,15
 100 -280 100 -280 100 -232 c 4,16,17
 100 -218 100 -218 104 -202 c 14,18,19
 177 94 l 6,0,1
EndSplineSet
Validated: 1
EndChar

StartChar: uni0328
Encoding: 808 808 165
Width: 548
VWidth: 0
Flags: W
LayerCount: 2
Fore
SplineSet
369 148 m 24,0,1
 448 148 448 148 448 72 c 24,2,3
 448 0 448 0 361 0 c 0,4,5
 252 0 252 0 252 -119 c 4,6,7
 252 -234 252 -234 361 -234 c 4,8,9
 439 -234 439 -234 439 -306 c 28,10,11
 439 -374 439 -374 356 -374 c 28,12,13
 254 -374 254 -374 185 -309 c 28,14,15
 100 -229 100 -229 100 -120 c 156,-1,16
 100 -11 100 -11 174 67 c 24,17,18
 251 148 251 148 369 148 c 24,0,1
EndSplineSet
Validated: 1
EndChar

StartChar: tonos
Encoding: 900 900 323
Width: 423
VWidth: 0
Flags: W
LayerCount: 2
Fore
SplineSet
176 1817 m 2,0,1
 192 1880 192 1880 245 1880 c 0,2,3
 323 1880 323 1880 323 1811 c 0,4,5
 323 1801 323 1801 317 1777 c 2,6,-1
 246 1497 l 2,7,8
 230 1433 230 1433 178 1433 c 0,9,10
 100 1433 100 1433 100 1498 c 0,11,12
 100 1514 100 1514 105 1534 c 10,13,-1
 176 1817 l 2,0,1
EndSplineSet
Validated: 1
EndChar

StartChar: dieresistonos
Encoding: 901 901 329
Width: 808
VWidth: 0
Flags: W
LayerCount: 2
Fore
SplineSet
411 2072 m 2,0,1
 427 2135 427 2135 480 2135 c 0,2,3
 558 2135 558 2135 558 2066 c 0,4,5
 558 2056 558 2056 552 2032 c 2,6,-1
 481 1752 l 2,7,8
 465 1688 465 1688 413 1688 c 0,9,10
 335 1688 335 1688 335 1753 c 0,11,12
 335 1769 335 1769 340 1789 c 10,13,-1
 411 2072 l 2,0,1
556 1550 m 128,-1,15
 556 1658 556 1658 626 1658 c 0,16,17
 708 1658 708 1658 708 1544 c 0,18,19
 708 1442 708 1442 631 1442 c 0,20,14
 556 1442 556 1442 556 1550 c 128,-1,15
100 1549 m 128,-1,22
 100 1656 100 1656 171 1656 c 0,23,24
 253 1656 253 1656 253 1542 c 0,25,26
 253 1442 253 1442 176 1442 c 0,27,21
 100 1442 100 1442 100 1549 c 128,-1,22
EndSplineSet
Validated: 2049
EndChar

StartChar: Alpha
Encoding: 913 913 298
Width: 1258
VWidth: 2456
Flags: W
LayerCount: 2
Fore
SplineSet
564 1455 m 10,0,1
 582 1510 582 1510 634 1510 c 24,2,3
 684 1510 684 1510 702 1455 c 18,4,-1
 1149 111 l 18,5,6
 1158 84 1158 84 1158 67 c 0,7,8
 1158 8 1158 8 1086 0 c 1,9,10
 1033 0 1033 0 1011 66 c 2,11,12
 909 382 l 1,13,-1
 355 382 l 1,14,-1
 246 58 l 2,15,16
 225 -3 225 -3 178 -3 c 0,17,18
 100 -3 100 -3 100 70 c 16,19,20
 100 80 100 80 122 145 c 10,21,-1
 564 1455 l 10,0,1
630 1206 m 25,22,-1
 400 523 l 25,23,-1
 861 523 l 25,24,-1
 630 1206 l 25,22,-1
EndSplineSet
Validated: 1
EndChar

StartChar: Gamma
Encoding: 915 915 312
Width: 1080
VWidth: 0
Flags: W
HStem: 0 21G<186.25 258.75> 1365 145<295 975.502>
VStem: 150 145<3.68457 1365>
LayerCount: 2
Fore
SplineSet
295 77 m 26,0,1
 295 0 295 0 222.5 0 c 152,-1,2
 150 0 150 0 150 77 c 26,3,-1
 150 1421 l 2,4,5
 150 1510 150 1510 221 1510 c 26,6,7
 886 1510 l 2,8,9
 980 1510 980 1510 980 1437.5 c 128,-1,10
 980 1365 980 1365 889 1365 c 26,11,-1
 295 1365 l 25,12,-1
 295 77 l 26,0,1
EndSplineSet
Validated: 1
EndChar

StartChar: Delta
Encoding: 916 916 311
Width: 1259
VWidth: 0
Flags: W
HStem: 0 150<273 985> 1490 20G<605.5 658.5>
LayerCount: 2
Fore
SplineSet
1085 0 m 10,0,1
 179 0 l 18,2,3
 100 0 100 0 100 69 c 0,4,5
 100 84 100 84 106 102 c 10,6,-1
 559 1444 l 2,7,8
 581 1510 581 1510 630 1510 c 24,9,10
 687 1510 687 1510 709 1442 c 26,11,-1
 1150 116 l 2,12,13
 1159 89 1159 89 1159 70 c 0,14,15
 1159 -0 1159 -0 1085 0 c 10,0,1
985 150 m 17,16,-1
 628 1210 l 1,17,-1
 273 150 l 1,18,-1
 985 150 l 17,16,-1
EndSplineSet
Validated: 1
EndChar

StartChar: Epsilon
Encoding: 917 917 299
Width: 1003
VWidth: 0
Flags: W
LayerCount: 2
Fore
SplineSet
294 149 m 1,0,-1
 827 149 l 10,1,2
 901 149 901 149 901 77 c 280,3,4
 901 5 901 5 830 5 c 26,5,-1
 216 5 l 2,6,7
 150 5 150 5 150 80 c 26,8,-1
 150 1437 l 2,9,10
 150 1515 150 1515 239 1515 c 26,11,-1
 822 1515 l 2,12,13
 903 1515 903 1515 903 1442 c 24,14,15
 903 1370 903 1370 822 1370 c 18,16,-1
 294 1370 l 1,17,-1
 294 904 l 1,18,-1
 680 904 l 10,19,20
 753 904 753 904 753 832 c 0,21,22
 753 764 753 764 682 764 c 18,23,-1
 294 764 l 1,24,-1
 294 149 l 1,0,-1
EndSplineSet
Validated: 1
EndChar

StartChar: Zeta
Encoding: 918 918 300
Width: 1106
VWidth: 0
Flags: W
LayerCount: 2
Fore
SplineSet
293 142 m 5,0,-1
 928 142 l 6,1,2
 1006 142 1006 142 1006 67 c 28,3,4
 1006 0 1006 0 927 0 c 30,5,-1
 176 0 l 6,6,7
 100 0 100 0 100 72 c 4,8,9
 100 99 100 99 123 140 c 22,10,-1
 809 1365 l 5,11,-1
 186 1365 l 14,12,13
 102 1365 102 1365 102 1444 c 28,14,15
 102 1510 102 1510 189 1510 c 30,16,-1
 909 1510 l 6,17,18
 1003 1510 1003 1510 1003 1444 c 4,19,20
 1003 1414 1003 1414 987 1385 c 6,21,-1
 293 142 l 5,0,-1
EndSplineSet
Validated: 1
EndChar

StartChar: Theta
Encoding: 920 920 296
Width: 1203
VWidth: 0
Flags: W
HStem: 0 148<442.87 760.316> 684 144<457.23 741.5> 1367 148<443.736 757.192>
VStem: 150 147<289.002 1226.36> 453 293<688.188 823.688> 908 145<298.641 1222>
LayerCount: 2
Fore
SplineSet
530 828 m 18,0,1
 674 828 l 10,2,3
 746 828 746 828 746 751 c 24,4,5
 746 684 746 684 669 684 c 2,6,-1
 527 684 l 10,7,8
 453 684 453 684 453 759 c 24,9,10
 453 828 453 828 530 828 c 18,0,1
297 423 m 18,11,12
 297 315 297 315 397 225 c 0,13,14
 484 148 484 148 592 148 c 0,15,16
 718 148 718 148 797 219 c 0,17,18
 908 319 908 319 908 452 c 2,19,-1
 908 1060 l 26,20,21
 908 1206 908 1206 803 1291 c 0,22,23
 709 1367 709 1367 591 1367 c 0,24,25
 492 1367 492 1367 397 1290 c 0,26,27
 297 1209 297 1209 297 1064 c 2,28,-1
 297 423 l 18,11,12
150 1088 m 18,29,30
 150 1254 150 1254 281 1384 c 16,31,32
 413 1515 413 1515 603 1515 c 24,33,34
 784 1515 784 1515 915 1385 c 16,35,36
 1053 1248 1053 1248 1053 1067 c 2,37,-1
 1053 456 l 26,38,39
 1053 260 1053 260 916 127 c 0,40,41
 785 0 785 0 596 0 c 24,42,43
 418 0 418 0 285 127 c 16,44,45
 150 257 150 257 150 428 c 2,46,-1
 150 1088 l 18,29,30
EndSplineSet
Validated: 2049
EndChar

StartChar: Iota
Encoding: 921 921 302
Width: 452
VWidth: 2456
Flags: W
LayerCount: 2
Fore
SplineSet
226 0 m 152,-1,1
 150 0 150 0 150 94 c 26,2,-1
 150 1420 l 2,3,4
 150 1510 150 1510 226 1510 c 152,-1,5
 302 1510 302 1510 302 1417 c 26,6,-1
 302 96 l 2,7,0
 302 0 302 0 226 0 c 152,-1,1
EndSplineSet
Validated: 1
EndChar

StartChar: Kappa
Encoding: 922 922 303
Width: 1155
VWidth: 0
Flags: W
LayerCount: 2
Fore
SplineSet
219 3 m 0,0,1
 150 3 150 3 150 96 c 2,2,-1
 150 1444 l 2,3,4
 150 1510 150 1510 219 1510 c 0,5,6
 294 1510 294 1510 294 1435 c 2,7,-1
 294 797 l 1,8,-1
 914 1477 l 2,9,10
 949 1515 949 1515 979 1515 c 128,-1,11
 1009 1515 1009 1515 1031 1490 c 24,12,13
 1052 1466 1052 1466 1052 1438 c 0,14,15
 1052 1412 1052 1412 1016 1372 c 2,16,-1
 600 911 l 1,17,-1
 1036 124 l 2,18,19
 1055 90 1055 90 1055 74 c 0,20,21
 1055 43 1055 43 1028 20 c 24,22,23
 1005 0 1005 0 976 0 c 0,24,25
 939 0 939 0 914 45 c 2,26,-1
 497 798 l 25,27,-1
 296 578 l 1,28,-1
 296 99 l 2,29,30
 296 3 296 3 219 3 c 0,0,1
EndSplineSet
Validated: 1
EndChar

StartChar: Lambda
Encoding: 923 923 297
Width: 1259
VWidth: 0
Flags: W
HStem: 0 21G<1060 1122> 1490 20G<606 658.5>
VStem: 100 148<9.72876 74> 1013 146<6.16943 66>
LayerCount: 2
Fore
SplineSet
628 1210 m 25,0,-1
 248 74 l 10,1,2
 225 4 225 4 179 4 c 0,3,4
 100 4 100 4 100 69 c 0,5,6
 100 84 100 84 106 102 c 10,7,-1
 559 1444 l 2,8,9
 582 1510 582 1510 630 1510 c 24,10,11
 687 1510 687 1510 709 1442 c 26,12,-1
 1150 116 l 2,13,14
 1159 89 1159 89 1159 70 c 0,15,16
 1159 0 1159 0 1085 0 c 0,17,18
 1035 0 1035 0 1013 66 c 18,19,-1
 628 1210 l 25,0,-1
EndSplineSet
Validated: 1
EndChar

StartChar: Mu
Encoding: 924 924 304
Width: 1364
VWidth: 0
Flags: W
LayerCount: 2
Fore
SplineSet
1074 1472 m 6,0,1
 1098 1510 1098 1510 1138 1510 c 4,2,3
 1214 1510 1214 1510 1214 1430 c 6,4,-1
 1214 99 l 30,5,6
 1214 0 1214 0 1140 0 c 132,-1,7
 1066 0 1066 0 1066 99 c 6,8,-1
 1066 1172 l 13,9,-1
 754 664 l 6,10,11
 716 601 716 601 678 601 c 132,-1,12
 640 601 640 601 604 662 c 6,13,-1
 298 1170 l 13,14,-1
 298 94 l 30,15,16
 298 0 298 0 221 0 c 28,17,18
 150 0 150 0 150 92 c 6,19,-1
 150 1431 l 6,20,21
 150 1510 150 1510 226 1510 c 4,22,23
 265 1510 265 1510 288 1475 c 6,24,-1
 674 824 l 29,25,-1
 1074 1472 l 6,0,1
EndSplineSet
Validated: 1
EndChar

StartChar: Nu
Encoding: 925 925 305
Width: 1202
VWidth: 0
Flags: W
LayerCount: 2
Fore
SplineSet
914 357 m 29,0,-1
 914 1439 l 6,1,2
 914 1515 914 1515 983 1515 c 132,-1,3
 1052 1515 1052 1515 1052 1442 c 6,4,-1
 1052 89 l 30,5,6
 1052 6 1052 6 986 6 c 4,7,8
 940 6 940 6 910 60 c 30,9,-1
 294 1159 l 13,10,-1
 294 89 l 30,11,12
 294 9 294 9 218 9 c 28,13,14
 150 9 150 9 150 91 c 6,15,-1
 150 1426 l 30,16,17
 150 1515 150 1515 222 1515 c 4,18,19
 269 1515 269 1515 295 1469 c 14,20,-1
 914 357 l 29,0,-1
EndSplineSet
Validated: 1
EndChar

StartChar: Xi
Encoding: 926 926 313
Width: 1100
VWidth: 0
Flags: W
HStem: 0 144<104.23 995.5> 686 144<333.23 771.5> 1370 144<104.23 995.5>
VStem: 329 447<690.188 825.688>
LayerCount: 2
Fore
SplineSet
406 830 m 18,0,1
 704 830 l 10,2,3
 776 830 776 830 776 753 c 24,4,5
 776 686 776 686 699 686 c 2,6,-1
 403 686 l 10,7,8
 329 686 329 686 329 761 c 24,9,10
 329 830 329 830 406 830 c 18,0,1
177 1514 m 18,11,-1
 928 1514 l 10,12,13
 1000 1514 1000 1514 1000 1437 c 24,14,15
 1000 1370 1000 1370 923 1370 c 2,16,-1
 174 1370 l 10,17,18
 100 1370 100 1370 100 1445 c 24,19,20
 100 1514 100 1514 177 1514 c 18,11,-1
177 144 m 18,21,-1
 928 144 l 10,22,23
 1000 144 1000 144 1000 67 c 24,24,25
 1000 0 1000 0 923 0 c 2,26,-1
 174 0 l 10,27,28
 100 0 100 0 100 75 c 24,29,30
 100 144 100 144 177 144 c 18,21,-1
EndSplineSet
Validated: 2049
EndChar

StartChar: Omicron
Encoding: 927 927 306
Width: 1203
VWidth: 0
Flags: W
LayerCount: 2
Fore
SplineSet
297 423 m 22,0,1
 297 315 297 315 397 225 c 4,2,3
 484 148 484 148 592 148 c 4,4,5
 718 148 718 148 797 219 c 4,6,7
 908 319 908 319 908 452 c 6,8,-1
 908 1060 l 30,9,10
 908 1206 908 1206 803 1291 c 4,11,12
 709 1367 709 1367 591 1367 c 4,13,14
 492 1367 492 1367 397 1290 c 4,15,16
 297 1209 297 1209 297 1064 c 6,17,-1
 297 423 l 22,0,1
150 1088 m 22,18,19
 150 1254 150 1254 281 1384 c 20,20,21
 413 1515 413 1515 603 1515 c 28,22,23
 784 1515 784 1515 915 1385 c 20,24,25
 1053 1248 1053 1248 1053 1067 c 6,26,-1
 1053 456 l 30,27,28
 1053 260 1053 260 916 127 c 4,29,30
 785 0 785 0 596 0 c 28,31,32
 418 0 418 0 285 127 c 20,33,34
 150 257 150 257 150 428 c 6,35,-1
 150 1088 l 22,18,19
EndSplineSet
Validated: 1
EndChar

StartChar: Pi
Encoding: 928 928 314
Width: 1210
VWidth: 2456
Flags: W
HStem: 1370 150<300 910>
VStem: 150 150<9.875 1370> 910 150<10.5 1370>
LayerCount: 2
Fore
SplineSet
236 1520 m 10,0,1
 988 1520 l 2,2,3
 1060 1520 1060 1520 1060 1440 c 10,4,-1
 1060 93 l 2,5,6
 1060 5 1060 5 983 5 c 0,7,8
 910 5 910 5 910 83 c 2,9,-1
 910 1370 l 0,10,-1
 300 1370 l 0,11,-1
 300 83 l 2,12,13
 300 5 300 5 220 5 c 0,14,15
 150 5 150 5 150 83 c 2,16,-1
 150 1437 l 2,17,18
 150 1520 150 1520 236 1520 c 10,0,1
EndSplineSet
Validated: 1
EndChar

StartChar: Rho
Encoding: 929 929 307
Width: 1152
VWidth: 0
Flags: W
LayerCount: 2
Fore
SplineSet
298 1366 m 5,0,1
 298 755 l 5,2,-1
 630 755 l 6,3,4
 731 755 731 755 820 844 c 4,5,6
 908 932 908 932 908 1062 c 132,-1,7
 908 1192 908 1192 819.5 1279 c 132,-1,8
 731 1366 731 1366 588 1366 c 6,9,-1
 298 1366 l 5,0,1
298 88 m 22,10,11
 298 5 298 5 224 5 c 132,-1,12
 150 5 150 5 150 90 c 6,13,-1
 150 1431 l 6,14,15
 150 1510 150 1510 232 1510 c 6,16,-1
 619 1510 l 22,17,18
 806 1510 806 1510 940 1360 c 4,19,20
 1052 1235 1052 1235 1052 1086 c 4,21,22
 1052 904 1052 904 974 800 c 4,23,24
 829 607 829 607 630 607 c 30,25,-1
 298 607 l 29,26,-1
 298 88 l 22,10,11
EndSplineSet
Validated: 1
EndChar

StartChar: Sigma
Encoding: 931 931 315
Width: 1098
VWidth: 0
Flags: W
HStem: 0 144<293 992.459> 1365 145<293 994.124>
LayerCount: 2
Fore
SplineSet
557 755 m 1,0,-1
 293 144 l 1,1,-1
 922 144 l 10,2,3
 996 144 996 144 996 72 c 280,4,5
 996 0 996 0 925 0 c 26,6,-1
 172 0 l 2,7,8
 101 0 101 0 101 59 c 0,9,10
 101 93 101 93 114 122 c 2,11,-1
 395 751 l 1,12,-1
 117 1379 l 2,13,14
 100 1419 100 1419 100 1447 c 0,15,16
 100 1510 100 1510 195 1510 c 10,17,-1
 917 1510 l 2,18,19
 998 1510 998 1510 998 1437 c 24,20,21
 998 1365 998 1365 917 1365 c 18,22,-1
 293 1365 l 1,23,-1
 557 755 l 1,0,-1
EndSplineSet
Validated: 1
EndChar

StartChar: Tau
Encoding: 932 932 308
Width: 1101
VWidth: 0
Flags: W
LayerCount: 2
Fore
SplineSet
100 1446 m 0,0,1
 100 1515 100 1515 188 1515 c 2,2,-1
 929 1515 l 18,3,4
 1001 1515 1001 1515 1001 1443 c 0,5,6
 1001 1370 1001 1370 931 1370 c 2,7,-1
 624 1370 l 1,8,-1
 624 79 l 10,9,10
 624 0 624 0 551 0 c 280,11,12
 478 0 478 0 478 77 c 18,13,-1
 478 1370 l 1,14,-1
 186 1370 l 2,15,16
 100 1370 100 1370 100 1446 c 0,0,1
EndSplineSet
Validated: 1
EndChar

StartChar: Upsilon
Encoding: 933 933 309
Width: 1258
VWidth: 0
Flags: W
LayerCount: 2
Fore
SplineSet
559 761 m 5,0,1
 116 1392 l 6,2,3
 100 1415 100 1415 100 1438 c 4,4,5
 100 1510 100 1510 179 1510 c 12,6,7
 214 1510 214 1510 243 1466 c 22,8,-1
 629 906 l 5,9,-1
 1019 1475 l 14,10,11
 1045 1510 1045 1510 1082 1510 c 4,12,13
 1158 1510 1158 1510 1158 1442 c 4,14,15
 1158 1417 1158 1417 1139 1388 c 6,16,-1
 702 757 l 5,17,-1
 702 85 l 14,18,19
 702 0 702 0 632 0 c 28,20,21
 559 0 559 0 559 87 c 22,22,-1
 559 761 l 5,0,1
EndSplineSet
Validated: 1
EndChar

StartChar: Phi
Encoding: 934 934 316
Width: 1416
VWidth: 0
Flags: W
HStem: 0 149<333.944 633> 235 157<448.868 633 792 973.235> 1147 155<456.768 633 792 967.367> 1370 148<791 1082.17>
VStem: 100 154<585.82 955.436> 633 158<149 235 392 1147 1302 1370> 1165 151<594.453 951.307>
LayerCount: 2
Fore
SplineSet
633 1437 m 26,0,1
 633 1518 633 1518 711 1518 c 26,2,-1
 1001 1518 l 26,3,4
 1087 1518 1087 1518 1087 1442 c 24,5,6
 1087 1370 1087 1370 999 1370 c 26,7,-1
 791 1370 l 17,8,-1
 791 1298 l 17,9,10
 1007 1298 1007 1298 1157 1147 c 0,11,12
 1316 987 1316 987 1316 758 c 128,-1,13
 1316 529 1316 529 1112 353 c 0,14,15
 975 235 975 235 791 235 c 25,16,-1
 791 101 l 26,17,18
 791 0 791 0 700 0 c 26,19,-1
 418 0 l 26,20,21
 329 0 329 0 329 73 c 24,22,23
 329 149 329 149 419 149 c 26,24,-1
 633 149 l 17,25,-1
 633 235 l 17,26,27
 416 235 416 235 260 391 c 24,28,29
 100 551 100 551 100 752 c 0,30,31
 100 980 100 980 220 1107 c 0,32,33
 404 1302 404 1302 633 1302 c 9,34,-1
 633 1437 l 26,0,1
633 1147 m 17,35,36
 501 1147 501 1147 388 1059 c 0,37,38
 254 955 254 955 254 766 c 24,39,40
 254 595 254 595 382 482 c 0,41,42
 484 392 484 392 633 392 c 25,43,-1
 633 1147 l 17,35,36
792 1147 m 9,44,-1
 792 392 l 17,45,46
 956 392 956 392 1055 500 c 0,47,48
 1165 620 1165 620 1165 777 c 0,49,50
 1165 941 1165 941 1031 1059 c 0,51,52
 931 1147 931 1147 792 1147 c 9,44,-1
EndSplineSet
Validated: 2049
EndChar

StartChar: Chi
Encoding: 935 935 310
Width: 1262
VWidth: 0
Flags: W
LayerCount: 2
Fore
SplineSet
544 755 m 5,0,1
 119 1392 l 14,2,3
 103 1417 103 1417 103 1441 c 4,4,5
 103 1507 103 1507 177 1507 c 4,6,7
 214 1507 214 1507 244 1463 c 6,8,-1
 631 889 l 5,9,-1
 1024 1473 l 6,10,11
 1050 1510 1050 1510 1090 1510 c 4,12,13
 1162 1510 1162 1510 1162 1443 c 4,14,15
 1162 1416 1162 1416 1136 1377 c 22,16,-1
 719 755 l 5,17,-1
 1143 115 l 14,18,19
 1159 92 1159 92 1159 74 c 4,20,21
 1159 0 1159 0 1086 0 c 4,22,23
 1044 0 1044 0 1016 43 c 6,24,-1
 631 625 l 5,25,-1
 241 38 l 6,26,27
 215 0 215 0 181 0 c 4,28,29
 100 0 100 0 100 70 c 4,30,31
 100 93 100 93 122 127 c 22,32,-1
 544 755 l 5,0,1
EndSplineSet
Validated: 1
EndChar

StartChar: Psi
Encoding: 936 936 317
Width: 1322
VWidth: 2456
Flags: W
HStem: 0 21G<626 703>
VStem: 130 154<741.76 1513.5> 588 150<4.94385 388 540 1514.12> 1046 146<740.126 1512.95>
LayerCount: 2
Fore
SplineSet
130 1426 m 26,0,1
 130 1520 130 1520 210 1520 c 24,2,3
 284 1520 284 1520 284 1416 c 26,4,-1
 284 928 l 26,5,6
 284 763 284 763 400 638 c 0,7,8
 466 567 466 567 588 540 c 25,9,-1
 588 1426 l 26,10,11
 588 1520 588 1520 666 1520 c 24,12,13
 738 1520 738 1520 738 1418 c 26,14,-1
 738 538 l 25,15,16
 864 572 864 572 926 634 c 0,17,18
 1046 754 1046 754 1046 940 c 26,19,-1
 1046 1428 l 26,20,21
 1046 1518 1046 1518 1118 1518 c 24,22,23
 1192 1518 1192 1518 1192 1426 c 26,24,-1
 1192 905 l 26,25,26
 1192 684 1192 684 1062 552 c 0,27,28
 898 388 898 388 742 388 c 25,29,-1
 742 88 l 26,30,31
 742 0 742 0 664 0 c 24,32,33
 588 0 588 0 588 90 c 26,34,-1
 588 384 l 25,35,36
 393 417 393 417 274 551 c 0,37,38
 130 713 130 713 130 930 c 26,39,-1
 130 1426 l 26,0,1
EndSplineSet
Validated: 1
EndChar

StartChar: Omega
Encoding: 937 937 318
Width: 1319
VWidth: 0
Flags: W
HStem: 0 149<134.614 355 960 1182.37> 1370 148<478.566 831.544>
VStem: 130 144<663.665 1157.52> 355 149<149 432.324> 815 145<150 433.459> 1039 145<656.892 1170.89>
LayerCount: 2
Fore
SplineSet
656 1518 m 0,0,1
 871 1518 871 1518 1020 1380 c 24,2,3
 1184 1228 1184 1228 1184 1019 c 2,4,5
 1184 778 l 26,6,7
 1184 653 1184 653 1088 522 c 0,8,9
 1030 442 1030 442 960 404 c 25,10,-1
 960 150 l 25,11,-1
 1090 150 l 26,12,13
 1189 150 1189 150 1189 81 c 24,14,15
 1189 0 1189 0 1095 0 c 26,16,17
 891 0 l 26,18,19
 815 -0 815 -0 815 81 c 26,20,21
 815 438 l 18,22,23
 815 486 815 486 861 513 c 0,24,25
 937 559 937 559 979 629 c 24,26,27
 1039 730 1039 730 1039 805 c 26,28,29
 1039 994 l 26,30,31
 1039 1150 1039 1150 934 1250 c 24,32,33
 808 1370 808 1370 656 1370 c 128,-1,34
 504 1370 504 1370 400 1268 c 0,35,36
 274 1145 274 1145 274 988 c 26,37,-1
 274 822 l 26,38,39
 274 708 274 708 362 598 c 0,40,41
 394 558 394 558 463 511 c 0,42,43
 504 484 504 484 504 423 c 26,44,45
 504 77 l 26,46,47
 504 0 504 0 435 0 c 26,48,-1
 213 0 l 26,49,50
 130 0 130 0 130 76 c 24,51,52
 130 149 130 149 214 149 c 26,53,-1
 355 149 l 25,54,-1
 355 397 l 17,55,56
 258 470 258 470 222 528 c 0,57,58
 130 679 130 679 130 839 c 26,59,-1
 130 979 l 26,60,61
 130 1217 130 1217 284 1365 c 0,62,63
 443 1518 443 1518 656 1518 c 0,0,1
EndSplineSet
Validated: 1
EndChar

StartChar: alpha
Encoding: 945 945 204
Width: 1245
VWidth: 0
Flags: W
HStem: 3 154<320.552 537.881 976.552 1109.78> 912 153<321.258 540.907>
VStem: 130 153<196.894 874.867> 892 151<1011 1060.24>
LayerCount: 2
Fore
SplineSet
892 1011 m 2,0,1
 914 1065 914 1065 963 1065 c 0,2,3
 1043 1065 1043 1065 1043 991 c 0,4,5
 1043 966 1043 966 1020 915 c 2,6,-1
 851 514 l 1,7,-1
 950 256 l 2,8,9
 988 154 988 154 1041 154 c 0,10,11
 1115 154 1115 154 1115 78 c 0,12,13
 1115 3 1115 3 1042 3 c 0,14,15
 890 3 890 3 829 159 c 2,16,-1
 768 313 l 1,17,-1
 716 195 l 2,18,19
 631 3 631 3 428 3 c 0,20,21
 324 3 324 3 231 78 c 0,22,23
 130 161 130 161 130 338 c 2,24,-1
 130 755 l 2,25,26
 130 880 130 880 213 971 c 0,27,28
 299 1065 299 1065 435 1065 c 0,29,30
 642 1065 642 1065 720 858 c 2,31,-1
 772 721 l 1,32,-1
 892 1011 l 2,0,1
689 521 m 1,33,-1
 589 787 l 2,34,35
 542 912 542 912 433 912 c 0,36,37
 283 912 283 912 283 738 c 1,38,-1
 283 334 l 1,39,40
 283 157 283 157 433 157 c 0,41,42
 535 157 535 157 584 273 c 2,43,-1
 689 521 l 1,33,-1
EndSplineSet
Validated: 1
EndChar

StartChar: beta
Encoding: 946 946 206
Width: 1209
VWidth: 0
Flags: W
HStem: 0 145<610.395 814.982> 757 148<612.875 784.468> 1364 146<397.258 781.07>
VStem: 150 153<-453.09 1268.79> 836 146<952.324 1308.55> 910 149<242.75 664.613>
LayerCount: 2
Fore
SplineSet
887 843 m 1,0,1
 953 811 953 811 1000 731 c 24,2,3
 1059 631 1059 631 1059 551 c 18,4,-1
 1059 357 l 2,5,6
 1059 227 1059 227 953 110 c 24,7,8
 853 0 853 0 686 0 c 0,9,10
 606 0 606 0 606 75 c 24,11,12
 606 145 606 145 693 145 c 0,13,14
 772 145 772 145 833 204 c 0,15,16
 910 279 910 279 910 374 c 2,17,-1
 910 536 l 2,18,19
 910 601 910 601 866 665 c 0,20,21
 803 757 803 757 686 757 c 0,22,23
 608 757 608 757 608 834 c 0,24,25
 608 905 608 905 683 905 c 0,26,27
 737 905 737 905 786 946 c 0,28,29
 836 988 836 988 836 1061 c 2,30,31
 836 1200 l 2,32,33
 836 1268 836 1268 785 1316 c 128,-1,34
 734 1364 734 1364 674 1364 c 2,35,-1
 543 1364 l 2,36,37
 438 1364 438 1364 372 1299 c 0,38,39
 303 1231 303 1231 303 1144 c 2,40,-1
 303 -362 l 26,41,42
 303 -461 303 -461 218 -461 c 0,43,44
 150 -461 150 -461 150 -361 c 2,45,-1
 150 1135 l 2,46,47
 150 1296 150 1296 256 1398 c 0,48,49
 372 1510 372 1510 522 1510 c 2,50,-1
 691 1510 l 2,51,52
 810 1510 810 1510 910 1409 c 24,53,54
 982 1336 982 1336 982 1215 c 2,55,-1
 982 1045 l 2,56,57
 982 922 982 922 887 843 c 1,0,1
EndSplineSet
Validated: 1
EndChar

StartChar: gamma
Encoding: 947 947 207
Width: 1114
VWidth: 0
Flags: W
HStem: -456 151<524.163 747.011> 906 148<108.035 230.895>
VStem: 334 147<-260.815 187.866> 792 147<-260.387 184.996>
LayerCount: 2
Fore
SplineSet
100 986 m 0,0,1
 100 1054 100 1054 168 1054 c 0,2,3
 196 1054 196 1054 232 1037 c 0,4,5
 420 948 420 948 611 732 c 1,6,7
 703 873 703 873 870 1024 c 0,8,9
 903 1054 903 1054 935 1054 c 0,10,11
 1014 1054 1014 1054 1014 986 c 8,12,13
 1014 954 1014 954 964 906 c 0,14,15
 804 752 804 752 706 607 c 1,16,17
 829 428 829 428 888 214 c 0,18,19
 939 29 939 29 939 -126 c 0,20,21
 939 -277 939 -277 864 -358 c 8,22,23
 774 -456 774 -456 633 -456 c 24,24,25
 497 -456 497 -456 414 -360 c 16,26,27
 334 -265 334 -265 334 -104 c 0,28,29
 334 54 334 54 390 249 c 0,30,31
 451 461 451 461 527 594 c 1,32,33
 359 804 359 804 156 906 c 0,34,35
 100 934 100 934 100 986 c 0,0,1
625 452 m 1,36,37
 481 148 481 148 481 -106 c 24,38,39
 481 -305 481 -305 634 -305 c 24,40,41
 792 -305 792 -305 792 -106 c 24,42,43
 792 179 792 179 625 452 c 1,36,37
EndSplineSet
Validated: 1
EndChar

StartChar: delta
Encoding: 948 948 208
Width: 1018
VWidth: 0
Flags: W
HStem: -3 149<376.763 646.051> 1366 148<364.717 807.791>
VStem: 130 151<244.967 818.421> 209 148<1217.42 1356.33> 735 153<233.9 812.375>
LayerCount: 2
Fore
SplineSet
130 696 m 18,0,1
 130 816 130 816 223 931 c 0,2,3
 282 1004 282 1004 388 1037 c 1,4,-1
 276 1123 l 2,5,6
 209 1173 209 1173 209 1290 c 0,7,8
 209 1377 209 1377 282 1451 c 0,9,10
 344 1514 344 1514 439 1514 c 2,11,-1
 726 1514 l 2,12,13
 814 1514 814 1514 814 1433 c 24,14,15
 814 1366 814 1366 721 1366 c 2,16,-1
 458 1366 l 2,17,18
 357 1366 357 1366 357 1287 c 0,19,20
 357 1245 357 1245 393 1221 c 26,21,-1
 732 988 l 2,22,23
 888 880 888 880 888 668 c 2,24,-1
 888 358 l 2,25,26
 888 212 888 212 779 106 c 24,27,28
 667 -3 667 -3 521 -3 c 24,29,30
 354 -3 354 -3 239 106 c 24,31,32
 130 210 130 210 130 370 c 2,33,-1
 130 696 l 18,0,1
281 684 m 2,34,-1
 281 365 l 26,35,36
 281 266 281 266 384 184 c 0,37,38
 432 146 432 146 514 146 c 0,39,40
 591 146 591 146 656 198 c 0,41,42
 735 261 735 261 735 373 c 2,43,-1
 735 686 l 26,44,45
 735 784 735 784 654 851 c 0,46,47
 589 905 589 905 507 905 c 0,48,49
 447 905 447 905 390 872 c 8,50,51
 281 809 281 809 281 684 c 2,34,-1
EndSplineSet
Validated: 1
EndChar

StartChar: epsilon
Encoding: 949 949 209
Width: 959
VWidth: 0
Flags: W
HStem: 0 147<291.565 669.051> 452 152<312.237 546.111> 906 148<293.38 680.785>
VStem: 100 152<186.225 407.219 647.566 864.613>
LayerCount: 2
Fore
SplineSet
791 986 m 16,0,1
 851 963 851 963 858 920 c 0,2,3
 861 899 861 899 849 873 c 0,4,5
 831 833 831 833 786 833 c 0,6,7
 761 833 761 833 726 846 c 0,8,9
 565 906 565 906 432 906 c 0,10,11
 253 906 253 906 253 747 c 0,12,13
 253 604 253 604 464 604 c 0,14,15
 551 604 551 604 551 528 c 152,-1,16
 551 452 551 452 462 452 c 0,17,18
 350 452 350 452 311 421 c 0,19,20
 252 374 252 374 252 314 c 0,21,22
 252 147 252 147 419 147 c 0,23,24
 546 147 546 147 725 210 c 0,25,26
 762 223 762 223 795 223 c 0,27,28
 825 223 825 223 842 199.5 c 128,-1,29
 859 176 859 176 859 144 c 0,30,31
 859 98 859 98 793 71 c 0,32,33
 622 0 622 0 433 0 c 0,34,35
 289 0 289 0 200 75 c 0,36,37
 100 159 100 159 100 296 c 0,38,39
 100 438 100 438 201 530 c 1,40,41
 100 624 100 624 100 770 c 0,42,43
 100 869 100 869 173 954 c 0,44,45
 259 1054 259 1054 423 1054 c 0,46,47
 617 1054 617 1054 791 986 c 16,0,1
EndSplineSet
Validated: 1
EndChar

StartChar: zeta
Encoding: 950 950 210
Width: 961
VWidth: 0
Flags: W
HStem: -456 153<566.25 703.801> 0 150<300.839 701.43> 1141 153<258.45 545>
VStem: 103 150<196.944 445.36 1298.83 1513.88> 710 151<-298.52 -7.19824>
LayerCount: 2
Fore
SplineSet
100 1438 m 2,0,1
 100 1519 100 1519 176 1519 c 0,2,3
 251 1519 251 1519 251 1437 c 2,4,-1
 251 1382 l 2,5,6
 251 1294 251 1294 329 1294 c 2,7,-1
 681 1294 l 26,8,9
 786 1294 786 1294 786 1214 c 0,10,11
 786 1185 786 1185 732 1124 c 0,12,13
 463 820 463 820 297 445 c 0,14,15
 253 346 253 346 253 295 c 0,16,17
 253 230 253 230 312 184 c 0,18,19
 356 150 356 150 417 150 c 10,20,-1
 627 150 l 2,21,22
 739 150 739 150 804 75 c 0,23,24
 861 9 861 9 861 -74 c 2,25,-1
 861 -216 l 2,26,27
 861 -331 861 -331 787 -398 c 0,28,29
 723 -456 723 -456 645 -456 c 0,30,31
 561 -456 561 -456 561 -383 c 24,32,33
 561 -303 561 -303 641 -303 c 0,34,35
 710 -303 710 -303 710 -221 c 2,36,-1
 710 -91 l 2,37,38
 710 0 710 0 626 0 c 26,39,-1
 421 0 l 2,40,41
 279 0 279 0 196 82 c 0,42,43
 103 174 103 174 103 301 c 0,44,45
 103 371 103 371 149 483 c 0,46,47
 280 802 280 802 545 1141 c 9,48,-1
 334 1141 l 2,49,50
 215 1141 215 1141 149 1227 c 0,51,52
 100 1291 100 1291 100 1368 c 10,53,-1
 100 1438 l 2,0,1
EndSplineSet
Validated: 1
EndChar

StartChar: eta
Encoding: 951 951 211
Width: 1155
VWidth: 0
Flags: W
HStem: 0 21G<250 326.5> 910 153<65 202.226 453.045 725.647>
VStem: 208 153<7.27734 814.562> 817 148<-447.438 814.429>
LayerCount: 2
Fore
SplineSet
327 956 m 1,0,1
 436 1063 436 1063 594 1063 c 24,2,3
 747 1063 747 1063 864 946 c 0,4,5
 965 845 965 845 965 711 c 2,6,7
 965 -364 l 26,8,9
 965 -453 965 -453 897 -453 c 24,10,11
 817 -453 817 -453 817 -364 c 2,12,13
 817 698 l 26,14,15
 817 779 817 779 735 857 c 16,16,17
 679 910 679 910 587 910 c 0,18,19
 497 910 497 910 441 855 c 0,20,21
 361 777 361 777 361 676 c 26,22,-1
 361 92 l 26,23,24
 361 0 361 0 292 0 c 24,25,26
 208 0 208 0 208 92 c 2,27,-1
 208 826 l 2,28,29
 208 910 208 910 135 910 c 0,30,31
 60 910 60 910 60 989 c 0,32,33
 60 1060 60 1060 140 1060 c 24,34,35
 266 1060 266 1060 327 956 c 1,0,1
EndSplineSet
Validated: 1
EndChar

StartChar: theta
Encoding: 952 952 212
Width: 1140
VWidth: 0
Flags: W
HStem: 0 152<390.719 668.693> 453 157<-72.125 138.575> 837 150<448.925 755 908 1054.28> 1368 149<445.817 688.968>
VStem: 151 146<247.956 441.118> 225 153<1058.39 1301.33> 759 149<251.461 837 987 1294.99>
LayerCount: 2
Fore
SplineSet
755 987 m 1,0,1
 755 1193 l 18,2,3
 755 1252 755 1252 705 1309 c 0,4,5
 653 1368 653 1368 560 1368 c 0,6,7
 487 1368 487 1368 427 1306 c 0,8,9
 378 1255 378 1255 378 1174 c 0,10,11
 378 1098 378 1098 438 1041 c 0,12,13
 495 987 495 987 579 987 c 10,14,-1
 755 987 l 1,0,1
759 837 m 1,15,-1
 540 837 l 2,16,17
 432 837 432 837 320 944 c 0,18,19
 225 1035 225 1035 225 1179 c 0,20,21
 225 1302 225 1302 328 1423 c 0,22,23
 408 1517 408 1517 563 1517 c 0,24,25
 717 1517 717 1517 822 1407 c 0,26,27
 908 1317 908 1317 908 1193 c 2,28,-1
 908 985 l 9,29,-1
 971 985 l 2,30,31
 1060 985 1060 985 1060 910 c 24,32,33
 1060 837 1060 837 979 837 c 2,34,-1
 908 837 l 9,35,-1
 908 410 l 2,36,37
 908 210 908 210 781 96 c 0,38,39
 674 0 674 0 533 0 c 128,-1,40
 392 0 392 0 290 85 c 0,41,42
 151 201 151 201 151 361 c 0,43,44
 151 453 151 453 46 453 c 0,45,46
 -80 453 -80 453 -80 526 c 24,47,48
 -80 610 -80 610 19 610 c 0,49,50
 166 610 166 610 230 545 c 0,51,52
 297 477 297 477 297 388 c 0,53,54
 297 269 297 269 394 194 c 0,55,56
 448 152 448 152 540 152 c 0,57,58
 633 152 633 152 691 218 c 0,59,60
 759 295 759 295 759 426 c 26,61,-1
 759 837 l 1,15,-1
EndSplineSet
Validated: 1
EndChar

StartChar: iota
Encoding: 953 953 213
Width: 903
VWidth: 0
Flags: W
HStem: 0 149<378.886 646.046> 1042 20G<169.5 247.5>
VStem: 130 156<243.867 1056.62>
LayerCount: 2
Fore
SplineSet
130 976 m 2,0,1
 130 1062 130 1062 209 1062 c 0,2,3
 286 1062 286 1062 286 977 c 2,4,5
 286 419 l 2,6,7
 286 297 286 297 340 231 c 0,8,9
 407 149 407 149 510 149 c 0,10,11
 604 149 604 149 671 213 c 0,12,13
 696 237 696 237 734 237 c 0,14,15
 803 237 803 237 803 165 c 0,16,17
 803 128 803 128 765 93 c 0,18,19
 665 0 665 0 516 0 c 24,20,21
 360 0 360 0 249 106 c 0,22,23
 130 220 130 220 130 426 c 26,24,-1
 130 976 l 2,0,1
EndSplineSet
Validated: 1
EndChar

StartChar: kappa
Encoding: 954 954 214
Width: 996
VWidth: 0
Flags: W
HStem: 0 145<757.005 891.646> 906 148<-5.331 130.93>
VStem: 137 154<5.64453 301 540 902.242>
LayerCount: 2
Fore
SplineSet
64 906 m 0,0,1
 -10 906 -10 906 -10 984 c 0,2,3
 -10 1054 -10 1054 75 1054 c 0,4,5
 164 1054 164 1054 230 985 c 0,6,7
 291 921 291 921 291 823 c 2,8,-1
 291 540 l 9,9,-1
 680 1021 l 18,10,11
 708 1054 708 1054 747 1054 c 0,12,13
 822 1054 822 1054 822 986 c 0,14,15
 822 954 822 954 795 922 c 2,16,-1
 514 576 l 1,17,-1
 757 184 l 2,18,19
 782 145 782 145 825 145 c 0,20,21
 896 145 896 145 896 69 c 0,22,23
 896 0 896 0 805 0 c 0,24,25
 692 0 692 0 624 112 c 2,26,-1
 417 454 l 9,27,-1
 292 301 l 25,28,-1
 292 80 l 2,29,30
 292 0 292 0 219 0 c 24,31,32
 137 0 137 0 137 77 c 2,33,34
 137 830 l 26,35,36
 137 906 137 906 64 906 c 0,0,1
EndSplineSet
Validated: 1
EndChar

StartChar: lambda
Encoding: 955 955 215
Width: 1112
VWidth: 0
Flags: W
HStem: 0 148<872.594 1006.56> 1365 146<182.285 320.218>
VStem: 100 156<7.91699 65>
LayerCount: 2
Fore
SplineSet
862 213 m 2,0,1
 885 148 885 148 941 148 c 0,2,3
 1012 148 1012 148 1012 65 c 0,4,5
 1012 0 1012 0 925 0 c 24,6,7
 777 0 777 0 717 169 c 2,8,9
 524 718 l 9,10,-1
 256 65 l 18,11,12
 229 0 229 0 180 0 c 0,13,14
 100 0 100 0 100 67 c 8,15,16
 100 89 100 89 112 120 c 2,17,-1
 450 947 l 1,18,-1
 330 1297 l 2,19,20
 307 1365 307 1365 256 1365 c 0,21,22
 178 1365 178 1365 178 1440 c 0,23,24
 178 1511 178 1511 263 1511 c 0,25,26
 414 1511 414 1511 465 1361 c 26,27,-1
 862 213 l 2,0,1
EndSplineSet
Validated: 1
EndChar

StartChar: mu
Encoding: 956 956 216
Width: 1124
VWidth: 0
Flags: W
HStem: 0 146<399.585 671.338 918.738 1059.44> 1034 20G<189.5 266 802.5 876.5>
VStem: 150 153<-456.441 68 240.746 1048.81> 764 148<242.745 1051.94>
LayerCount: 2
Fore
SplineSet
150 971 m 2,0,1
 150 1054 150 1054 229 1054 c 0,2,3
 303 1054 303 1054 303 963 c 2,4,5
 303 384 l 26,6,7
 303 280 303 280 370 215 c 16,8,9
 441 146 441 146 536 146 c 128,-1,10
 631 146 631 146 688 205 c 8,11,12
 764 284 764 284 764 376 c 26,13,-1
 764 976 l 26,14,15
 764 1057 764 1057 841 1057 c 0,16,17
 912 1057 912 1057 912 968 c 2,18,-1
 912 225 l 26,19,20
 912 148 912 148 994 148 c 0,21,22
 1064 148 1064 148 1064 74 c 128,-1,23
 1064 0 1064 0 981 0 c 0,24,25
 863 0 863 0 797 102 c 1,26,27
 703 0 703 0 533 0 c 0,28,29
 408 0 408 0 305 68 c 9,30,-1
 305 -381 l 26,31,32
 305 -461 305 -461 225 -461 c 24,33,34
 150 -461 150 -461 150 -378 c 26,35,-1
 150 971 l 2,0,1
EndSplineSet
Validated: 1
EndChar

StartChar: nu
Encoding: 957 957 261
Width: 1108
VWidth: 0
Flags: W
HStem: 912 153<105.856 241.254> 1043 20G<900.5 971>
VStem: 858 150<798.658 1058.06>
LayerCount: 2
Fore
SplineSet
858 993 m 0,0,1
 867 1063 867 1063 934 1063 c 0,2,3
 1008 1063 1008 1063 1008 984 c 0,4,5
 1008 963 1008 963 996 901 c 0,6,7
 948 658 948 658 836 442 c 8,8,9
 730 237 730 237 579 75 c 0,10,11
 512 3 512 3 476 3 c 0,12,13
 416 3 416 3 403 82 c 24,14,15
 252 834 l 2,16,17
 236 912 236 912 183 912 c 0,18,19
 100 912 100 912 100 993 c 0,20,21
 100 1065 100 1065 180 1065 c 0,22,23
 356 1065 356 1065 397 864 c 2,24,-1
 525 239 l 1,25,26
 692 451 692 451 764 647 c 128,-1,27
 836 843 836 843 858 993 c 0,0,1
EndSplineSet
Validated: 1
EndChar

StartChar: xi
Encoding: 958 958 263
Width: 1111
VWidth: 0
Flags: W
HStem: -456 150<719 855.095> 0 146<402.319 857.359> 765 141<458 842.386> 1221 146<452.144 841.891> 1496 20G<137 211.5>
VStem: 104 152<287.955 607.199 1371.5 1509.04> 256 148<960.273 1172.5> 861 150<-302.179 -5.45312>
LayerCount: 2
Fore
SplineSet
796 146 m 10,0,1
 881 146 881 146 949 79 c 24,2,3
 1011 18 1011 18 1011 -64 c 26,4,-1
 1011 -228 l 26,5,6
 1011 -326 1011 -326 944 -391 c 152,-1,7
 877 -456 877 -456 784 -456 c 24,8,9
 714 -456 714 -456 714 -384 c 0,10,11
 714 -306 714 -306 794 -306 c 0,12,13
 861 -306 861 -306 861 -217 c 10,14,-1
 861 -66 l 26,15,16
 861 0 861 0 779 0 c 26,17,-1
 546 0 l 2,18,19
 362 0 362 0 243 126 c 24,20,21
 104 273 104 273 104 420 c 10,22,-1
 104 478 l 2,23,24
 104 724 104 724 339 854 c 1,25,26
 256 930 256 930 256 1054 c 0,27,28
 256 1159 256 1159 297 1218 c 1,29,30
 190 1244 190 1244 143 1309 c 0,31,32
 100 1370 100 1370 100 1437 c 0,33,34
 100 1516 100 1516 174 1516 c 0,35,36
 249 1516 249 1516 249 1440 c 0,37,38
 249 1367 249 1367 331 1367 c 26,39,-1
 754 1367 l 2,40,41
 847 1367 847 1367 847 1296 c 24,42,43
 847 1221 847 1221 754 1221 c 26,44,-1
 630 1221 l 18,45,46
 498 1221 498 1221 449 1173 c 0,47,48
 404 1129 404 1129 404 1063 c 0,49,50
 404 1010 404 1010 451 956 c 0,51,52
 495 906 495 906 628 906 c 26,53,-1
 763 906 l 2,54,55
 847 906 847 906 847 840 c 24,56,57
 847 765 847 765 764 765 c 26,58,-1
 612 765 l 2,59,60
 435 765 435 765 350 674 c 0,61,62
 256 573 256 573 256 478 c 2,63,-1
 256 396 l 2,64,65
 256 320 256 320 362 218 c 0,66,67
 437 146 437 146 652 146 c 2,68,-1
 796 146 l 10,0,1
EndSplineSet
Validated: 1
EndChar

StartChar: omicron
Encoding: 959 959 262
Width: 1009
VWidth: 0
Flags: W
HStem: 8 142<376.774 639.004> 919 144<372.518 636.298>
VStem: 130 143<247.938 824.457> 738 141<247.732 817.52>
LayerCount: 2
Fore
SplineSet
353 862 m 0,0,1
 273 803 273 803 273 679 c 2,2,3
 273 372 l 2,4,5
 273 259 273 259 383 190 c 0,6,7
 447 150 447 150 511 150 c 128,-1,8
 575 150 575 150 640 194 c 0,9,10
 738 260 738 260 738 403 c 2,11,-1
 738 658 l 2,12,13
 738 785 738 785 663 853 c 0,14,15
 591 919 591 919 511 919 c 128,-1,16
 431 919 431 919 353 862 c 0,0,1
493 1063 m 0,17,18
 661 1063 661 1063 767 958 c 0,19,20
 879 847 879 847 879 722 c 2,21,-1
 879 374 l 2,22,23
 879 206 879 206 758 100 c 0,24,25
 653 8 653 8 504 8 c 24,26,27
 345 8 345 8 251 104 c 24,28,29
 130 227 130 227 130 379 c 2,30,-1
 130 706 l 2,31,32
 130 867 130 867 269 980 c 0,33,34
 371 1063 371 1063 493 1063 c 0,17,18
EndSplineSet
Validated: 1
EndChar

StartChar: pi
Encoding: 960 960 288
Width: 1317
VWidth: 0
Flags: W
HStem: 0 147<209.875 346.955 973.316 1108.25> 906 154<136.491 357 505 811 961 1181.38>
VStem: 357 148<156.86 906> 811 150<155.25 906>
LayerCount: 2
Fore
SplineSet
222 906 m 26,0,1
 130 906 130 906 130 987 c 24,2,3
 130 1060 130 1060 227 1060 c 26,4,5
 1097 1060 l 26,6,7
 1187 1060 1187 1060 1187 982 c 24,8,9
 1187 906 1187 906 1103 906 c 26,10,11
 961 906 l 9,12,13
 961 256 l 26,14,15
 961 147 961 147 1037 147 c 128,-1,16
 1113 147 1113 147 1113 78 c 0,17,18
 1113 0 1113 0 1039 0 c 0,19,20
 811 0 811 0 811 276 c 26,21,-1
 811 906 l 9,22,-1
 505 906 l 25,23,-1
 505 257 l 18,24,25
 505 0 505 0 283 0 c 24,26,27
 205 0 205 0 205 67 c 0,28,29
 205 152 205 152 292 152 c 0,30,31
 357 152 357 152 357 256 c 26,32,-1
 357 906 l 25,33,-1
 222 906 l 26,0,1
EndSplineSet
Validated: 1
EndChar

StartChar: rho
Encoding: 961 961 289
Width: 1009
VWidth: 0
Flags: W
HStem: -456 21G<317 374.5> 0 148<483.207 644.293> 912 142<372.518 636.627>
VStem: 130 143<245.385 818.885> 352 151<-318.162 -2.55371> 738 141<245.734 809.91>
LayerCount: 2
Fore
SplineSet
352 -147 m 0,0,1
 352 -39 352 -39 271 58 c 0,2,3
 130 227 130 227 130 372 c 2,4,-1
 130 699 l 2,5,6
 130 863 130 863 269 973 c 0,7,8
 371 1054 371 1054 493 1054 c 0,9,10
 661 1054 661 1054 770 947 c 128,-1,11
 879 840 879 840 879 715 c 2,12,-1
 879 367 l 2,13,14
 879 208 879 208 758 93 c 0,15,16
 660 0 660 0 482 0 c 1,17,18
 503 -82 503 -82 503 -128 c 2,19,-1
 503 -178 l 2,20,21
 503 -299 503 -299 428 -410 c 0,22,23
 397 -456 397 -456 352 -456 c 16,24,25
 282 -456 282 -456 282 -387 c 0,26,27
 282 -345 282 -345 302 -326 c 0,28,29
 352 -278 352 -278 352 -147 c 0,0,1
353 855 m 0,30,31
 273 796 273 796 273 672 c 2,32,-1
 273 374 l 2,33,34
 273 268 273 268 370 192 c 1,35,36
 428 148 428 148 511 148 c 0,37,38
 591 148 591 148 640 187 c 0,39,40
 738 266 738 266 738 409 c 2,41,-1
 738 651 l 2,42,43
 738 778 738 778 663 846 c 0,44,45
 591 912 591 912 511 912 c 128,-1,46
 431 912 431 912 353 855 c 0,30,31
EndSplineSet
Validated: 1
EndChar

StartChar: sigma1
Encoding: 962 962 341
Width: 1170
VWidth: 0
Flags: W
HStem: -456 150<745 881.095> 0 146<428.319 883.359> 915 139<431.204 868.386>
VStem: 130 152<287.494 762.98> 887 150<-302.179 -5.45312>
LayerCount: 2
Fore
SplineSet
252 908 m 0,0,1
 371 1054 371 1054 654 1054 c 26,2,-1
 789 1054 l 2,3,4
 873 1054 873 1054 873 990 c 24,5,6
 873 915 873 915 790 915 c 26,7,-1
 638 915 l 2,8,9
 457 915 457 915 370 824 c 0,10,11
 282 732 282 732 282 588 c 2,12,-1
 282 396 l 2,13,14
 282 319 282 319 388 218 c 0,15,16
 463 146 463 146 678 146 c 2,17,-1
 822 146 l 10,18,19
 907 146 907 146 975 79 c 24,20,21
 1037 18 1037 18 1037 -64 c 26,22,23
 1037 -228 l 26,24,25
 1037 -326 1037 -326 970 -391 c 152,-1,26
 903 -456 903 -456 810 -456 c 24,27,28
 740 -456 740 -456 740 -384 c 0,29,30
 740 -306 740 -306 820 -306 c 0,31,32
 887 -306 887 -306 887 -217 c 10,33,34
 887 -66 l 26,35,36
 887 0 887 0 805 0 c 26,37,-1
 572 0 l 2,38,39
 388 0 388 0 269 126 c 24,40,41
 130 272 130 272 130 420 c 10,42,-1
 130 588 l 2,43,44
 130 758 130 758 252 908 c 0,0,1
EndSplineSet
Validated: 1
EndChar

StartChar: sigma
Encoding: 963 963 290
Width: 1216
VWidth: 0
Flags: W
HStem: 0 146<377.46 648.248> 903 155<370.387 658.234 818 962.337>
VStem: 130 153<241.777 816.511> 743 146<238.422 813.14> 969 147<1063.12 1203.61>
LayerCount: 2
Fore
SplineSet
897 1058 m 18,0,1
 969 1058 969 1058 969 1138 c 24,2,3
 969 1208 969 1208 1048 1208 c 0,4,5
 1116 1208 1116 1208 1116 1128 c 0,6,7
 1116 1017 1116 1017 1029 952 c 0,8,9
 963 903 963 903 818 903 c 1,10,11
 889 812 889 812 889 685 c 2,12,-1
 889 381 l 2,13,14
 889 203 889 203 768 92 c 0,15,16
 668 0 668 0 514 0 c 24,17,18
 363 0 363 0 261 93 c 24,19,20
 130 213 130 213 130 363 c 2,21,-1
 130 679 l 2,22,23
 130 854 130 854 269 972 c 0,24,25
 370 1058 370 1058 519 1058 c 10,26,-1
 897 1058 l 18,0,1
363 854 m 0,27,28
 283 795 283 795 283 671 c 2,29,-1
 283 364 l 2,30,31
 283 266 283 266 372 194 c 0,32,33
 431 146 431 146 508 146 c 128,-1,34
 585 146 585 146 650 191 c 0,35,36
 743 255 743 255 743 395 c 2,37,-1
 743 650 l 2,38,39
 743 775 743 775 673 845 c 0,40,41
 617 903 617 903 512 903 c 0,42,43
 431 903 431 903 363 854 c 0,27,28
EndSplineSet
Validated: 1
EndChar

StartChar: tau
Encoding: 964 964 205
Width: 1184
VWidth: 0
Flags: W
HStem: 0 152<669.429 848.062> 908 155<105.856 480 633 1078.44>
VStem: 480 153<199.172 908>
LayerCount: 2
Fore
SplineSet
633 908 m 25,0,-1
 633 338 l 18,1,2
 633 235 633 235 667 198 c 0,3,4
 710 152 710 152 759 152 c 0,5,6
 854 152 854 152 854 76 c 128,-1,7
 854 0 854 0 755 0 c 0,8,9
 640 0 640 0 553 102 c 24,10,11
 480 188 480 188 480 321 c 18,12,13
 480 908 l 25,14,-1
 183 908 l 2,15,16
 100 908 100 908 100 985.5 c 128,-1,17
 100 1063 100 1063 192 1063 c 26,18,-1
 995 1063 l 2,19,20
 1084 1063 1084 1063 1084 988 c 24,21,22
 1084 908 1084 908 1001 908 c 18,23,-1
 633 908 l 25,0,-1
EndSplineSet
Validated: 1
EndChar

StartChar: upsilon
Encoding: 965 965 291
Width: 1295
VWidth: 0
Flags: W
HStem: 0 149<503.779 921.024> 912 148<104.938 246.137>
VStem: 253 149<246.931 906.764> 1012 152<242.356 1054>
LayerCount: 2
Fore
SplineSet
179 912 m 0,0,1
 100 912 100 912 100 989 c 0,2,3
 100 1060 100 1060 188 1060 c 128,-1,4
 276 1060 276 1060 344 990 c 24,5,6
 402 930 402 930 402 836 c 26,7,-1
 402 402 l 18,8,9
 402 288 402 288 467 222 c 0,10,11
 540 149 540 149 651 149 c 2,12,-1
 777 149 l 18,13,14
 888 149 888 149 952 222 c 0,15,16
 1012 290 1012 290 1012 410 c 10,17,-1
 1012 972 l 26,18,19
 1012 1060 1012 1060 1092 1060 c 24,20,21
 1164 1060 1164 1060 1164 964 c 26,22,-1
 1164 390 l 26,23,24
 1164 225 1164 225 1055 112 c 24,25,26
 947 0 947 0 786 0 c 26,27,-1
 648 0 l 26,28,29
 473 0 473 0 368 104 c 24,30,31
 253 218 253 218 253 393 c 26,32,-1
 253 824 l 18,33,34
 253 912 253 912 179 912 c 0,0,1
EndSplineSet
Validated: 1
EndChar

StartChar: phi
Encoding: 966 966 292
Width: 1316
VWidth: 0
Flags: W
HStem: -456 21G<620.5 695.5> 0 152<463.25 585 737 842.09> 903 151<775.797 999.298>
VStem: 130 146<358.622 1052.75> 585 152<-448.944 8.1875 154 865.631> 1040 145<349.106 861.691>
LayerCount: 2
Fore
SplineSet
737 154 m 1,0,1
 874 191 874 191 956 290 c 24,2,3
 1040 391 1040 391 1040 521 c 26,4,-1
 1040 715 l 26,5,6
 1040 903 1040 903 886 903 c 24,7,8
 737 903 737 903 737 721 c 26,9,-1
 737 154 l 1,0,1
585 152 m 1,10,-1
 585 732 l 26,11,12
 585 872 585 872 668 960 c 24,13,14
 757 1054 757 1054 890 1054 c 0,15,16
 1027 1054 1027 1054 1110 964 c 24,17,18
 1185 883 1185 883 1185 734 c 26,19,-1
 1185 514 l 26,20,21
 1185 305 1185 305 1044 160 c 0,22,23
 914 26 914 26 735 0 c 9,24,-1
 735 -356 l 26,25,26
 735 -456 735 -456 656 -456 c 24,27,28
 585 -456 585 -456 585 -356 c 26,29,-1
 585 0 l 1,30,31
 422 27 422 27 320 114 c 0,32,33
 130 276 130 276 130 472 c 26,34,-1
 130 974 l 26,35,36
 130 1058 130 1058 207 1058 c 24,37,38
 276 1058 276 1058 276 968 c 26,39,-1
 276 542 l 26,40,41
 276 396 276 396 372 275 c 24,42,43
 448 179 448 179 585 152 c 1,10,-1
EndSplineSet
Validated: 1
EndChar

StartChar: chi
Encoding: 967 967 293
Width: 1114
VWidth: 0
Flags: W
HStem: 0 148<872.137 1009.17> 1367 154<105.25 243.268>
VStem: 781 156<1448 1505.43>
LayerCount: 2
Fore
SplineSet
559 957 m 25,0,-1
 781 1448 l 18,1,2
 813 1518 813 1518 854 1518 c 0,3,4
 882 1518 882 1518 904 1506 c 0,5,6
 937 1488 937 1488 937 1448 c 0,7,8
 937 1424 937 1424 922 1390 c 10,9,-1
 640 760 l 25,10,-1
 859 213 l 26,11,12
 885 148 885 148 933 148 c 0,13,14
 1014 148 1014 148 1014 74 c 128,-1,15
 1014 -0 1014 -0 926 0 c 0,16,17
 786 0 786 0 719 163 c 26,18,-1
 553 566 l 25,19,-1
 322 48 l 26,20,21
 302 3 302 3 253 3 c 0,22,23
 224 3 224 3 204 20 c 0,24,25
 179 42 179 42 179 76 c 0,26,27
 179 103 179 103 190 123 c 9,28,-1
 475 759 l 25,29,-1
 244 1329 l 26,30,31
 229 1367 229 1367 184 1367 c 0,32,33
 100 1367 100 1367 100 1443 c 24,34,35
 100 1521 100 1521 184 1521 c 0,36,37
 328 1521 328 1521 394 1360 c 26,38,-1
 559 957 l 25,0,-1
EndSplineSet
Validated: 1
EndChar

StartChar: psi
Encoding: 968 968 294
Width: 1322
VWidth: 0
Flags: W
HStem: -456 21G<621.5 698.5> 0 154<462.106 583 737 853.606> 1034 20G<169 244 1081 1156>
VStem: 130 150<358.445 1048.12> 587 150<-450.125 5.82422 157 1351.38> 1042 150<347.945 1048>
LayerCount: 2
Fore
SplineSet
587 154 m 9,0,-1
 587 1267 l 26,1,2
 587 1357 587 1357 664 1357 c 24,3,4
 737 1357 737 1357 737 1261 c 26,5,-1
 737 157 l 17,6,7
 859 180 859 180 932 256 c 0,8,9
 1042 370 1042 370 1042 528 c 26,10,-1
 1042 961 l 26,11,12
 1042 1054 1042 1054 1120 1054 c 24,13,14
 1192 1054 1192 1054 1192 958 c 26,15,-1
 1192 530 l 18,16,17
 1192 304 1192 304 1048 160 c 0,18,19
 914 26 914 26 737 0 c 25,20,-1
 737 -362 l 26,21,22
 737 -456 737 -456 660 -456 c 152,-1,23
 583 -456 583 -456 583 -358 c 26,24,-1
 583 0 l 25,25,26
 451 16 451 16 332 108 c 0,27,28
 130 264 130 264 130 538 c 26,29,-1
 130 960 l 26,30,31
 130 1054 130 1054 208 1054 c 24,32,33
 280 1054 280 1054 280 952 c 26,34,-1
 280 544 l 26,35,36
 280 382 280 382 398 252 c 0,37,38
 474 168 474 168 587 154 c 9,0,-1
EndSplineSet
Validated: 1
EndChar

StartChar: omega
Encoding: 969 969 295
Width: 1417
VWidth: 0
Flags: W
HStem: 0 151<345.211 585.163 829.04 1078.78> 1044 20G<265 326>
VStem: 100 145<254.031 719.768> 635 148<201.383 602.836> 1056 160<853.105 1048.99> 1165 152<246.702 747.434>
LayerCount: 2
Fore
SplineSet
1071 928 m 0,0,1
 1056 962 1056 962 1056 990 c 0,2,3
 1056 1065 1056 1065 1130 1065 c 0,4,5
 1188 1065 1188 1065 1216 968 c 24,6,7
 1317 618 1317 618 1317 408 c 24,8,9
 1317 235 1317 235 1223 128 c 0,10,11
 1111 0 1111 0 953 0 c 0,12,13
 797 0 797 0 707 102 c 25,14,15
 606 0 606 0 463 0 c 0,16,17
 318 0 318 0 179 146 c 24,18,19
 100 229 100 229 100 434 c 0,20,21
 100 672 100 672 219 1008 c 0,22,23
 239 1064 239 1064 291 1064 c 0,24,25
 361 1064 361 1064 361 994 c 0,26,27
 361 964 361 964 345 915 c 24,28,29
 245 606 245 606 245 410 c 0,30,31
 245 313 245 313 293 249 c 0,32,33
 366 151 366 151 470 151 c 0,34,35
 542 151 542 151 591 200 c 24,36,37
 635 244 635 244 635 320 c 26,38,-1
 635 516 l 26,39,40
 635 608 635 608 711 608 c 24,41,42
 783 608 783 608 783 514 c 26,43,-1
 783 326 l 2,44,45
 783 221 783 221 850 180 c 24,46,47
 897 151 897 151 947 151 c 0,48,49
 1057 151 1057 151 1113 234 c 0,50,51
 1165 311 1165 311 1165 426 c 0,52,53
 1165 717 1165 717 1071 928 c 0,0,1
EndSplineSet
Validated: 1
EndChar

StartChar: afii10025
Encoding: 1047 1047 551
Width: 984
VWidth: 0
Flags: W
HStem: 5 141<104.669 609.766> 765 141<263.614 612.875> 1369 146<109.109 611.978>
VStem: 710 144<244.965 667.661 1006.16 1273.87>
LayerCount: 2
Fore
SplineSet
197 1515 m 2,0,1
 510 1515 l 26,2,3
 646 1515 646 1515 754 1398 c 24,4,5
 854 1290 854 1290 854 1145 c 0,6,7
 854 963 854 963 698 834 c 1,8,9
 850 724 850 724 850 563 c 2,10,11
 850 343 l 18,12,13
 850 214 850 214 739 103 c 24,14,15
 641 5 641 5 483 5 c 2,16,17
 185 5 l 26,18,19
 100 5 100 5 100 79 c 24,20,21
 100 146 100 146 190 146 c 2,22,23
 454 146 l 2,24,25
 575 146 575 146 645 218 c 0,26,27
 710 285 710 285 710 393 c 2,28,-1
 710 523 l 2,29,30
 710 625 710 625 650 688 c 0,31,32
 577 765 577 765 494 765 c 2,33,-1
 342 765 l 26,34,35
 259 765 259 765 259 840 c 24,36,37
 259 906 259 906 343 906 c 2,38,-1
 478 906 l 26,39,40
 572 906 572 906 639 974 c 0,41,42
 710 1046 710 1046 710 1138 c 0,43,44
 710 1232 710 1232 653 1290 c 0,45,46
 575 1369 575 1369 493 1369 c 10,47,-1
 197 1369 l 26,48,49
 104 1369 104 1369 104 1444 c 24,50,51
 104 1515 104 1515 197 1515 c 2,0,1
EndSplineSet
Validated: 1
Comment: "Currently only for historic Azerbaijani support (1922-1933), it's not correct +BBcA glyph, just number 3." 
EndChar

StartChar: afii10046
Encoding: 1068 1068 545
Width: 1030
VWidth: 0
Flags: W
HStem: 4 144<291 713.263> 915 143<293 709.89> 1495 20G<184.5 256>
VStem: 150 141<148 915 1058 1511.95> 757 143<190.5 868>
LayerCount: 2
Fore
SplineSet
585 148 m 2,0,1
 757 148 757 148 757 318 c 2,2,3
 757 747 l 2,4,5
 757 824 757 824 711.5 869.5 c 128,-1,6
 666 915 666 915 593 915 c 2,7,-1
 291 915 l 1,8,-1
 291 148 l 1,9,-1
 585 148 l 2,0,1
240 4 m 26,10,11
 150 4 150 4 150 72 c 26,12,-1
 150 1441 l 2,13,14
 150 1515 150 1515 219 1515 c 24,15,16
 293 1515 293 1515 293 1441 c 18,17,-1
 293 1058 l 1,18,-1
 623 1058 l 2,19,20
 750 1058 750 1058 843 944 c 24,21,22
 900 874 900 874 900 780 c 2,23,-1
 900 278 l 26,24,25
 900 161 900 161 813.5 82.5 c 152,-1,26
 727 4 727 4 599 4 c 2,27,-1
 240 4 l 26,10,11
EndSplineSet
Validated: 1
EndChar

StartChar: afii10073
Encoding: 1079 1079 552
Width: 832
VWidth: 0
Flags: W
HStem: 5 141<104.669 491.766> 626 141<245.614 494.875> 1149 146<105.109 491.121>
VStem: 575 150<847.543 1072.49> 592 140<241.208 528.23>
LayerCount: 2
Fore
SplineSet
193 1295 m 2,0,1
 392 1295 l 26,2,3
 522 1295 522 1295 636 1176 c 24,4,5
 725 1083 725 1083 725 946 c 0,6,7
 725 814 725 814 580 695 c 1,8,9
 732 585 732 585 732 423 c 2,10,11
 732 343 l 18,12,13
 732 214 732 214 621 103 c 24,14,15
 523 5 523 5 365 5 c 2,16,17
 185 5 l 26,18,19
 100 5 100 5 100 79 c 24,20,21
 100 146 100 146 190 146 c 2,22,23
 336 146 l 2,24,25
 457 146 457 146 527 218 c 0,26,27
 592 285 592 285 592 358 c 2,28,-1
 592 407 l 2,29,30
 592 486 592 486 532 549 c 0,31,32
 459 626 459 626 376 626 c 2,33,-1
 324 626 l 26,34,35
 241 626 241 626 241 701 c 24,36,37
 241 767 241 767 325 767 c 2,38,-1
 360 767 l 26,39,40
 460 767 460 767 521 835 c 0,41,42
 575 895 575 895 575 956 c 0,43,44
 575 1027 575 1027 535 1068 c 0,45,46
 455 1149 455 1149 375 1149 c 10,47,-1
 193 1149 l 26,48,49
 100 1149 100 1149 100 1224 c 24,50,51
 100 1295 100 1295 193 1295 c 2,0,1
EndSplineSet
Validated: 1
Comment: "Currently only for historic Azerbaijani support (1922-1933), it's not correct +BDcA glyph, just number 3 (scaled down)." 
EndChar

StartChar: afii10094
Encoding: 1100 1100 546
Width: 1030
VWidth: 0
Flags: W
HStem: 4 144<291 713.263> 774 143<293 709.89> 1495 20G<184.5 256>
VStem: 150 141<148 774 917 1511.95> 757 143<190.5 727>
LayerCount: 2
Fore
SplineSet
585 148 m 2,0,1
 757 148 757 148 757 318 c 2,2,3
 757 606 l 2,4,5
 757 683 757 683 711.5 728.5 c 128,-1,6
 666 774 666 774 593 774 c 2,7,-1
 291 774 l 1,8,-1
 291 148 l 1,9,-1
 585 148 l 2,0,1
240 4 m 26,10,11
 150 72 l 26,12,-1
 150 1441 l 2,13,14
 150 1515 150 1515 219 1515 c 24,15,16
 293 1515 293 1515 293 1441 c 18,17,-1
 293 917 l 1,18,-1
 623 917 l 2,19,20
 750 917 750 917 843 803 c 24,21,22
 900 733 900 733 900 639 c 2,23,-1
 900 278 l 26,24,25
 900 161 900 161 813.5 82.5 c 152,-1,26
 727 4 727 4 599 4 c 2,27,-1
 240 4 l 26,10,11
EndSplineSet
Validated: 1
EndChar

StartChar: uni04D8
Encoding: 1240 1240 544
Width: 1187
VWidth: 0
Flags: W
HStem: 0 148<441.187 759.316> 715 148<293 907> 1367 148<448.16 755.021>
VStem: 150 143<291.016 715> 907 145<298.641 715 863 1222.49>
LayerCount: 2
Fore
SplineSet
907 715 m 25,0,-1
 293 715 l 25,1,-1
 293 423 l 18,2,3
 293 317 293 317 396 225 c 0,4,5
 482 148 482 148 591 148 c 0,6,7
 717 148 717 148 796 219 c 0,8,9
 907 319 907 319 907 452 c 10,10,-1
 907 715 l 25,0,-1
396 1290 m 0,11,12
 332 1243 332 1243 304 1243 c 0,13,14
 271 1243 271 1243 261 1257 c 0,15,16
 241 1286 241 1286 241 1296 c 0,17,18
 241 1346 241 1346 280 1384 c 0,19,20
 416 1515 416 1515 602 1515 c 24,21,22
 779 1515 779 1515 914 1385 c 16,23,24
 1052 1252 1052 1252 1052 1067 c 2,25,-1
 1052 456 l 26,26,27
 1052 260 1052 260 915 127 c 0,28,29
 784 0 784 0 595 0 c 24,30,31
 415 0 415 0 284 127 c 16,32,33
 150 257 150 257 150 428 c 10,34,-1
 150 764 l 18,35,36
 150 863 150 863 230 863 c 10,37,-1
 907 863 l 25,38,-1
 907 1060 l 26,39,40
 907 1207 907 1207 802 1291 c 0,41,42
 707 1367 707 1367 590 1367 c 0,43,44
 501 1367 501 1367 396 1290 c 0,11,12
EndSplineSet
Validated: 1
EndChar

StartChar: endash
Encoding: 8211 8211 413
Width: 1024
VWidth: 0
Flags: W
HStem: 527 144<104.23 919.5>
LayerCount: 2
Fore
SplineSet
177 671 m 22,0,1
 852 671 l 14,2,3
 924 671 924 671 924 594 c 28,4,5
 924 527 924 527 847 527 c 6,6,-1
 174 527 l 14,7,8
 100 527 100 527 100 602 c 28,9,10
 100 671 100 671 177 671 c 22,0,1
EndSplineSet
Validated: 1
EndChar

StartChar: emdash
Encoding: 8212 8212 414
Width: 1315
VWidth: 0
Flags: W
HStem: 527 144<104.23 1210.5>
LayerCount: 2
Fore
SplineSet
177 671 m 18,0,1
 1143 671 l 10,2,3
 1215 671 1215 671 1215 594 c 24,4,5
 1215 527 1215 527 1138 527 c 2,6,-1
 174 527 l 10,7,8
 100 527 100 527 100 602 c 24,9,10
 100 671 100 671 177 671 c 18,0,1
EndSplineSet
Validated: 1
EndChar

StartChar: quoteright
Encoding: 8217 8217 568
Width: 477
VWidth: 0
Flags: W
HStem: 1365 446<209.641 267.12>
VStem: 202 145<1686.66 1806.27>
LayerCount: 2
Fore
SplineSet
202 1744 m 2,0,1
 219 1811 219 1811 272 1811 c 0,2,3
 347 1811 347 1811 347 1746 c 0,4,5
 347 1722 347 1722 341 1698 c 2,6,-1
 276 1435 l 2,7,8
 258 1365 258 1365 202 1365 c 0,9,10
 130 1365 130 1365 130 1433 c 0,11,12
 130 1455 130 1455 140 1496 c 2,13,-1
 202 1744 l 2,0,1
EndSplineSet
Validated: 1
EndChar

StartChar: quotereversed
Encoding: 8219 8219 567
Width: 477
VWidth: 0
Flags: W
HStem: 1366 446<209.88 267.359>
VStem: 130 217
LayerCount: 2
Fore
SplineSet
275 1745 m 2,0,-1
 337 1497 l 2,1,2
 347 1456 347 1456 347 1434 c 0,3,4
 347 1366 347 1366 275 1366 c 0,5,6
 219 1366 219 1366 201 1436 c 2,7,-1
 136 1699 l 2,8,9
 130 1723 130 1723 130 1747 c 0,10,11
 130 1812 130 1812 205 1812 c 0,12,13
 258 1812 258 1812 275 1745 c 2,0,-1
EndSplineSet
Validated: 1
EndChar

StartChar: bullet
Encoding: 8226 8226 588
Width: 712
VWidth: 0
Flags: W
HStem: 394 403<208.139 500.391>
VStem: 150 412<454.263 733.244>
LayerCount: 2
Fore
SplineSet
150 595.5 m 128,-1,1
 150 797 150 797 356 797 c 128,-1,2
 562 797 562 797 562 584 c 0,3,4
 562 394 562 394 356 394 c 128,-1,0
 150 394 150 394 150 595.5 c 128,-1,1
EndSplineSet
Validated: 1
EndChar

StartChar: perthousand
Encoding: 8240 8240 75
Width: 2389
VWidth: 0
Flags: W
HStem: 0 150<956.157 1169.39 1701.16 1914.39> 456 147<957.971 1171.7 1702.97 1916.7> 909 148<192.157 405.39> 1363 147<193.971 407.7>
VStem: 0 147<1102.71 1309.06> 454 146<1108.73 1312.35> 764 147<194.528 402.058> 1218 146<202.209 405.353> 1509 147<194.528 402.058> 1963 146<202.209 405.353>
LayerCount: 2
Fore
SplineSet
1925 402 m 0,0,1
 1884 456 1884 456 1804 456 c 0,2,3
 1739 456 1739 456 1690 398 c 0,4,5
 1656 358 1656 358 1656 297 c 0,6,7
 1656 232 1656 232 1703 192 c 0,8,9
 1752 150 1752 150 1807 150 c 0,10,11
 1863 150 1863 150 1924 203 c 0,12,13
 1963 237 1963 237 1963 302 c 0,14,15
 1963 352 1963 352 1925 402 c 0,0,1
2038 499 m 0,16,17
 2109 420 2109 420 2109 289 c 0,18,19
 2109 174 2109 174 2020 88 c 0,20,21
 1929 0 1929 0 1806 0 c 0,22,23
 1707 0 1707 0 1623 65 c 0,24,25
 1509 153 1509 153 1509 291 c 0,26,27
 1509 442 1509 442 1612 531 c 0,28,29
 1695 603 1695 603 1800 603 c 0,30,31
 1944 603 1944 603 2038 499 c 0,16,17
1180 402 m 0,32,33
 1139 456 1139 456 1059 456 c 0,34,35
 994 456 994 456 945 398 c 0,36,37
 911 358 911 358 911 297 c 0,38,39
 911 232 911 232 958 192 c 0,40,41
 1007 150 1007 150 1062 150 c 0,42,43
 1118 150 1118 150 1179 203 c 0,44,45
 1218 237 1218 237 1218 302 c 0,46,47
 1218 352 1218 352 1180 402 c 0,32,33
1293 499 m 0,48,49
 1364 420 1364 420 1364 289 c 0,50,51
 1364 174 1364 174 1275 88 c 0,52,53
 1184 0 1184 0 1061 0 c 0,54,55
 962 0 962 0 878 65 c 0,56,57
 764 153 764 153 764 291 c 0,58,59
 764 442 764 442 867 531 c 0,60,61
 950 603 950 603 1055 603 c 0,62,63
 1199 603 1199 603 1293 499 c 0,48,49
1221 1477 m 2,64,65
 1252 1510 1252 1510 1288 1510 c 0,66,67
 1362 1510 1362 1510 1362 1432 c 0,68,69
 1362 1412 1362 1412 1332 1378 c 2,70,-1
 135 31 l 26,71,72
 108 0 108 0 71 0 c 0,73,74
 0 0 0 0 0 75 c 0,75,76
 0 103 0 103 26 132 c 10,77,-1
 1221 1477 l 2,64,65
416 1309 m 0,78,79
 375 1363 375 1363 295 1363 c 0,80,81
 230 1363 230 1363 181 1305 c 0,82,83
 147 1265 147 1265 147 1204 c 0,84,85
 147 1139 147 1139 194 1099 c 0,86,87
 243 1057 243 1057 298 1057 c 0,88,89
 354 1057 354 1057 415 1110 c 0,90,91
 454 1144 454 1144 454 1209 c 0,92,93
 454 1259 454 1259 416 1309 c 0,78,79
529 1406 m 0,94,95
 600 1327 600 1327 600 1196 c 0,96,97
 600 1079 600 1079 511 995 c 0,98,99
 420 909 420 909 297 909 c 0,100,101
 198 909 198 909 114 972 c 0,102,103
 0 1057 0 1057 0 1198 c 0,104,105
 0 1349 0 1349 103 1438 c 0,106,107
 186 1510 186 1510 291 1510 c 0,108,109
 435 1510 435 1510 529 1406 c 0,94,95
EndSplineSet
Validated: 2049
EndChar

StartChar: uni204A
Encoding: 8266 8266 586
Width: 954
VWidth: 0
Flags: W
HStem: 898 145<104.285 695>
LayerCount: 2
Back
SplineSet
655 1044.2 m 2
 711 1044.2 739 1020.87 739 974.2 c 0
 739 959.533 732 920.533 718 857.2 c 26
 441 -395.8 l 26
 431 -442.467 408 -465.8 372 -465.8 c 0
 320.667 -465.8 295 -443.8 295 -399.8 c 0
 295 -390.468 296 -381.135 298 -371.8 c 2
 580 897.2 l 1
 132 897.2 l 1
 132 822.2 l 2
 132 774.867 107.667 751.2 59 751.2 c 0
 13 751.2 -10 775.867 -10 825.2 c 2
 -10 977.2 l 2
 -10 1021.87 16.6667 1044.2 70 1044.2 c 26
 655 1044.2 l 2
EndSplineSet
Fore
SplineSet
100 973 m 24,0,1
 100 1035 100 1035 178 1043 c 25,2,-1
 770 1043 l 1,3,4
 854 1043 854 1043 854 975 c 0,5,-1
 833 858 l 26,6,-1
 548 -396 l 26,7,8
 532 -466 532 -466 479 -466 c 0,9,10
 402 -466 402 -466 402 -400 c 0,11,-1
 405 -372 l 2,12,-1
 695 898 l 1,13,-1
 176 898 l 2,14,15
 100 898 100 898 100 973 c 24,0,1
EndSplineSet
Validated: 1
EndChar

StartChar: uni2070
Encoding: 8304 8304 416
Width: 593
VWidth: 0
Flags: W
HStem: 796 142<213.875 379.715> 1367 144<213.861 376.867>
VStem: 70 122<954.6 1351.4> 401 122<954.99 1346.02>
LayerCount: 2
Fore
SplineSet
292.5 1367 m 132,-1,1
 218 1367 218 1367 204 1296 c 4,2,3
 192 1237 192 1237 192 1168 c 4,4,5
 192 1080 192 1080 204 1012 c 4,6,7
 217 938 217 938 297 938 c 132,-1,8
 377 938 377 938 389 1012 c 132,-1,9
 401 1086 401 1086 401 1168 c 4,10,11
 401 1257 401 1257 389 1296 c 4,12,0
 367 1367 367 1367 292.5 1367 c 132,-1,1
297 796 m 132,-1,14
 205 796 205 796 139 862 c 28,15,16
 109 892 109 892 82 1012 c 20,17,18
 70 1065 70 1065 70 1168 c 4,19,20
 70 1248 70 1248 82 1296 c 4,21,22
 104 1385 104 1385 143 1452 c 4,23,24
 177 1511 177 1511 292.5 1511 c 132,-1,25
 408 1511 408 1511 450 1452 c 4,26,27
 489 1396 489 1396 511 1296 c 4,28,29
 523 1242 523 1242 523 1168 c 4,30,31
 523 1065 523 1065 511 1012 c 12,32,33
 484 893 484 893 454 862 c 28,34,13
 389 796 389 796 297 796 c 132,-1,14
EndSplineSet
Validated: 1
EndChar

StartChar: uni2074
Encoding: 8308 8308 417
Width: 755
VWidth: 0
Flags: W
HStem: 1049 147<255 388 532 660.25> 1495 20G<211.5 276.5>
VStem: 168 143<1397.85 1510.69> 388 144<802.449 1049 1196 1406.69>
LayerCount: 2
Fore
SplineSet
168 1459 m 30,0,1
 181 1515 181 1515 242 1515 c 4,2,3
 311 1515 311 1515 311 1446 c 4,4,5
 311 1436 311 1436 304 1406 c 6,6,-1
 255 1196 l 5,7,-1
 388 1196 l 5,8,-1
 388 1327 l 14,9,10
 388 1411 388 1411 461 1411 c 28,11,12
 532 1411 532 1411 532 1321 c 22,13,-1
 532 1196 l 5,14,15
 592 1196 l 5,16,17
 665 1196 665 1196 665 1117 c 4,18,19
 665 1054 665 1054 589 1054 c 21,20,-1
 532 1054 l 5,21,-1
 532 879 l 14,22,23
 532 798 532 798 458 798 c 28,24,25
 388 798 388 798 388 876 c 22,26,-1
 388 1049 l 5,27,-1
 161 1049 l 6,28,29
 122 1049 122 1049 90 1114 c 20,30,31
 89 1116 89 1116 89 1119 c 4,32,33
 90 1125 90 1125 104 1186 c 14,34,-1
 168 1459 l 30,0,1
EndSplineSet
Validated: 1
EndChar

StartChar: uni2075
Encoding: 8309 8309 418
Width: 670
VWidth: 0
Flags: W
HStem: 797 141<104.02 420.923> 1152 144<253 418.164> 1365 145<253 566.028>
VStem: 106 147<1296 1365> 435 135<952.898 1136.54>
LayerCount: 2
Fore
SplineSet
570 1044 m 4,0,1
 570 797 570 797 353 797 c 21,2,-1
 177 797 l 30,3,4
 100 797 100 797 100 867 c 28,5,6
 100 938 100 938 184 938 c 6,7,-1
 326 938 l 5,8,9
 435 938 435 938 435 1046 c 4,10,11
 435 1152 435 1152 320 1152 c 20,12,-1
 180 1152 l 6,13,14
 106 1152 106 1152 106 1237 c 30,15,-1
 106 1434 l 6,16,17
 106 1510 106 1510 193 1510 c 6,18,-1
 487 1510 l 30,19,20
 570 1510 570 1510 570 1437.5 c 156,-1,21
 570 1365 570 1365 491 1365 c 22,22,-1
 253 1365 l 5,23,-1
 253 1296 l 5,24,-1
 340 1296 l 14,25,26
 570 1296 570 1296 570 1044 c 4,0,1
EndSplineSet
Validated: 1
EndChar

StartChar: uni2076
Encoding: 8310 8310 419
Width: 634
VWidth: 0
Flags: W
HStem: 796 142<230.991 403> 1098 126<230 400.062> 1366 145<266.185 493.885>
VStem: 90 138<944.131 1098 1224 1327.93> 408 136<945.479 1089.9>
LayerCount: 2
Fore
SplineSet
228 1098 m 5,0,1
 228 1000 l 6,2,3
 228 938 228 938 318 938 c 132,-1,4
 408 938 408 938 408 1012 c 4,5,6
 408 1098 408 1098 317 1098 c 6,7,-1
 228 1098 l 5,0,1
90 1012 m 5,8,9
 90 1218 l 29,10,11
 90 1307 90 1307 138 1386 c 28,12,13
 177 1450 177 1450 255 1482 c 28,14,15
 326 1511 326 1511 412 1511 c 132,-1,16
 498 1511 498 1511 498 1438 c 28,17,18
 498 1366 498 1366 412 1366 c 4,19,20
 230 1366 230 1366 230 1224 c 4,21,-1
 356 1224 l 28,22,23
 544 1224 544 1224 544 1012 c 4,24,25
 544 923 544 923 494 860 c 20,26,27
 443 796 443 796 353 796 c 6,28,-1
 321 796 l 22,29,30
 90 796 90 796 90 1012 c 5,8,9
EndSplineSet
Validated: 1
EndChar

StartChar: uni2077
Encoding: 8311 8311 420
Width: 636
VWidth: 0
Flags: W
HStem: 1366 145<104.285 377>
VStem: 100 436<1370.17 1505.54>
LayerCount: 2
Fore
SplineSet
100 1442 m 28,0,1
 100 1511 100 1511 178 1511 c 29,2,-1
 452 1511 l 5,3,4
 536 1511 536 1511 536 1443 c 4,5,6
 536 1424 536 1424 515 1326 c 30,7,-1
 417 868 l 30,8,9
 402 798 402 798 348 798 c 4,10,11
 271 798 271 798 271 864 c 4,12,13
 271 878 271 878 274 892 c 6,14,-1
 377 1366 l 5,15,-1
 176 1366 l 6,16,17
 100 1366 100 1366 100 1442 c 28,0,1
EndSplineSet
Validated: 1
EndChar
